<?xml version="1.0" encoding="UTF-8" standalone="no"?>
<!-- Created with Inkscape (http://www.inkscape.org/) -->

<svg
   xmlns:dc="http://purl.org/dc/elements/1.1/"
   xmlns:cc="http://creativecommons.org/ns#"
   xmlns:rdf="http://www.w3.org/1999/02/22-rdf-syntax-ns#"
   xmlns:svg="http://www.w3.org/2000/svg"
   xmlns="http://www.w3.org/2000/svg"
   xmlns:sodipodi="http://sodipodi.sourceforge.net/DTD/sodipodi-0.dtd"
   xmlns:inkscape="http://www.inkscape.org/namespaces/inkscape"
   width="531.49603"
   height="354.33069"
   id="svg4401"
   version="1.1"
   inkscape:version="0.48.3.1 r9886"
   sodipodi:docname="climb7.svg">
  <defs
     id="defs4403">
    <path
       style="fill:none;stroke:none"
       d="M -62.968049,1565.0156 C 208.41449,1160.293 693.10851,1461.2638 648.21881,1792.7902"
       id="path6113"
       inkscape:connector-curvature="0"
       sodipodi:nodetypes="cc" />
  </defs>
  <sodipodi:namedview
     id="base"
     pagecolor="#ffffff"
     bordercolor="#666666"
     borderopacity="1.0"
     inkscape:pageopacity="0.0"
     inkscape:pageshadow="2"
     inkscape:zoom="0.98994949"
     inkscape:cx="374.91169"
     inkscape:cy="153.59992"
     inkscape:document-units="px"
     inkscape:current-layer="layer1"
     showgrid="false"
     units="cm"
     height="84.1cm"
     inkscape:window-width="1680"
     inkscape:window-height="988"
     inkscape:window-x="-8"
     inkscape:window-y="-8"
     inkscape:window-maximized="1">
    <inkscape:grid
       type="xygrid"
       id="grid3235" />
  </sodipodi:namedview>
  <metadata
     id="metadata4406">
    <rdf:RDF>
      <cc:Work
         rdf:about="">
        <dc:format>image/svg+xml</dc:format>
        <dc:type
           rdf:resource="http://purl.org/dc/dcmitype/StillImage" />
        <dc:title></dc:title>
      </cc:Work>
    </rdf:RDF>
  </metadata>
  <g
     inkscape:label="Layer 1"
     inkscape:groupmode="layer"
     id="layer1"
     transform="translate(0,-698.02992)">
    <text
       transform="scale(1.0421654,0.95954059)"
       sodipodi:linespacing="125%"
       id="text3960-78"
       y="937.57495"
       x="209.15311"
       style="font-size:65.18812561px;font-style:normal;font-variant:normal;font-weight:normal;font-stretch:normal;text-align:start;line-height:125%;letter-spacing:0px;word-spacing:0px;writing-mode:lr-tb;text-anchor:start;fill:#000000;fill-opacity:1;stroke:none;display:inline;font-family:Haettenschweiler;-inkscape-font-specification:Haettenschweiler"
       xml:space="preserve"><tspan
         y="937.57495"
         x="209.15311"
         id="tspan3962-1"
         sodipodi:role="line">że się </tspan></text>
    <text
       inkscape:transform-center-y="-104.22396"
       inkscape:transform-center-x="-140.91046"
       transform="scale(0.96325054,1.0381515)"
       sodipodi:linespacing="125%"
       id="text3960-7-2"
       y="867.18433"
       x="60.859932"
       style="font-size:65.18812561px;font-style:normal;font-variant:normal;font-weight:normal;font-stretch:normal;text-align:start;line-height:125%;letter-spacing:0px;word-spacing:0px;writing-mode:lr-tb;text-anchor:start;fill:#000000;fill-opacity:1;stroke:none;display:inline;font-family:Haettenschweiler;-inkscape-font-specification:Haettenschweiler"
       xml:space="preserve"><tspan
         y="867.18433"
         x="60.859932"
         id="tspan3962-2-8"
         sodipodi:role="line">nie wie,</tspan></text>
    <path
       style="fill:none;stroke:none;display:inline"
       d="m 114.87774,131.82832 c 100,-250 419.99999,-160.000013 439.99999,20"
       id="path4861"
       inkscape:connector-curvature="0"
       sodipodi:nodetypes="cc" />
    <text
       xml:space="preserve"
       style="font-size:130.70573425px;font-style:normal;font-variant:normal;font-weight:normal;font-stretch:normal;line-height:125%;letter-spacing:0px;word-spacing:0px;fill:#000000;fill-opacity:1;stroke:none;display:inline;font-family:Haettenschweiler;-inkscape-font-specification:Haettenschweiler"
       x="73.524323"
       y="979.34918"
       id="text4495"
       sodipodi:linespacing="125%"
       transform="scale(1.1948117,0.83695197)"><tspan
         sodipodi:role="line"
         id="tspan4497"
         x="73.524323"
         y="979.34918">MAMA</tspan></text>
    <g
       id="g5151"
       transform="matrix(0.56204312,0,0,0.6192457,223.40372,717.94968)">
      <path
         sodipodi:nodetypes="ccssssscsssscssccscscccccsssssssssssssssssssscssssc"
         inkscape:connector-curvature="0"
         id="path4651"
         d="m 481.32668,260.44993 c -5.63935,-1.29254 -11.23518,-4.0598 -18.96024,-9.55453 -3.77856,-3.07082 -6.61661,-5.65318 -9.45207,-7.97046 -10.87496,-8.88763 -15.22629,-13.60408 -16.21927,-16.84578 -0.32041,-1.04595 -1.30794,-1.52242 -1.61424,-2.07419 -1.12999,-2.03554 -1.32752,-1.38868 -0.6236,-0.3281 0.61311,0.92374 0.12808,4.64852 -1.04923,6.78262 -1.58338,2.87021 -5.13727,4.83772 -7.9077,5.89771 -1.241,0.41557 -3.05911,0.46167 -3.7708,0.46168 -3.33093,-1e-5 -9.57847,-6.55461 -10.53617,-11.684 -2.25279,-12.06569 12.14432,-31.70721 27.15306,-36.05835 3.57646,-1.03687 5.70166,-0.47592 8.13218,0.94439 6.7275,3.93128 10.29083,6.6789 12.76144,12.40953 1.40419,2.77556 2.13075,5.44833 2.65132,6.30809 0.76533,1.26394 0.96219,2.65806 1.33648,3.1857 1.1781,1.66078 1.22143,0.74936 4.79803,7.55235 l 2.24663,4.40902 c 1.80399,25.08308 -0.89436,17.59386 -0.55088,5.87323 0.1637,-5.58602 1.57974,-11.79245 2.56182,-16.5284 1.57665,-7.48608 0.95524,-10.35025 2.20183,-11.93968 l 0.25239,-1.50488 -1.44325,-8.947 -14.46561,-16.56071 c -1.21698,-1.19581 -0.17903,-1.26418 0.47144,-1.52631 2.81811,1.35716 5.22434,3.25529 8.74346,3.03516 l 0.43551,-0.80155 c 0.006,-0.0115 1.71111,-1.97909 1.36369,-4.31442 -0.24412,-1.64091 -2.39518,-3.87282 -3.00522,-3.96752 -0.8619,-0.13387 -2.72267,0.11548 -3.70965,1.44934 -0.84682,1.14453 -0.81772,3.32012 -1.60741,4.09221 -1.08033,1.05629 -2.2405,0.2013 -2.45287,-0.39533 -0.94309,-2.6496 3.41824,-8.37648 9.13403,-9.05452 1.10446,-0.13105 -0.29644,-1.2862 -0.74705,-2.28743 -1.10502,-2.45526 -4.52509,-6.41607 -4.26452,-7.95623 0.3906,-2.30856 1.16286,-0.90511 2.87764,-1.16368 0.99829,-0.15057 6.39411,9.9779 7.66612,9.72023 0.75598,-0.15319 -1.22385,-7.08289 -1.21305,-8.94851 0.0193,-3.34141 1.557,-2.44363 2.02782,-2.63693 0.37702,-0.15482 1.84772,1.74361 2.45341,4.01301 1.007,3.77304 1.30838,8.83086 2.59378,9.08746 0.59385,0.1186 0.76918,-6.63622 1.34804,-8.90793 0.88213,-3.46181 2.11834,-2.82852 2.61525,-1.27083 0.62196,1.94971 -1.14469,16.7248 -0.82145,17.20062 0.938,1.38076 0.84423,9.01005 1.24483,13.89224 0.17753,2.16353 0.98362,4.0238 1.11328,4.15894 1.27168,1.32525 1.29966,10.06626 1.43333,10.21219 0.2674,0.29195 4.60904,18.53849 6.15342,25.68334 1.48477,6.8691 3.29978,14.67335 3.31245,16.30916 0.016,2.06447 -1.17355,4.6773 -3.14672,8.67546 -1.9172,3.88473 -5.9607,10.18505 -7.11261,11.00046 -0.76966,0.54484 -3.40584,1.10305 -4.40907,0.87313 z"
         style="fill:#e9c6af;fill-opacity:1;stroke:none;display:inline" />
      <path
         sodipodi:nodetypes="cssccc"
         inkscape:connector-curvature="0"
         id="path4127-0-1"
         d="m 434.01276,221.6062 c 2.93638,2.31493 6.56438,3.26597 9.77157,5.63955 13.05724,9.66344 28.65117,24.87766 39.89048,25.56973 5.15704,0.31753 8.49483,-6.68856 11.85477,-11.10546 -1.64622,6.71324 -1.57849,7.7539 -10.12897,18.37252 -13.09206,1.93227 -42.7691,-24.08714 -51.38785,-38.47634 z"
         style="fill:#deaa87;fill-opacity:1;stroke:none;display:inline" />
      <path
         sodipodi:nodetypes="sssccccssssssssscsscsss"
         inkscape:connector-curvature="0"
         id="path4649"
         d="m 388.22216,209.46114 c -7.87315,-0.74185 -12.54511,-4.66523 -12.03201,-9.67372 0.21181,-2.06752 2.68604,-7.2876 5.72507,-11.38255 2.44858,-3.29933 13.72389,-17.53082 14.11166,-17.14307 0.0715,0.0716 2.04746,0.29012 2.68816,2.26584 -1.15445,12.10767 0.93938,8.95373 -0.22611,-1.05856 l -0.24144,-2.69646 c 0.0951,0.0654 -4.98072,-1.5275 -9.76231,-5.86195 -4.97508,-4.50988 -9.68023,-11.87856 -10.45983,-17.70105 -0.30362,-2.26769 1.16775,-3.47389 1.23666,-5.51619 0.13502,-4.00228 -0.865,-8.73433 -0.83166,-13.3717 0.137,-19.05313 20.71642,-27.619203 21.96916,-26.21908 0.96766,1.08152 28.78337,11.63967 40.53007,27.41585 2.56939,3.45077 3.56231,10.8814 0.5616,16.58568 -1.70612,3.24333 -8.24793,2.11027 -9.41066,5.55529 -1.91006,5.65928 -5.70169,9.69933 -5.38033,9.62803 2.18396,-0.48487 -8.52824,8.51285 -5.08536,9.63292 7.62912,10.7568 1.03283,3.10805 1.80499,2.43524 0.21118,-0.18402 1.80856,2.30517 4.04015,4.28771 1.63304,1.45083 4.50598,2.42551 5.5695,2.90536 0.28845,0.25126 -1.12973,3.0605 -2.79426,5.12963 -7.02082,8.72738 -20.98753,21.20615 -31.6491,25.064 -2.70808,0.97986 -5.62738,0.16511 -10.36398,-0.28121 z"
         style="fill:#e9c6af;fill-opacity:1;stroke:none;display:inline" />
      <path
         sodipodi:nodetypes="cccccssssscccccccsscccscssccccccc"
         inkscape:connector-curvature="0"
         id="path6030"
         d="m 326.77784,322.14124 c 0.66266,-0.53192 11.28549,-5.89795 11.92144,-6.60917 0.35127,-0.3929 0.90534,-1.00191 1.23124,-1.35345 0.62755,-0.67684 0.11254,-3.2191 0.84027,-4.21568 0.40718,-0.55749 -0.86551,0.19768 -0.38563,-1.28274 0.28722,-0.88625 -0.2417,-1.80705 -0.0322,-2.42737 1.1036,-3.26843 4.96739,-5.30462 5.16365,-9.68558 0.24709,-5.51468 -2.05169,-9.62697 -4.06627,-14.13235 -0.57004,-1.27486 -2.28751,-4.4428 -3.13576,-5.79308 -1.04308,-1.66044 -1.58964,-3.32287 -2.97976,-4.1081 -6.31198,-3.5654 -6.22352,-7.71036 -7.6955,-10.2925 -0.5621,-0.54794 -0.31812,-0.041 -0.92752,-0.99627 0.059,1.4e-4 0.90275,1.34784 0.90276,1.14543 1e-5,-0.17833 0.20172,-1.17438 0.26877,-1.85409 0.47557,-4.826 1.72674,-10.31238 3.80972,-15.51526 0.34251,-1.72927 1.3149,-3.05779 1.43606,-3.21188 0.75731,1.0289 0.41751,-1.13536 0.51846,-0.81748 0.46042,1.45023 0.51259,3.15472 1.52408,4.82591 4.07812,6.73801 11.7864,14.06781 22.87639,21.29648 3.43141,2.23664 8.41171,5.20406 12.23552,7.29034 0.94005,0.51283 1.70921,0.95727 1.70922,0.9876 -7e-5,0.0301 -0.22101,0.21618 -0.49116,0.41309 -2.03127,1.48072 -2.86938,2.47408 -3.23528,3.83465 -0.15516,0.57695 -0.15887,1.57203 -0.0109,2.93231 0.3004,2.76219 0.35562,6.97615 0.12302,9.38798 -0.62889,6.52041 -2.33909,11.76289 -5.33495,16.35382 -2.41328,3.69814 -4.52266,6.73977 -8.4968,8.9761 l -2.50727,1.60351 -10.01247,3.45374 -16.11166,0.22046 1.08296,-0.64691 0.80833,-0.51438 z"
         style="fill:#000000;fill-opacity:1;stroke:none;display:inline" />
      <path
         sodipodi:nodetypes="cssssccscccssscssssssccscssscssccsssscccsc"
         inkscape:connector-curvature="0"
         id="path4677"
         d="m 344.51094,257.40712 c -2.56249,-1.96501 -6.67283,-10.47531 -9.63396,-13.94072 -1.18627,-1.3883 -0.0942,-5.80566 -1.85953,-2.77372 -0.45007,0.77296 -4.44934,12.125 -2.49008,6.73875 2.42301,-6.66105 7.10484,-15.59331 12.72045,-22.53778 l 3.78342,-3.77659 0.32151,2.25309 c 9.60026,8.75908 5.33564,7.99583 1.91039,3.67935 -2.10687,-2.65507 -2.45316,-7.38736 -3.33978,-9.90115 -0.84361,-2.48705 -1.00465,-3.58926 -1.02641,-7.02529 -0.76881,-10.31002 4.49583,-17.32308 12.59779,-17.36663 1.83203,-0.25408 6.43819,-1.91487 8.75294,-2.87034 6.00957,-2.48038 9.52992,-5.00845 14.27969,-9.88408 5.39374,-5.53667 7.66812,-6.38307 13.01197,-6.69457 1.77416,-0.10344 3.57296,0.60805 4.27916,0.0993 l -7.27355,6.79536 c -3.76262,3.51526 -6.21009,7.12228 -8.3323,10.01447 -4.10708,5.59724 -6.58536,9.51957 -6.24191,13.86568 0.18057,2.28496 1.32962,4.93661 2.60522,6.01194 0.9491,0.80009 7.98942,0.9399 11.70611,0.24314 11.76293,-2.20517 24.339,-10.05912 35.58388,-20.92877 3.27922,-3.16979 6.16656,-6.7426 6.91724,-8.51326 0.21601,-0.50939 0.28306,-2.08618 0.54911,-1.27499 -0.12876,-0.99062 4.18795,1.70514 6.73949,4.7445 l 4.06036,4.052 -2.68974,0.50761 c -9.1348,1.72403 -21.34605,10.82273 -27.08937,22.45925 -3.12911,6.34001 -2.34771,8.33482 -2.38523,14.16511 -0.0194,3.00797 2.99922,5.89861 5.82599,9.23967 5.73926,2.53514 14.33125,-2.14299 14.65872,-3.77258 0.12374,-0.61587 0.86071,-0.27741 -0.22387,2.26088 -0.89986,2.10587 -3.63655,6.4385 -3.72278,6.52527 l -0.65961,0.66115 0.66998,-0.35448 c 2.57467,-1.36217 -6.83532,8.2718 -11.19863,10.80219 -1.84835,1.07188 -9.69407,5.99949 -20.39451,10.94277 -16.55449,7.6478 -21.24018,11.3987 -27.43437,13.2007 -1.73108,0.50359 5.34827,-12.39476 2.38225,1.13027 -3.01858,1.61472 -2.96073,-7.902 -3.61136,-4.22973 -1.55596,4.69916 -0.33506,-1.77146 -1.13671,1.57503 0.69686,-12.17521 -3.34734,-5.7385 -5.23484,-5.69621 -2.82777,0.0634 -5.47072,-2.5859 -17.37713,-10.42662 z"
         style="fill:#d40000;stroke:none;display:inline" />
      <path
         sodipodi:nodetypes="cccscsssc"
         inkscape:connector-curvature="0"
         id="path4679"
         d="m 371.75253,275.72293 -0.54232,0.373 c 19.06677,-21.48738 44.67709,-28.83861 40.25688,-55.79819 0.82675,6.2153 2.86983,14.38531 9.40392,15.38112 2.99743,0.45683 7.92458,-2.8936 12.36267,-4.55105 -1.44845,1.48334 -0.86022,3.14718 -2.63006,5.96705 -2.3311,3.71411 -7.07908,8.67786 -9.31945,10.36133 -9.38037,7.04863 -21.56454,13.84427 -34.02614,18.98168 -7.15561,2.94992 -10.31968,5.47325 -15.5055,9.28506 z"
         style="fill:#aa0000;stroke:none;display:inline" />
      <path
         style="fill:#000000;fill-opacity:1;stroke:none;display:inline"
         d="m 324.46634,321.50331 c -5.00862,0.19814 -11.22562,-1.18839 -16.81304,-3.74964 -9.16411,-4.20076 -19.83834,-13.70112 -32.1879,-28.64822 -3.26176,-3.94778 -5.06412,-6.23423 -13.27207,-16.83648 -7.88418,-10.184 -11.64105,-13.63063 -14.68838,-16.89257 -5.42897,-3.39065 -15.16439,-11.10942 -4.34456,-3.3424 l -0.76319,1.5874 c -1.12223,2.33421 -0.59523,2.9063 -2.75831,2.28452 -7.82481,-2.24891 -14.91548,-6.46848 -18.63638,-12.21003 -1.98121,-3.05706 -3.84496,-6.09256 -4.28748,-10.96054 l -0.35652,-3.92221 -0.0426,-0.86402 c 0,0 2.09435,-2.23011 3.62844,-3.89972 4.93971,-5.37628 9.60151,-9.82118 13.8014,-11.6167 2.96858,-1.26911 8.79487,-1.533 14.19084,-0.91994 4.9822,0.66579 11.33243,2.13595 16.5838,4.49812 31.12273,13.99949 63.77055,40.29736 76.27537,63.30126 5.7417,10.62119 5.97137,24.06592 0.57112,33.04767 -1.73677,2.88861 -4.546,4.94931 -7.11798,6.63279 -1.63649,1.07116 -1.90047,1.51967 -4.76127,2.33008 -2.20096,0.6235 -3.93855,0.1378 -5.02126,0.18063 z"
         id="path3121"
         inkscape:connector-curvature="0"
         sodipodi:nodetypes="ssssccssssccsscscssss" />
      <path
         sodipodi:nodetypes="sscsscssscsscs"
         style="fill:#e9c6af;fill-opacity:1;stroke:none;display:inline"
         d="m 201.60993,282.40857 c 1.04769,-8.8897 1.59692,-18.90332 0.70617,-27.64154 -0.19488,-1.91195 -0.38105,-3.80433 -0.41366,-4.20524 -0.0461,-0.56759 0.20593,-2.00681 2.42143,-5.52375 2.80931,-4.45957 6.66348,-9.36459 8.06241,-11.15567 l 1.26612,-2.12475 0.70806,3.2694 c 0.48494,2.23898 1.29851,8.25295 5.0122,13.26695 3.92012,5.29273 10.87373,9.57714 16.3445,11.26844 l 2.36427,0.73093 -0.26421,0.94763 c -1.41107,5.06089 -10.32088,8.74407 -23.52975,16.34698 -4.21776,2.42769 -11.69666,7.65525 -13.05186,8.64199 -0.3088,0.22487 0.13419,-1.78383 0.37432,-3.82137 z"
         id="path3896"
         inkscape:connector-curvature="0" />
      <path
         sodipodi:nodetypes="ccccc"
         inkscape:connector-curvature="0"
         id="path4693"
         d="m 201.30746,285.78739 c 4.27342,-5.61087 26.63967,-13.86236 25.07631,-31.21419 l 13.31324,5.18693 c -4.63995,4.23426 -9.00096,9.12966 -14.3163,11.76317 z"
         style="fill:#deaa87;fill-opacity:1;stroke:none;display:inline" />
      <path
         style="fill:#4d4d4d;fill-opacity:1;stroke:none;display:inline"
         d="m 235.08948,258.55099 c -9.6243,-3.2653 -16.54178,-9.77446 -19.55462,-18.70307 -0.77178,-2.28721 -1.34739,-6.50616 -1.47308,-8.21891 -0.0857,-1.16772 1.63359,-1.82 1.9378,-2.0131 1.34825,6.65478 3.86166,13.11713 8.11692,17.66211 3.83549,4.09665 9.21595,6.51246 14.1654,8.25628 2.96995,0.96693 3.03671,0.93274 2.47876,1.9488 -0.31885,0.58074 -1.69922,2.82082 -1.34919,2.36482 -0.0259,-0.002 -2.2718,-0.60136 -4.32199,-1.29693 z"
         id="path3924"
         inkscape:connector-curvature="0"
         sodipodi:nodetypes="ssscscscs" />
      <path
         style="fill:#502d16;stroke:#000000;stroke-width:0.98775226;stroke-linecap:butt;stroke-linejoin:miter;stroke-miterlimit:4;stroke-opacity:1;stroke-dasharray:none;display:inline"
         d="m 435.25423,86.630297 c 0,0 2.7402,-3.26325 5.44029,-4.04093 12.28544,-3.53864 20.69529,25.218413 31.73913,24.089743 30.74256,-3.14176 10.58087,-41.706483 4.14809,-42.680983 0,0 -1.06374,12.27581 -5.85797,14.06153 -9.68542,3.60762 -17.62596,-16.06749 -27.82095,-13.6368 -8.61612,2.05422 -13.08226,19.47508 -13.08226,19.47508"
         id="path3995"
         inkscape:connector-curvature="0"
         sodipodi:nodetypes="csscasc" />
      <path
         sodipodi:nodetypes="cscssssscc"
         style="fill:#000000;fill-opacity:1;stroke:none;display:inline"
         d="m 311.32161,247.27394 c -9.12537,-8.09296 -17.50255,-15.08706 -25.38388,-20.27317 -4.36081,-2.8695 -7.90467,-4.21783 -7.32688,-4.15839 0.72411,0.0745 11.53284,2.71659 17.80905,4.59108 4.81771,1.43895 25.38706,6.95672 29.04034,8.8472 0.66386,0.34353 7.31456,2.30738 7.15143,3.236 -0.80632,4.58977 3.18602,17.87881 -8.32052,16.48652 -0.89646,-0.10846 -8.30152,-4.98924 -8.34997,-4.97668 -0.0485,0.0119 -1.86291,-1.64992 -3.71688,-3.29409 z"
         id="path3123"
         inkscape:connector-curvature="0" />
      <path
         sodipodi:nodetypes="cccccc"
         inkscape:connector-curvature="0"
         id="path4681"
         d="m 346.5677,219.93201 c -2.95267,1.97619 -2.27424,3.46569 -5.28883,7.78037 6.85927,8.34449 15.07878,11.21577 26.26175,7.59513 7.28358,12.62091 22.29641,13.95757 26.80886,12.96729 -25.71538,-1.74803 -23.92426,-17.06438 -23.70852,-22.04439 -6.06575,1.94591 -16.02596,8.14965 -24.07326,-6.2984 z"
         style="fill:#aa0000;fill-opacity:1;stroke:none;display:inline" />
      <path
         sodipodi:nodetypes="sssssssscs"
         style="fill:#deaa87;fill-opacity:1;stroke:none;display:inline"
         d="m 218.18532,276.35197 c 5.22666,-2.53867 9.63338,-6.18191 11.6796,-7.67022 4.21416,-3.06506 8.49581,-6.45673 10.61748,-9.48501 0.54093,-0.77203 0.91211,-2.28991 1.15921,-2.35419 0.73383,-0.19297 3.71033,1.3055 5.3761,2.60902 2.06498,1.61583 2.54835,2.38996 1.82619,3.35735 -1.98404,2.65779 -7.01618,6.54497 -11.67435,8.72261 -3.0034,1.40415 -7.56782,3.32346 -13.80359,4.62268 -2.78619,0.58053 -9.8231,3.44683 -8.35618,1.74019 z"
         id="path3898"
         inkscape:connector-curvature="0" />
      <path
         sodipodi:nodetypes="ccsccc"
         inkscape:connector-curvature="0"
         id="path4697"
         d="m 238.41301,249.16852 c 42.20803,28.64994 118.93398,114.81212 129.43877,32.62835 2.01333,3.90681 0.19449,15.39028 -3.11528,23.63382 -1.43617,3.57693 -4.82319,5.70883 -5.51851,7.73759 -8.70135,13.62232 -41.62443,9.01604 -47.22724,6.76662 -25.0508,-3.88067 -48.7929,-52.14125 -73.57774,-70.76638 z"
         style="fill:#333333;fill-opacity:1;stroke:none;display:inline" />
      <path
         sodipodi:nodetypes="scccsccs"
         style="fill:#333333;fill-opacity:1;stroke:none;display:inline"
         d="m 248.4286,260.90585 c -1.84032,-1.77742 -8.00463,-5.0446 -9.94921,-5.14005 0.9485,-2.41006 0.51921,-3.98965 -0.005,-6.76094 l 3.413,1.51856 c 0.28453,-1.35891 4.45917,2.61399 6.13768,5.03567 l 2.98258,4.30302 1.13972,-0.43571 c -0.80258,1.14118 -2.68957,2.47372 -3.71907,1.47945 z"
         id="path3894"
         inkscape:connector-curvature="0" />
      <path
         sodipodi:nodetypes="cscccc"
         inkscape:connector-curvature="0"
         id="path4699"
         d="m 331.05701,238.56178 c -0.79144,-1.14083 -1.48471,16.79485 -9.00035,13.47931 -3.70213,-1.6332 -34.05158,-22.80277 -33.86612,-23.17592 13.85095,10.34351 27.53046,20.85843 38.93146,33.65185 1.65617,-6.42107 2.8778,-18.96107 6.95883,-22.696 z"
         style="fill:#333333;fill-opacity:1;stroke:none;display:inline" />
      <path
         style="fill:none;stroke:#000000;stroke-width:0.92481494px;stroke-linecap:round;stroke-linejoin:miter;stroke-opacity:1;display:inline"
         d="m 201.40328,249.60716 c 0,0 19.61995,-34.94759 36.26173,-37.97364 39.2174,-7.13106 97.63746,59.36776 97.63747,59.54692 18.67199,19.90844 10.52292,60.15751 -23.0397,49.04813 -31.87868,-9.71494 -62.03554,-72.56568 -74.08717,-70.90255"
         id="path3883"
         inkscape:connector-curvature="0"
         sodipodi:nodetypes="csccc" />
      <path
         style="fill:none;stroke:#000000;stroke-width:0.92481494px;stroke-linecap:butt;stroke-linejoin:miter;stroke-opacity:1;display:inline"
         d="m 201.00551,286.58411 c 14.61774,-10.90817 36.51546,-17.36349 43.04129,-35.21596"
         id="path3885"
         inkscape:connector-curvature="0"
         sodipodi:nodetypes="cc" />
      <path
         style="fill:#4d4d4d;stroke:#000000;stroke-width:0.92481494px;stroke-linecap:butt;stroke-linejoin:miter;stroke-opacity:1;display:inline"
         d="m 277.19888,222.19953 c 18.6066,4.52881 37.14099,10.19762 56.43553,17.11802"
         id="path3887"
         inkscape:connector-curvature="0"
         sodipodi:nodetypes="cc" />
      <path
         style="fill:none;stroke:#000000;stroke-width:1.21620226;stroke-linecap:round;stroke-linejoin:miter;stroke-miterlimit:4;stroke-opacity:1;stroke-dasharray:none;display:inline"
         d="m 319.69774,321.76307 c 2.38287,0.26822 8.5886,1.1582 10.69071,1.20892 32.95894,0.7944 39.17111,-22.73364 37.0346,-40.6392 -0.45856,-3.84308 3.2312,-4.70604 5.3066,-7.16596"
         id="path3891"
         inkscape:connector-curvature="0"
         sodipodi:nodetypes="cssc" />
      <path
         sodipodi:nodetypes="cccccc"
         inkscape:connector-curvature="0"
         id="path6022"
         d="m 433.80227,230.36969 -9.2491,4.78039 c 2.95294,-2.75821 9.2152,-6.87146 0.72746,-15.48441 l 6.44319,-0.51965 2.49414,4.15695 z"
         style="fill:#deaa87;fill-opacity:1;stroke:none;display:inline" />
      <path
         style="fill:none;stroke:#000000;stroke-width:0.92481494px;stroke-linecap:round;stroke-linejoin:miter;stroke-opacity:1;display:inline"
         d="m 372.19521,275.83714 c 11.36624,-9.74255 21.93179,-12.02108 36.27724,-19.85581 11.69062,-6.38481 23.23092,-15.96466 25.28633,-26.30868 l 0.87488,-6.47362"
         id="path3893"
         inkscape:connector-curvature="0"
         sodipodi:nodetypes="cscc" />
      <path
         sodipodi:nodetypes="csscscssssssscsscssscccsccssccccccssssscscsscccssssscc"
         inkscape:connector-curvature="0"
         id="path4647"
         d="m 364.42979,188.4626 c -0.0136,-0.60979 -0.57675,-1.14063 -0.64771,-1.79485 -0.64965,-5.98982 -3.07621,-13.7112 -6.3401,-18.66965 -1.51103,-2.29556 -2.74613,-3.41693 -6.14332,-6.14412 -2.01179,-2.70847 -3.06014,-2.14799 -3.86855,-3.01938 -3.49882,-3.77153 0.86992,2.21445 -10.80894,-11.07019 -0.90109,-1.03576 -4.17856,-4.91276 -7.28323,-8.67905 -2.13372,-2.58838 -4.61978,-5.60073 -6.27044,-7.53367 -0.75114,-0.87958 -1.25765,-1.6091 -1.64483,-1.96264 -2.04936,-1.87117 -2.78238,-4.03594 -5.40556,-10.02701 -3.03126,-6.92301 -5.12389,-12.72187 -7.06776,-19.891563 -1.15756,-4.2694 -2.93781,-8.9913 -4.15661,-14.8185 -0.84692,-4.04913 -2.58919,-12.39055 -3.72481,-16.38932 -0.43127,-1.51855 -0.93905,-2.52573 -1.70888,-2.52307 -0.24051,8.3e-4 -2.32869,0.67218 -4.38634,1.30142 -3.48503,1.06567 -9.29117,3.06174 -13.91751,3.78101 -3.67178,0.57086 -6.55418,-0.3205 -6.6372,-0.34821 -0.1943,-0.0648 -0.53631,-1.69654 2.75258,-3.13065 1.10949,-0.48379 2.51215,-1.12141 3.90866,-1.36982 2.194,-0.39029 4.29652,-0.27783 4.63991,-0.59877 2.70228,-2.52561 5.49621,-7.19864 5.50823,-11.89931 l 0.004,-1.6108 c -0.26912,-2.1267 -2.65852,-4.41 -1.57185,-6.1751 0,0 -2.89291,-4.21521 -5.74474,-5.05501 -5.06056,-1.49019 -15.45376,1.07285 -15.45376,1.07285 -0.53086,-1.41097 -0.26802,-1.63141 -0.29815,-2.29127 0,0 4.85565,-1.73363 7.61736,-2.28056 1.22106,-0.24176 2.83849,-0.19852 4.42338,-0.32925 3.07539,-0.25363 6.11563,-0.27036 6.11563,-0.27036 l 5.91607,0.55136 3.47682,1.24107 3.54583,1.79305 4.65805,3.04445 3.83619,8.69876 1.81953,4.8324 c 4.86244,12.91394 5.77122,14.69069 10.04694,22.13548 4.26815,7.43157 6.69215,11.42586 11.51486,20.62855 6.4856,12.375873 8.90701,16.666773 11.76571,21.076203 1.42133,2.19231 1.53372,1.11845 2.97655,1.94467 4.25417,2.43601 7.12021,5.06303 10.55084,8.55287 4.18871,5.04055 7.83109,8.71984 8.64997,9.64093 1.34159,1.50906 -0.98761,-1.51373 9.009,6.58081 3.33208,3.05439 6.90905,6.88682 8.98448,9.98353 2.51345,3.75027 5.14214,6.86482 8.55445,9.17926 1.38055,0.93639 4.36385,2.61214 5.57466,3.07251 0.38324,0.14568 0.53906,0.32564 0.71074,1.19074 0.12095,0.60944 0.23679,1.97519 0.19394,2.0189 -0.0428,0.0439 -1.56983,0.52538 -3.20276,0.62593 -1.63292,0.10059 -3.96142,0.16354 -5.04741,0.33052 -3.49438,0.53731 -5.77532,2.29527 -10.07414,6.99923 -2.95083,3.22887 -4.75247,4.54495 -8.49295,6.69875 -1.68839,0.9722 -6.68812,3.08503 -7.02736,3.29668 -1.8605,1.1606 0.19078,-1.47054 0.17039,-2.39022 z"
         style="fill:#e9c6af;fill-opacity:1;stroke:none;display:inline" />
      <path
         sodipodi:nodetypes="cccssccccssc"
         inkscape:connector-curvature="0"
         id="path6024"
         d="m 363.34287,191.29482 10.71958,-5.01741 1.7511,-0.69833 c -0.87407,-15.90473 -12.07241,-28.72469 -22.85151,-40.12818 -5.32891,-5.63758 -20.80164,-12.3757 -28.05733,-21.71503 -12.783,-16.45397 -24.85057,-57.355753 -24.85057,-57.355753 6.19449,20.12224 6.05588,36.114223 18.60211,60.378913 l 26.83851,30.84849 7.87158,5.42045 c 2.38741,4.92677 4.99141,4.26234 7.41986,11.38187 0.99024,2.90306 2.55778,7.01369 3.1225,13.46062 0.0944,1.07766 -0.64833,2.21767 -0.56583,3.42436 z"
         style="fill:#deaa87;fill-opacity:1;stroke:none;display:inline" />
      <path
         style="fill:none;stroke:#000000;stroke-width:0.92481494px;stroke-linecap:round;stroke-linejoin:miter;stroke-opacity:1;display:inline"
         d="m 363.27594,191.34662 c 2.20601,0.16546 -0.94856,-22.56645 -11.81396,-29.52371 -12.35504,-7.91111 -21.03303,-22.08846 -32.84823,-34.89078 -12.48834,-25.02714 -12.94827,-41.123643 -16.05984,-51.113033 -1.82378,-5.85504 -1.68412,-9.97995 -3.75592,-9.40804 -5.58646,1.54211 -11.91997,3.88743 -17.30493,4.97275 -13.91794,1.58774 -6.13036,-5.44049 1.14797,-5.67116 3.25544,0.0268 4.6734,-1.46715 6.28565,-4.28204 2.84989,-4.97582 2.463,-15.07733 -1.99969,-18.53799 -4.58857,-3.55824 -18.62082,0.059 -18.62082,0.059 0,0 -1.34507,-2.8878 -0.34688,-3.53227 3.63329,-2.34587 13.3511,-3.07727 19.06455,-3.00118 6.79081,0.0904 11.69441,2.54386 16.80673,6.81204 6.20226,11.32369 8.36741,22.84562 14.12006,32.6454 14.86878,25.329293 16.94424,33.018293 25.41739,45.573173 10.60429,5.40847 14.64275,11.94133 23.13311,20.66499"
         id="path3895"
         inkscape:connector-curvature="0"
         sodipodi:nodetypes="cscssccsscsscscc" />
      <path
         style="fill:none;stroke:#000000;stroke-width:0.92481494px;stroke-linecap:round;stroke-linejoin:miter;stroke-opacity:1;display:inline"
         d="m 381.03602,179.59743 c 0,0 -4.61661,6.52524 -15.24299,10.72393 -9.65279,3.81415 -13.33519,1.78375 -18.06986,7.82074 -5.63537,7.18542 -2.3946,27.58283 7.50199,31.13493"
         id="path3897"
         inkscape:connector-curvature="0"
         sodipodi:nodetypes="cssc" />
      <path
         style="fill:none;stroke:#000000;stroke-width:0.92481494px;stroke-linecap:round;stroke-linejoin:miter;stroke-opacity:1;display:inline"
         d="m 378.4644,216.66373 c -14.96978,12.66836 -7.97856,31.17859 15.50578,31.31193"
         id="path3899"
         inkscape:connector-curvature="0"
         sodipodi:nodetypes="cc" />
      <path
         style="fill:none;stroke:#000000;stroke-width:0.92481494px;stroke-linecap:round;stroke-linejoin:miter;stroke-opacity:1;display:inline"
         d="m 433.48548,230.48838 c 0,0 -10.99666,7.44318 -15.22209,4.29083 -18.40938,-13.7341 6.49322,-45.22979 26.22222,-46.221"
         id="path3901"
         inkscape:connector-curvature="0"
         sodipodi:nodetypes="csc" />
      <path
         sodipodi:nodetypes="ccsccccc"
         inkscape:connector-curvature="0"
         id="path6026"
         d="m 462.52398,210.65304 1.39621,9.40598 c 0,0 2.47186,4.64404 3.36807,7.10793 1.86283,5.12131 4.12735,15.81917 4.12735,15.81917 l -1.52429,-9.6334 0.0546,-9.83991 -7.12798,-12.93327 z"
         style="fill:#deaa87;fill-opacity:1;stroke:none;display:inline" />
      <path
         style="fill:none;stroke:#000000;stroke-width:0.92481494px;stroke-linecap:round;stroke-linejoin:miter;stroke-opacity:1;display:inline"
         d="m 425.59001,219.6637 c 0,0 5.76809,-1.59738 6.91616,0.3431 12.3211,20.82542 48.27765,47.37928 54.19744,38.72363 0,0 10.00133,-13.33103 8.99014,-19.94114 -2.3558,-15.25245 -5.46187,-25.88064 -8.98723,-40.85054"
         id="path3903"
         inkscape:connector-curvature="0"
         sodipodi:nodetypes="csccc" />
      <path
         style="fill:none;stroke:#000000;stroke-width:0.92481494px;stroke-linecap:round;stroke-linejoin:miter;stroke-opacity:1;display:inline"
         d="m 471.34489,242.87931 c -4.79887,-17.0006 1.9976,-30.41655 3.14564,-42.85355"
         id="path3905"
         inkscape:connector-curvature="0"
         sodipodi:nodetypes="cc" />
      <path
         style="fill:none;stroke:#000000;stroke-width:0.92481494px;stroke-linecap:round;stroke-linejoin:miter;stroke-opacity:1;display:inline"
         d="m 444.82514,188.94571 c 16.79195,8.65715 17.42663,20.09718 19.2213,31.17417"
         id="path3907"
         inkscape:connector-curvature="0"
         sodipodi:nodetypes="cc" />
      <path
         style="fill:none;stroke:#000000;stroke-width:0.92481494px;stroke-linecap:round;stroke-linejoin:miter;stroke-opacity:1;display:inline"
         d="m 397.89885,169.81704 c 0.92851,4.91305 1.15209,6.60412 0.96009,11.80831"
         id="path3911"
         inkscape:connector-curvature="0"
         sodipodi:nodetypes="cc" />
      <path
         style="fill:none;stroke:#000000;stroke-width:0.92481494px;stroke-linecap:butt;stroke-linejoin:miter;stroke-opacity:1;display:inline"
         d="m 426.97984,176.93211 c 9.21702,2.0433 13.58436,8.38482 18.4329,12.14782"
         id="path3913"
         inkscape:connector-curvature="0"
         sodipodi:nodetypes="cc" />
      <path
         sodipodi:nodetypes="cccc"
         inkscape:connector-curvature="0"
         id="path4722"
         d="m 408.70876,171.42477 c 9.55958,-0.45443 15.04033,-8.12306 19.78736,-13.94887 -2.53037,8.12134 -3.58968,15.71875 10e-6,23.8401 -1.72334,-6.08623 -3.85532,-9.99045 -19.78737,-9.89123 z"
         style="fill:#deaa87;fill-opacity:1;stroke:none;display:inline" />
      <path
         style="fill:none;stroke:#000000;stroke-width:0.92481494px;stroke-linecap:round;stroke-linejoin:miter;stroke-opacity:1;display:inline"
         d="m 428.83704,157.36705 c -2.04583,3.62355 -4.45516,12.65181 -0.241,24.14067"
         id="path3915"
         inkscape:connector-curvature="0"
         sodipodi:nodetypes="cc" />
      <path
         style="fill:none;stroke:#000000;stroke-width:0.92481494px;stroke-linecap:butt;stroke-linejoin:miter;stroke-opacity:1;display:inline"
         d="m 398.25017,173.21942 c 0,0 -7.05598,0.24512 -9.78667,0.87885 -4.40673,1.02268 -8.93101,7.31742 -8.93101,7.31742"
         id="path3917"
         inkscape:connector-curvature="0"
         sodipodi:nodetypes="csc" />
      <path
         style="fill:none;stroke:#000000;stroke-width:0.92481494px;stroke-linecap:butt;stroke-linejoin:miter;stroke-opacity:1;display:inline"
         d="m 397.7916,173.33864 c 0,0 -30.86128,25.2208 -18.69688,36.97597 24.28335,4.87084 58.80215,-29.20619 53.41679,-31.13997"
         id="path3919"
         inkscape:connector-curvature="0"
         sodipodi:nodetypes="ccc" />
      <path
         style="fill:none;stroke:#000000;stroke-width:0.92481494px;stroke-linecap:butt;stroke-linejoin:miter;stroke-opacity:1;display:inline"
         d="m 215.87911,228.1987 c 2.00293,17.4861 12.11144,25.35368 26.18219,28.51925"
         id="path3937"
         inkscape:connector-curvature="0"
         sodipodi:nodetypes="cc" />
      <path
         style="fill:none;stroke:#000000;stroke-width:0.92481494px;stroke-linecap:butt;stroke-linejoin:miter;stroke-opacity:1;display:inline"
         d="m 213.74892,231.91966 c 2.00296,17.4862 11.88653,24.93635 25.95729,28.10193"
         id="path3937-9"
         inkscape:connector-curvature="0"
         sodipodi:nodetypes="cc" />
      <path
         style="fill:none;stroke:#000000;stroke-width:0.92481494px;stroke-linecap:butt;stroke-linejoin:miter;stroke-opacity:1;display:inline"
         d="m 213.06535,279.05857 c 0,0 17.46096,-3.97572 25.30484,-7.92376 10.61769,-5.34427 12.72074,-11.3812 12.72074,-11.3812"
         id="path3965"
         inkscape:connector-curvature="0"
         sodipodi:nodetypes="csc" />
      <path
         style="fill:none;stroke:#000000;stroke-width:0.92481494px;stroke-linecap:butt;stroke-linejoin:miter;stroke-opacity:1;display:inline"
         d="m 240.84222,257.37131 c 2.18821,-1.84799 9.29884,3.90173 8.60876,4.8272"
         id="path3967"
         inkscape:connector-curvature="0"
         sodipodi:nodetypes="cc" />
      <path
         style="fill:none;stroke:#000000;stroke-width:0.92481494px;stroke-linecap:round;stroke-linejoin:miter;stroke-opacity:1;display:inline"
         d="m 358.12651,139.53305 c 11.85451,1.52396 20.06407,11.47727 25.3962,18.5811"
         id="path3904"
         inkscape:connector-curvature="0"
         sodipodi:nodetypes="cc" />
      <path
         style="fill:#d400aa;fill-opacity:1;stroke:none;display:inline"
         d="m 436.87576,91.807347 c -0.1839,0.13662 -0.54269,-0.067 -1.4246,-0.80835 -1.92787,-1.62096 -4.09091,-3.03696 -6.6081,-4.32584 -2.57465,-1.31829 -2.54149,-1.26848 -1.54761,-2.32113 0.5815,-0.6159 1.12511,-0.69843 2.74847,-0.41724 2.24184,0.38827 4.64211,2.01161 5.95236,4.02573 1.05823,1.6267 1.46613,3.41096 0.87948,3.84688 l 0,0 z"
         id="path4001"
         inkscape:connector-curvature="0" />
      <path
         style="fill:none;stroke:#000000;stroke-width:0.89244634;stroke-linecap:butt;stroke-linejoin:miter;stroke-miterlimit:4;stroke-opacity:1;stroke-dasharray:none;display:inline"
         d="m 426.20886,84.935247 c 0,0 0.70685,-1.1014 1.78769,-1.13838 3.93994,-0.13467 8.0799,2.27034 8.23844,5.7282 0.0194,0.42304 0.18756,1.26472 0.18756,1.26472 l 0.31369,-0.013"
         id="path3993"
         inkscape:connector-curvature="0"
         sodipodi:nodetypes="csscc" />
      <path
         style="fill:#502d16;stroke:#000000;stroke-width:0.89244634;stroke-linecap:butt;stroke-linejoin:miter;stroke-miterlimit:4;stroke-opacity:1;stroke-dasharray:none;display:inline"
         d="m 418.01323,85.133287 c -34.6864,-8.12869 -52.29055,33.997123 -44.81021,42.747853 9.24158,-2.11166 13.2708,-3.27884 21.86239,-1.68861 -0.17976,-3.99074 1.52369,-15.14207 4.67849,-17.4614 -1.17833,2.53533 -3.03112,13.44334 -1.8495,17.89162 l 9.05954,-0.0565 c -1.52081,-3.97796 -0.67719,-15.98986 0.84823,-18.78067 -0.46898,5.41435 0.38766,14.36947 2.27607,18.43418 6.56657,1.38477 14.21031,0.96854 21.01855,0.22471 1.42146,9.13069 -0.6164,14.85344 -0.66997,13.95394 -0.0794,-1.33368 5.87641,-9.6124 5.65608,-12.10115 10.83797,-6.62381 8.67717,26.00015 -1.62949,17.80459 l -2.14913,4.76073 c 35.64209,-8.34333 21.79943,-69.648473 -14.29105,-65.729273 z"
         id="path3991"
         inkscape:connector-curvature="0"
         sodipodi:nodetypes="cccccccccscccc" />
      <path
         style="fill:none;stroke:#000000;stroke-width:0.92481494px;stroke-linecap:round;stroke-linejoin:miter;stroke-opacity:1;display:inline"
         d="m 378.12415,126.74055 c 0.74563,5.55897 1.34737,13.49515 -0.1083,19.34441 4.71225,18.06006 18.65046,25.82362 28.89574,25.3091 11.79071,-0.59227 18.81548,-8.38131 25.17437,-20.52112"
         id="path3997"
         inkscape:connector-curvature="0"
         sodipodi:nodetypes="ccsc" />
      <g
         style="stroke-width:1.95441353;stroke-miterlimit:4;stroke-dasharray:none;display:inline"
         transform="matrix(0.46181859,-0.12152671,0.11103038,0.4558243,41.583931,-581.27361)"
         id="g4621">
        <path
           sodipodi:nodetypes="ccsssssc"
           inkscape:connector-curvature="0"
           id="path4009"
           d="m 490.51369,1798.6695 c 2.1555,-7.1226 4.63436,-10.544 8.5815,-15.7856 0,0 -0.37206,-7.425 -2.86936,-9.2977 -2.47116,-1.8531 -6.37772,-1.1798 -9.21835,0.1584 -3.05787,1.4404 -3.61719,7.6596 -6.92535,7.7665 -1.98407,0.065 -4.67229,-1.764 -3.69072,-3.6243 2.50975,-4.7568 5.67753,-9.4019 9.98973,-11.4008 3.67814,-1.7051 13.77022,-1.0397 13.77022,-1.0397"
           style="fill:none;stroke:#000000;stroke-width:1.95441353;stroke-linecap:round;stroke-linejoin:miter;stroke-miterlimit:4;stroke-opacity:1;stroke-dasharray:none" />
        <path
           sodipodi:nodetypes="cssc"
           inkscape:connector-curvature="0"
           id="path4011"
           d="m 501.66934,1784.964 c 2.11867,-0.8898 -0.49915,-22.117 -7.23804,-39.3881 -2.4703,-6.3312 4.91016,-7.8681 6.47798,-4.5723 2.87321,6.04 10.41107,22.4941 11.16912,27.0546"
           style="fill:none;stroke:#000000;stroke-width:1.95441353;stroke-linecap:round;stroke-linejoin:miter;stroke-miterlimit:4;stroke-opacity:1;stroke-dasharray:none" />
        <path
           sodipodi:nodetypes="csccc"
           inkscape:connector-curvature="0"
           id="path4013"
           d="m 508.26083,1786.2524 c 0,0 2.10571,-3.0686 2.4792,-5.0556 2.1622,-11.5031 0.89535,-29.6122 2.09065,-33.3879 0.31285,-7.6102 8.47207,-9.9616 9.02422,-0.5798 l -0.39131,26.7731"
           style="fill:none;stroke:#000000;stroke-width:1.95441353;stroke-linecap:round;stroke-linejoin:miter;stroke-miterlimit:4;stroke-opacity:1;stroke-dasharray:none" />
        <path
           sodipodi:nodetypes="cssccccccccccccc"
           inkscape:connector-curvature="0"
           id="path4015"
           d="m 501.59325,1810.6464 c 0,0 7.28333,-3.0329 9.01205,-9.5428 1.0882,-4.0979 0.51652,-9.6788 3.28074,-12.8104 1.2442,-1.4096 4.01867,-3.8206 4.01867,-3.8206 4.23497,-10.0178 3.86532,-13.3723 12.49587,-32.5044 3.30595,-3.2503 7.22006,-1.1212 4.97271,2.4637 -2.75573,11.9946 -6.30049,22.2764 -10.08488,32.0382 0.71202,8.1578 -3.03259,23.8468 -4.95756,30.9249 1.65689,13.781 -0.17631,23.88 -0.78337,30.3147 l -16.00201,-0.9175 -9.96125,-0.913 c 1.62225,-4.616 2.73671,-15.6489 1.71774,-22.7812 l -10.96461,-17.4435 -10.81082,-22.3473 c -0.89539,-2.2561 2.23736,-4.3162 5.3346,-0.5013 4.12508,3.9674 9.79686,11.0547 14.3256,8.6452"
           style="fill:none;stroke:#000000;stroke-width:1.95441353;stroke-linecap:round;stroke-linejoin:miter;stroke-miterlimit:4;stroke-opacity:1;stroke-dasharray:none" />
      </g>
      <path
         style="fill:#deaa87;fill-opacity:1;stroke:none;display:inline"
         d="m 377.79441,198.43124 c -1.85252,9.85689 8.51068,9.78577 16.84806,10.25507 -4.66582,0.92253 -8.71434,2.54958 -15.17646,1.4219 -3.97413,-3.71253 -2.59236,-8.21424 -1.6716,-11.67697 z"
         id="path4123"
         inkscape:connector-curvature="0"
         sodipodi:nodetypes="cccc" />
      <path
         sodipodi:nodetypes="ccccc"
         inkscape:connector-curvature="0"
         id="path4695"
         d="m 333.58353,239.8683 c 9.11298,8.79339 16.54952,8.32378 25.79146,4.97759 -1.43985,9.61992 3.13172,21.29392 16.06275,27.78577 -1.47845,1.12233 -1.40491,1.18625 -4.43533,3.36704 -18.45823,-12.23696 -34.2766,-20.72099 -37.41888,-36.1304 z"
         style="fill:#aa0000;fill-opacity:1;stroke:none;display:inline" />
      <path
         sodipodi:nodetypes="cc"
         inkscape:connector-curvature="0"
         id="path4669"
         d="m 327.58701,262.46398 c 0.86082,-16.25322 10.7997,-32.67726 19.45769,-43.07657"
         style="fill:none;stroke:#000000;stroke-width:0.94617772;stroke-linecap:butt;stroke-linejoin:miter;stroke-miterlimit:4;stroke-opacity:1;stroke-dasharray:none;display:inline" />
      <path
         sodipodi:nodetypes="cc"
         inkscape:connector-curvature="0"
         id="path4673"
         d="m 351.48195,161.955 c -3.63932,-3.84264 -5.49464,-2.23336 -6.39823,-10.24416"
         style="fill:none;stroke:#000000;stroke-width:0.92800003;stroke-linecap:round;stroke-linejoin:miter;stroke-miterlimit:4;stroke-opacity:1;stroke-dasharray:none;display:inline" />
      <path
         sodipodi:nodetypes="cc"
         inkscape:connector-curvature="0"
         id="path4675"
         d="m 432.67994,219.99342 c 7.761,6.49438 6.28675,4.2458 11.51753,7.31356"
         style="fill:none;stroke:#000000;stroke-width:0.72782892px;stroke-linecap:round;stroke-linejoin:miter;stroke-opacity:1;display:inline" />
      <path
         sodipodi:nodetypes="cc"
         inkscape:connector-curvature="0"
         id="path4627"
         d="m 462.27701,210.31263 c 2.56445,3.11462 5.86188,9.64206 7.89809,14.34131"
         style="fill:none;stroke:#000000;stroke-width:0.89999998;stroke-linecap:butt;stroke-linejoin:miter;stroke-miterlimit:4;stroke-opacity:1;stroke-dasharray:none;display:inline" />
      <path
         sodipodi:nodetypes="ccccc"
         inkscape:connector-curvature="0"
         id="path4655"
         d="m 475.03349,199.16697 -0.20785,2.15638 11.66528,-2.18237 -0.38971,-2.05248 z"
         style="fill:#e9c6af;fill-opacity:1;stroke:none;display:inline" />
      <path
         sodipodi:nodetypes="ccc"
         inkscape:connector-curvature="0"
         id="path6028"
         d="m 333.38801,241.07369 c 2.7137,10.47581 14.50891,22.08857 38.26866,35.3336 l 0.2079,1.8e-4"
         style="fill:none;stroke:#000000;stroke-width:1px;stroke-linecap:butt;stroke-linejoin:miter;stroke-opacity:1;display:inline" />
      <path
         sodipodi:nodetypes="ccsccc"
         inkscape:connector-curvature="0"
         id="path6032"
         d="m 333.72498,239.82659 c 9.36254,16.15857 23.58982,26.60634 39.28268,35.33363 -0.11686,2.6147 -2.54653,2.03656 -3.83477,5.2188 -0.65684,1.62249 0.65268,7.38981 -1.21438,7.84105 -15.6244,-11.20905 -31.56512,-20.41488 -39.10742,-36.32369 0.47167,-3.45238 1.72375,-8.34958 4.87389,-12.06979 z"
         style="fill:#ffcc00;stroke:#000000;stroke-width:1px;stroke-linecap:butt;stroke-linejoin:miter;stroke-opacity:1;display:inline" />
      <path
         sodipodi:nodetypes="ccccc"
         inkscape:connector-curvature="0"
         id="path6052"
         d="m 316.5843,233.87404 c -2.91049,4.38281 -3.52597,9.84389 -4.11512,14.99082 l 6.17268,5.29086 c 0.0126,-6.81601 1.47058,-13.72536 6.76055,-17.7832 -4.76348,-2.82404 -7.06701,-3.25001 -8.81811,-2.49848 z"
         style="fill:#ffcc00;stroke:#000000;stroke-width:1px;stroke-linecap:butt;stroke-linejoin:miter;stroke-opacity:1;display:inline" />
      <path
         sodipodi:nodetypes="cccsc"
         inkscape:connector-curvature="0"
         id="path6054"
         d="m 312.91009,250.4815 c -18.25244,7.74503 -26.76169,48.70104 -21.16347,58.93435 0.67034,3.21272 8.85557,10.01979 15.8726,9.55296 -11.40415,-12.2404 2.1949,-59.27388 14.4029,-60.84494 1.96313,-0.25267 -7.45243,-10.01326 -9.11203,-7.64237 z"
         style="fill:#ffcc00;stroke:#000000;stroke-width:1px;stroke-linecap:butt;stroke-linejoin:miter;stroke-opacity:1;display:inline" />
      <path
         sodipodi:nodetypes="cssccsscc"
         inkscape:connector-curvature="0"
         id="path6069"
         d="m 366.70055,281.85928 c 0,0 -0.27411,14.5152 5.5848,15.4317 4.83936,0.75696 8.40315,-5.85633 7.42191,-10.65524 -0.86368,-4.22394 -10.43477,-7.64236 -10.43477,-7.64236 l -0.14696,1.24923 c 0,0 8.84479,2.95598 9.55295,6.46663 0.67466,3.34454 -2.35226,9.50747 -5.73177,9.03857 -4.74878,-0.65894 -5.1439,-14.40291 -5.1439,-14.40291 z"
         style="fill:#cccccc;stroke:#000000;stroke-width:0.5;stroke-linecap:butt;stroke-linejoin:miter;stroke-miterlimit:4;stroke-opacity:1;stroke-dasharray:none;display:inline" />
      <path
         sodipodi:nodetypes="cssccsscc"
         inkscape:connector-curvature="0"
         id="path6069-4"
         d="m 355.28459,270.70771 c 0,0 -4.77186,3.11281 -3.9299,8.98292 0.6955,4.84855 6.81391,10.13744 11.11407,7.79204 3.78495,-2.06442 4.02581,-10.01269 4.02581,-10.01269 l -1.45786,-0.58251 c 0,0 -0.0117,8.00011 -3.16036,9.70668 -2.99966,1.62579 -8.38308,-2.98792 -8.92587,-6.35639 -0.76264,-4.73319 3.29608,-8.40672 3.29608,-8.40672 z"
         style="fill:#cccccc;stroke:#000000;stroke-width:0.5;stroke-linecap:butt;stroke-linejoin:miter;stroke-miterlimit:4;stroke-opacity:1;stroke-dasharray:none;display:inline" />
      <path
         sodipodi:nodetypes="ccccc"
         inkscape:connector-curvature="0"
         id="path6091"
         d="m 333.93284,248.66002 c -0.62193,-0.32667 -2.08302,1.46537 -1.76668,2.2863 1.29464,3.59514 11.03299,13.39309 18.70603,19.64133 1.35006,0.21533 1.70445,-0.94383 1.76667,-2.39024 -8.90054,-6.01148 -17.2219,-16.06206 -18.70602,-19.53739 z"
         style="fill:#cccccc;stroke:#000000;stroke-width:1px;stroke-linecap:butt;stroke-linejoin:miter;stroke-opacity:1;display:inline" />
      <path
         sodipodi:nodetypes="ccccc"
         inkscape:connector-curvature="0"
         id="path6093"
         d="m 339.96033,256.03849 c -2.49023,0.44399 -4.05639,2.12006 -4.88434,4.78045 -0.59343,1.00495 0.55641,2.85042 3.11768,3.11769 0.40778,-3.41214 1.67051,-5.73948 4.15689,-5.40399 -0.20742,-1.86273 -1.07527,-2.56967 -2.39023,-2.49415 z"
         style="fill:#cccccc;stroke:#000000;stroke-width:0.60000002;stroke-linecap:butt;stroke-linejoin:miter;stroke-miterlimit:4;stroke-opacity:1;stroke-dasharray:none;display:inline" />
      <path
         sodipodi:nodetypes="cscscc"
         inkscape:connector-curvature="0"
         id="path6095"
         d="m 375.00426,293.46978 c 0,0 1.91885,-0.36949 2.93938,0.51439 3.84408,3.32934 -1.10227,12.27185 -1.10227,12.27185 0,0 3.05237,-8.71575 0.22045,-11.09612 -0.78327,-0.65836 -2.42498,0.14697 -2.42498,0.14697 -0.89408,-0.86957 -0.0557,-1.532 0.36742,-1.83709 z"
         style="fill:#cccccc;stroke:#000000;stroke-width:0.30000001;stroke-linecap:butt;stroke-linejoin:miter;stroke-miterlimit:4;stroke-opacity:1;stroke-dasharray:none;display:inline" />
      <path
         sodipodi:nodetypes="ccccssccc"
         inkscape:connector-curvature="0"
         id="path6103"
         d="m 383.31465,318.10114 c -4.59142,-1.03423 -6.57783,-4.13497 -6.57781,-10.26757 l -5e-5,-2.01064 0.95948,-0.42762 c 1.48574,2.6413 4.56299,7.59367 7.62543,9.8736 2.14013,1.59343 4.64527,1.80547 4.54277,2.48922 l -0.10355,0.69081 -2.49957,-0.0108 c -1.37479,-0.006 -3.15079,-0.15767 -3.9467,-0.33698 z"
         style="fill:#28170b;fill-opacity:1;stroke:none;display:inline" />
      <path
         sodipodi:nodetypes="cccc"
         inkscape:connector-curvature="0"
         id="path6097"
         d="m 376.76788,305.96208 c -0.99816,-2.77154 -2.72921,-5.10338 -1.91058,-8.96505 l 1.54317,-1.02878 c -1.1407,3.33126 -0.63248,6.66258 0.36741,9.99383 z"
         style="fill:#cccccc;stroke:#000000;stroke-width:0.30000001;stroke-linecap:butt;stroke-linejoin:miter;stroke-miterlimit:4;stroke-opacity:1;stroke-dasharray:none;display:inline" />
      <path
         sodipodi:nodetypes="ccccc"
         inkscape:connector-curvature="0"
         id="path6099"
         d="m 376.9977,304.90839 c -8.87158,7.61957 -15.33327,23.7778 -14.21793,28.09064 9.13953,19.79827 19.76612,16.08008 21.70677,14.48618 -0.82001,-9.19555 3.15455,-21.10605 6.4035,-29.47632 -9.48875,1.34778 -14.80883,-7.1e-4 -13.89234,-13.1005 z"
         style="fill:#483737;stroke:#000000;stroke-width:0.95470297;stroke-linecap:butt;stroke-linejoin:miter;stroke-miterlimit:4;stroke-opacity:1;stroke-dasharray:none;display:inline" />
      <path
         sodipodi:nodetypes="ccccc"
         inkscape:connector-curvature="0"
         id="path6105"
         d="m 366.63269,339.48629 -3.7444,-6.99114 c 0.34088,-7.1204 5.29356,-18.53139 13.56674,-27.39785 0.4753,3.40736 -0.48161,-0.79223 0.27133,2.45633 -5.49504,2.94999 -11.09865,13.73697 -10.09367,31.93266 z"
         style="fill:#28170b;stroke:none;display:inline" />
      <path
         sodipodi:nodetypes="cc"
         inkscape:connector-curvature="0"
         id="path6101"
         d="m 391.21564,318.00888 c -7.53343,-1.81836 -11.44064,-7.1439 -13.78381,-13.98233"
         style="fill:none;stroke:#000000;stroke-width:0.79558581;stroke-linecap:butt;stroke-linejoin:miter;stroke-miterlimit:4;stroke-opacity:1;stroke-dasharray:none;display:inline" />
      <path
         sodipodi:nodetypes="csc"
         inkscape:connector-curvature="0"
         id="path3249"
         d="m 338.90117,261.71955 c 0.16689,1.11484 -0.0882,1.764 -0.74935,2.08043 -2.63943,1.26315 -9.40435,-1.74712 -12.2941,-2.77853"
         style="fill:none;stroke:#000000;stroke-width:1px;stroke-linecap:butt;stroke-linejoin:miter;stroke-opacity:1;display:inline" />
      <path
         sodipodi:nodetypes="csc"
         inkscape:connector-curvature="0"
         id="path3251"
         d="m 339.05553,261.13473 c 0,0 2.5764,4.66135 0.69809,6.16332 -3.42666,2.7401 -11.25047,-3.66791 -11.25047,-3.66791"
         style="fill:none;stroke:#000000;stroke-width:1px;stroke-linecap:butt;stroke-linejoin:miter;stroke-opacity:1;display:inline" />
      <path
         sodipodi:nodetypes="cscccc"
         inkscape:connector-curvature="0"
         id="path3253"
         d="m 328.18801,263.05638 c -0.90545,-0.65917 -1.76068,-1.65415 -1.93894,-1.70434 -0.41672,-0.11734 7.91909,2.82124 9.31408,2.98084 2.56625,0.23312 3.41149,-0.53359 3.54694,-1.79648 0.39323,-0.60332 2.10128,4.22761 10e-4,4.89026 -3.72075,0.54398 -7.74324,-1.98462 -10.92308,-4.37028 z"
         style="fill:#008000;fill-opacity:1;stroke:none;display:inline" />
      <path
         sodipodi:nodetypes="cc"
         inkscape:connector-curvature="0"
         id="path3255"
         d="m 321.18532,322.31343 c 10.33038,35.14094 -30.59199,49.74145 -44.67842,60.25709"
         style="fill:none;stroke:#000000;stroke-width:1px;stroke-linecap:butt;stroke-linejoin:miter;stroke-opacity:1;display:inline" />
      <path
         sodipodi:nodetypes="cc"
         inkscape:connector-curvature="0"
         id="path3257"
         d="m 323.64812,322.11818 c 8.06103,37.16491 -31.05845,52.64157 -45.56023,61.28589"
         style="fill:none;stroke:#000000;stroke-width:1px;stroke-linecap:butt;stroke-linejoin:miter;stroke-opacity:1;display:inline" />
      <path
         sodipodi:nodetypes="ccccc"
         inkscape:connector-curvature="0"
         id="path3261"
         d="m 324.90242,260.80099 c 3.69643,-0.69575 6.535,-3.8149 11.09612,-2.278 l -1.46968,2.64543 c -2.66993,-1.02599 -4.82546,-0.43739 -7.49539,-0.14697 z"
         style="fill:#008000;stroke:#000000;stroke-width:1px;stroke-linecap:butt;stroke-linejoin:miter;stroke-opacity:1;display:inline" />
      <path
         inkscape:connector-curvature="0"
         id="path3987"
         d="m 278.12382,382.39975 c -0.27786,-0.17628 1.70459,-1.45531 9.38927,-6.05776 13.17174,-7.88869 18.29809,-11.55812 23.80342,-17.0384 4.04683,-4.02842 6.5305,-7.36342 8.59193,-11.53703 1.55972,-3.15782 2.38022,-5.61933 3.03733,-9.11204 0.29022,-1.54261 0.33151,-2.23328 0.32941,-5.51132 -0.002,-3.23448 -0.0482,-4.00933 -0.3369,-5.65828 -0.28607,-1.63397 -0.71235,-3.57482 -0.99335,-4.52278 -0.0685,-0.23107 -0.005,-0.24962 0.55835,-0.16326 0.3496,0.0536 0.65094,0.10904 0.66964,0.12323 0.0187,0.0142 0.13511,0.55061 0.25869,1.19204 0.88289,4.58282 0.87858,10.65773 -0.0108,15.12824 -1.19631,6.01375 -4.24015,12.26509 -8.5429,17.54514 -1.56191,1.91667 -5.91843,6.29343 -7.90558,7.9423 -5.7606,4.77996 -11.37353,8.36909 -23.2945,14.89541 -2.14207,1.17271 -4.19228,2.30401 -4.55603,2.51401 -0.74151,0.42809 -0.7361,0.42668 -0.99803,0.2605 l 0,0 z"
         style="fill:#008000;fill-opacity:1;stroke:none;display:inline" />
      <path
         sodipodi:nodetypes="cccccc"
         inkscape:connector-curvature="0"
         id="path4872"
         d="m 397.13644,151.75731 c -1.2898,-0.86437 0.44159,1.24311 3.1291,1.8201 1.8511,-0.36897 3.31768,-0.73469 3.44656,-2.81307 l -1.83161,-0.0994 -1.87048,1.89004 z"
         style="fill:#deaa87;fill-opacity:1;stroke:none;display:inline" />
      <path
         sodipodi:nodetypes="cccccc"
         inkscape:connector-curvature="0"
         id="path4848"
         d="m 385.43137,134.70756 c -2.42511,0.006 -2.24531,3.25379 0.37752,3.61184 l 5.34802,2.1173 c 3.88198,0.37453 3.09002,-1.30696 2.57962,-2.86456 l -2.57962,-3.61187 c -1.88523,0.0877 -3.54258,-1.40327 -5.72554,0.74729 z"
         style="fill:#ececec;stroke:none;display:inline" />
      <path
         sodipodi:nodetypes="cccc"
         inkscape:connector-curvature="0"
         id="path4846"
         d="m 394.61738,140.06305 c 0.19141,0.29771 1.6423,-1.67135 0.56626,-3.30047 -0.18873,-0.24911 -4.65591,-3.36276 -4.65591,-3.36276 1.76451,1.93222 4.06043,3.48193 4.08965,6.66323 z"
         style="fill:#deaa87;fill-opacity:1;stroke:none;display:inline" />
      <path
         sodipodi:nodetypes="cssc"
         inkscape:connector-curvature="0"
         id="path4726"
         d="m 439.66656,140.12533 c -5.1381,-1.86261 -5.64358,1.47156 -4.57026,2.49176 3.71029,3.52667 5.39119,-3.14032 5.49196,-6.97955 0.14318,-5.45695 -4.20261,-3.96419 -4.4451,-0.86771"
         style="fill:none;stroke:#000000;stroke-width:0.70106047px;stroke-linecap:round;stroke-linejoin:miter;stroke-opacity:1;display:inline" />
      <path
         sodipodi:nodetypes="csssc"
         inkscape:connector-curvature="0"
         id="path4730"
         d="m 399.10368,143.00616 c 0,0 0.54184,1.71269 -0.14019,3.26648 -0.87346,1.98997 -2.92235,4.03179 -1.79715,5.22005 0.70104,0.74032 3.01668,1.36249 3.56372,0.0764 0.67139,-1.57822 2.9659,-0.66047 2.9659,-0.66047"
         style="fill:none;stroke:#000000;stroke-width:0.70106047px;stroke-linecap:round;stroke-linejoin:miter;stroke-opacity:1;display:inline" />
      <path
         sodipodi:nodetypes="ccc"
         inkscape:connector-curvature="0"
         id="path4732-1"
         d="m 407.00091,130.19847 c 4.46278,-3.18264 15.78956,-1.54838 17.55552,1.89964 -4.0805,-4.57291 -19.96249,1.92853 -17.55552,-1.89964 z"
         style="fill:#000000;stroke:none;display:inline" />
      <path
         sodipodi:nodetypes="cc"
         inkscape:connector-curvature="0"
         id="path4752"
         d="m 394.69527,159.09457 c 6.75109,3.52173 17.46712,-0.40018 18.8636,-4.57952"
         style="fill:none;stroke:#000000;stroke-width:0.70106047px;stroke-linecap:round;stroke-linejoin:miter;stroke-opacity:1;display:inline" />
      <path
         sodipodi:nodetypes="cc"
         inkscape:connector-curvature="0"
         id="path4758"
         d="m 394.61757,140.05457 c -2.02181,-6.69579 -5.71064,-8.46147 -11.3996,-4.31167"
         style="fill:none;stroke:#000000;stroke-width:0.70106047px;stroke-linecap:round;stroke-linejoin:miter;stroke-opacity:1;display:inline" />
      <path
         transform="matrix(0.69538838,0.11288668,-0.1140553,0.68826348,138.70308,-183.97751)"
         d="m 429.64285,396.15683 c 0,2.29297 -1.69892,4.15179 -3.79464,4.15179 -2.09573,0 -3.79465,-1.85882 -3.79465,-4.15179 0,-2.29297 1.69892,-4.15179 3.79465,-4.15179 2.09572,0 3.79464,1.85882 3.79464,4.15179 z"
         sodipodi:ry="4.1517859"
         sodipodi:rx="3.7946429"
         sodipodi:cy="396.15683"
         sodipodi:cx="425.84821"
         id="path4760"
         style="fill:#93ac93;stroke:#000000;stroke-opacity:1;display:inline"
         sodipodi:type="arc" />
      <path
         transform="matrix(0.69538838,0.11288668,-0.1140553,0.68826348,139.41562,-184.42978)"
         d="m 427.61021,396.93103 c 0,1.55164 -1.11652,2.80949 -2.49382,2.80949 -1.37729,0 -2.49381,-1.25785 -2.49381,-2.80949 0,-1.55164 1.11652,-2.80949 2.49381,-2.80949 1.3773,0 2.49382,1.25785 2.49382,2.80949 z"
         sodipodi:ry="2.8094869"
         sodipodi:rx="2.493814"
         sodipodi:cy="396.93103"
         sodipodi:cx="425.11639"
         id="path4770"
         style="fill:#6f916f;fill-opacity:1;stroke:none;display:inline"
         sodipodi:type="arc" />
      <path
         transform="matrix(1.2809786,0.20794917,-0.22811058,1.376527,-63.716425,-497.87399)"
         d="m 425.44642,396.69254 c 0,0.46845 -0.37976,0.84821 -0.84821,0.84821 -0.46846,0 -0.84822,-0.37976 -0.84822,-0.84821 0,-0.46846 0.37976,-0.84822 0.84822,-0.84822 0.46845,0 0.84821,0.37976 0.84821,0.84822 z"
         sodipodi:ry="0.84821427"
         sodipodi:rx="0.84821427"
         sodipodi:cy="396.69254"
         sodipodi:cx="424.59821"
         id="path4762"
         style="fill:#000000;fill-opacity:1;stroke:none;display:inline"
         sodipodi:type="arc" />
      <path
         transform="matrix(0.69538838,0.11288668,-0.1140553,0.68826348,139.41562,-184.42978)"
         d="m 424.91071,395.44254 c 0,0.46845 -0.41974,0.84821 -0.9375,0.84821 -0.51777,0 -0.9375,-0.37976 -0.9375,-0.84821 0,-0.46846 0.41973,-0.84822 0.9375,-0.84822 0.51776,0 0.9375,0.37976 0.9375,0.84822 z"
         sodipodi:ry="0.84821427"
         sodipodi:rx="0.9375"
         sodipodi:cy="395.44254"
         sodipodi:cx="423.97321"
         id="path4764"
         style="fill:#ffffff;fill-opacity:1;stroke:none;display:inline"
         sodipodi:type="arc" />
      <path
         sodipodi:nodetypes="cc"
         inkscape:connector-curvature="0"
         id="path4766"
         d="m 385.05499,138.12361 c 1.78637,0.79807 3.1282,1.61753 7.20521,2.30555"
         style="fill:none;stroke:#000000;stroke-width:0.70106047px;stroke-linecap:round;stroke-linejoin:miter;stroke-opacity:1;display:inline" />
      <path
         sodipodi:nodetypes="cccccsscc"
         inkscape:connector-curvature="0"
         id="path4768"
         d="m 389.82529,133.05719 c -1.0935,-0.14279 -2.30212,-0.0112 -3.61882,0.56104 -0.0285,0.0129 -0.0543,0.0313 -0.0758,0.0539 -0.1571,0.15886 0.0608,0.48058 0.26896,0.39705 5.02749,-2.44189 6.93812,2.04544 9.1603,3.16566 -0.13207,-0.31168 -0.44944,-0.82326 -0.9304,-1.3879 -0.48098,-0.56466 -1.12178,-1.18204 -1.92683,-1.70427 -0.80502,-0.52221 -1.78382,-0.94266 -2.87732,-1.08553 z"
         style="font-size:medium;font-style:normal;font-variant:normal;font-weight:normal;font-stretch:normal;text-indent:0;text-align:start;text-decoration:none;line-height:normal;letter-spacing:normal;word-spacing:normal;text-transform:none;direction:ltr;block-progression:tb;writing-mode:lr-tb;text-anchor:start;baseline-shift:baseline;color:#000000;fill:#000000;fill-opacity:1;stroke:none;stroke-width:0.69999999;marker:none;visibility:visible;display:inline;overflow:visible;enable-background:accumulate;font-family:Sans;-inkscape-font-specification:Sans" />
      <path
         sodipodi:nodetypes="csccccc"
         inkscape:connector-curvature="0"
         id="path4844"
         d="m 408.08179,137.38531 c -1.158,0.50938 -0.23935,4.83323 0.44043,3.05139 2.30996,-6.05475 7.73832,-5.48183 7.73891,-5.48004 l 3.15565,2.09772 0.74524,0.51776 c -2.01759,-1.95265 -4.20434,-2.57524 -6.41763,-2.98912 -2.13953,-0.68716 -3.83228,1.50003 -5.6626,2.80229 z"
         style="fill:#deaa87;fill-opacity:1;stroke:none;display:inline" />
      <path
         sodipodi:nodetypes="cccccc"
         inkscape:connector-curvature="0"
         id="path4848-5"
         d="m 417.44671,135.82626 c 2.42512,0.006 2.68578,3.50286 0.063,3.86093 l -5.78846,1.8682 c -4.03712,-0.85373 -3.09137,-1.31775 -2.57963,-2.86458 l 2.57963,-3.61184 c 1.88521,0.0877 3.54259,-1.40327 5.72552,0.74729 z"
         style="fill:#ececec;stroke:none;display:inline" />
      <path
         sodipodi:nodetypes="cc"
         inkscape:connector-curvature="0"
         id="path4758-4"
         d="m 408.26972,140.66972 c 2.66979,-6.4696 6.51453,-7.87204 11.76907,-3.19459"
         style="fill:none;stroke:#000000;stroke-width:0.70106047px;stroke-linecap:round;stroke-linejoin:miter;stroke-opacity:1;display:inline" />
      <path
         transform="matrix(-0.70318168,0.04545487,0.04592542,0.69597692,694.79356,-157.20878)"
         d="m 429.64285,396.15683 c 0,2.29297 -1.69892,4.15179 -3.79464,4.15179 -2.09573,0 -3.79465,-1.85882 -3.79465,-4.15179 0,-2.29297 1.69892,-4.15179 3.79465,-4.15179 2.09572,0 3.79464,1.85882 3.79464,4.15179 z"
         sodipodi:ry="4.1517859"
         sodipodi:rx="3.7946429"
         sodipodi:cy="396.15683"
         sodipodi:cx="425.84821"
         id="path4760-0"
         style="fill:#93ac93;stroke:#000000;stroke-opacity:1;display:inline"
         sodipodi:type="arc" />
      <path
         transform="matrix(-0.70318168,0.04545487,0.04592542,0.69597692,694.12882,-157.72747)"
         d="m 427.61021,396.93103 c 0,1.55164 -1.11652,2.80949 -2.49382,2.80949 -1.37729,0 -2.49381,-1.25785 -2.49381,-2.80949 0,-1.55164 1.11652,-2.80949 2.49381,-2.80949 1.3773,0 2.49382,1.25785 2.49382,2.80949 z"
         sodipodi:ry="2.8094869"
         sodipodi:rx="2.493814"
         sodipodi:cy="396.93103"
         sodipodi:cx="425.11639"
         id="path4770-9"
         style="fill:#6f916f;fill-opacity:1;stroke:none;display:inline"
         sodipodi:type="arc" />
      <path
         transform="matrix(-1.2953347,0.08373267,0.09185084,1.3919538,927.0803,-450.14598)"
         d="m 425.44642,396.69254 c 0,0.46845 -0.37976,0.84821 -0.84821,0.84821 -0.46846,0 -0.84822,-0.37976 -0.84822,-0.84821 0,-0.46846 0.37976,-0.84822 0.84822,-0.84822 0.46845,0 0.84821,0.37976 0.84821,0.84822 z"
         sodipodi:ry="0.84821427"
         sodipodi:rx="0.84821427"
         sodipodi:cy="396.69254"
         sodipodi:cx="424.59821"
         id="path4762-4"
         style="fill:#000000;fill-opacity:1;stroke:none;display:inline"
         sodipodi:type="arc" />
      <path
         transform="matrix(-0.70318168,0.04545487,0.04592542,0.69597692,694.12882,-157.72747)"
         d="m 424.91071,395.44254 c 0,0.46845 -0.41974,0.84821 -0.9375,0.84821 -0.51777,0 -0.9375,-0.37976 -0.9375,-0.84821 0,-0.46846 0.41973,-0.84822 0.9375,-0.84822 0.51776,0 0.9375,0.37976 0.9375,0.84822 z"
         sodipodi:ry="0.84821427"
         sodipodi:rx="0.9375"
         sodipodi:cy="395.44254"
         sodipodi:cx="423.97321"
         id="path4764-8"
         style="fill:#ffffff;fill-opacity:1;stroke:none;display:inline"
         sodipodi:type="arc" />
      <path
         sodipodi:nodetypes="cc"
         inkscape:connector-curvature="0"
         id="path4766-8"
         d="m 417.97665,139.66782 c -1.85629,0.62246 -3.27222,1.30896 -7.3975,1.60149"
         style="fill:none;stroke:#000000;stroke-width:0.70106047px;stroke-linecap:round;stroke-linejoin:miter;stroke-opacity:1;display:inline" />
      <path
         sodipodi:nodetypes="cccccsscc"
         inkscape:connector-curvature="0"
         id="path4768-2"
         d="m 413.72648,134.16648 c 1.10236,-0.037 2.29232,0.21017 3.5466,0.90653 0.027,0.0161 0.051,0.0365 0.0702,0.0609 0.1407,0.17315 -0.10771,0.47243 -0.30666,0.3693 -4.76391,-2.91399 -7.10615,1.36829 -9.42783,2.26944 0.16208,-0.29751 0.52817,-0.77613 1.06231,-1.29184 0.53412,-0.51571 1.23254,-1.06853 2.08505,-1.51084 0.85251,-0.44229 1.86795,-0.76658 2.97032,-0.80356 z"
         style="font-size:medium;font-style:normal;font-variant:normal;font-weight:normal;font-stretch:normal;text-indent:0;text-align:start;text-decoration:none;line-height:normal;letter-spacing:normal;word-spacing:normal;text-transform:none;direction:ltr;block-progression:tb;writing-mode:lr-tb;text-anchor:start;baseline-shift:baseline;color:#000000;fill:#000000;fill-opacity:1;stroke:none;stroke-width:0.69999999;marker:none;visibility:visible;display:inline;overflow:visible;enable-background:accumulate;font-family:Sans;-inkscape-font-specification:Sans" />
      <path
         sodipodi:nodetypes="ccsc"
         inkscape:connector-curvature="0"
         id="path4868"
         d="m 404.83889,163.85023 7.83018,-2.85022 c 0.7594,-1.2883 1.61286,-2.59793 0.0826,2.26471 -0.22697,0.72124 -5.40106,1.40946 -7.91283,0.58551 z"
         style="fill:#deaa87;fill-opacity:1;stroke:none;display:inline" />
      <path
         sodipodi:nodetypes="cc"
         inkscape:connector-curvature="0"
         id="path4824"
         d="m 403.80799,163.38565 c 2.34926,0.51034 7.19137,-0.76285 9.53607,-3.12195"
         style="fill:none;stroke:#000000;stroke-width:0.70106047px;stroke-linecap:round;stroke-linejoin:miter;stroke-opacity:1;display:inline" />
      <path
         sodipodi:nodetypes="ccc"
         inkscape:connector-curvature="0"
         id="path4732-1-4"
         d="m 397.47692,129.58355 c -4.46278,-3.18264 -15.78955,-1.54839 -17.55551,1.89963 4.0805,-4.57291 19.96248,1.92853 17.55551,-1.89963 z"
         style="fill:#000000;stroke:none;display:inline" />
      <path
         sodipodi:nodetypes="cc"
         inkscape:connector-curvature="0"
         id="path4870"
         d="m 411.79395,154.1368 c 1.84687,-0.72883 2.60027,0.18012 3.08299,1.49455"
         style="fill:none;stroke:#000000;stroke-width:0.70106047px;stroke-linecap:round;stroke-linejoin:miter;stroke-opacity:1;display:inline" />
      <path
         inkscape:transform-center-y="-0.74728123"
         inkscape:transform-center-x="0.7955538"
         sodipodi:nodetypes="cc"
         inkscape:connector-curvature="0"
         id="path4874"
         d="m 395.0578,158.24682 c -0.65065,0.091 -1.48688,0.68171 -0.25166,1.80592"
         style="fill:none;stroke:#000000;stroke-width:0.70106047px;stroke-linecap:round;stroke-linejoin:miter;stroke-opacity:1;display:inline" />
    </g>
    <text
       transform="scale(1.0824374,0.92384096)"
       sodipodi:linespacing="125%"
       id="text3960-5"
       y="1090.1809"
       x="33.613045"
       style="font-size:106.9768219px;font-style:normal;font-variant:normal;font-weight:normal;font-stretch:normal;line-height:125%;letter-spacing:0px;word-spacing:0px;fill:#000000;fill-opacity:1;stroke:none;display:inline;font-family:Haettenschweiler;-inkscape-font-specification:Haettenschweiler"
       xml:space="preserve"><tspan
         y="1090.1809"
         x="33.613045"
         id="tspan3962-8"
         sodipodi:role="line">WSPINAM</tspan></text>
  </g>
</svg>
