<?xml version="1.0" encoding="UTF-8" standalone="no"?>
<!-- Created with Inkscape (http://www.inkscape.org/) -->

<svg
   xmlns:dc="http://purl.org/dc/elements/1.1/"
   xmlns:cc="http://creativecommons.org/ns#"
   xmlns:rdf="http://www.w3.org/1999/02/22-rdf-syntax-ns#"
   xmlns:svg="http://www.w3.org/2000/svg"
   xmlns="http://www.w3.org/2000/svg"
   xmlns:xlink="http://www.w3.org/1999/xlink"
   xmlns:sodipodi="http://sodipodi.sourceforge.net/DTD/sodipodi-0.dtd"
   xmlns:inkscape="http://www.inkscape.org/namespaces/inkscape"
   width="531.49603"
   height="531.49603"
   id="svg2"
   version="1.1"
   inkscape:version="0.48.3.1 r9886"
   sodipodi:docname="climb4.svg">
  <defs
     id="defs4">
    <path
       transform="matrix(1.00016,-0.00657355,-0.00557843,0.96292318,-11.106123,56.286692)"
       d="m 612.15244,563.44836 a 226.27417,234.35539 0 1 1 -452.54834,0 226.27417,234.35539 0 1 1 452.54834,0 z"
       sodipodi:ry="234.35539"
       sodipodi:rx="226.27417"
       sodipodi:cy="563.44836"
       sodipodi:cx="385.87827"
       id="path4097-1"
       style="fill:none;stroke:#010000;stroke-width:5.69999981;stroke-miterlimit:4;stroke-opacity:1;stroke-dasharray:none"
       sodipodi:type="arc" />
  </defs>
  <sodipodi:namedview
     id="base"
     pagecolor="#ffffff"
     bordercolor="#666666"
     borderopacity="1.0"
     inkscape:pageopacity="0.0"
     inkscape:pageshadow="2"
     inkscape:zoom="2.405641"
     inkscape:cx="259.91386"
     inkscape:cy="155.43664"
     inkscape:document-units="px"
     inkscape:current-layer="g3191"
     showgrid="false"
     inkscape:window-width="1680"
     inkscape:window-height="988"
     inkscape:window-x="-8"
     inkscape:window-y="-8"
     inkscape:window-maximized="1"
     showguides="true"
     inkscape:guide-bbox="true"
     units="cm">
    <inkscape:grid
       type="xygrid"
       id="grid6115"
       empspacing="5"
       visible="true"
       enabled="true"
       snapvisiblegridlinesonly="true" />
  </sodipodi:namedview>
  <metadata
     id="metadata7">
    <rdf:RDF>
      <cc:Work
         rdf:about="">
        <dc:format>image/svg+xml</dc:format>
        <dc:type
           rdf:resource="http://purl.org/dc/dcmitype/StillImage" />
        <dc:title></dc:title>
      </cc:Work>
    </rdf:RDF>
  </metadata>
  <g
     inkscape:label="Layer 1"
     inkscape:groupmode="layer"
     id="layer1"
     transform="translate(0,-520.86482)">
    <path
       style="fill:#008033;fill-opacity:1;stroke:none"
       d=""
       id="path3989"
       inkscape:connector-curvature="0" />
    <g
       id="g4157"
       transform="translate(14.142136,-74.751288)">
      <g
         id="g3093"
         transform="translate(-14.142136,-53.538085)"
         style="display:inline">
        <g
           id="g3191"
           transform="matrix(0.57445122,-0.13970988,0.1381095,0.52402605,-136.62248,35.900933)">
          <path
             style="fill:#c8b7b7;fill-opacity:1;stroke:none"
             d="m 113.97034,1446.0924 c 36.79713,-20.2147 110.36102,-38.2105 186.17636,-36.1566 90.25887,2.4452 180.26907,52.5745 219.02318,101.9803 48.06903,53.6302 106.25942,176.6238 90.27672,301.181 -16.47197,128.3702 -117.09323,237.7341 -201.65318,278.9826 -1.23448,-0.3291 -34.31112,23.6391 -40.39137,19.5854 -6.47251,-4.3152 -113.66689,24.0453 -200.39303,5.9843 -78.334658,-16.3135 -137.125306,-79.2962 -140.73493,-81.3044 -68.488988,-66.7126 -102.275662,-139.0715 -110.712607,-220.0755 -9.237919,-88.6941 15.238372,-188.8749 138.428448,-330.5768 9.923365,-11.4145 49.082499,-27.7276 59.980409,-39.6003 z"
             id="path6107"
             inkscape:connector-curvature="0"
             sodipodi:nodetypes="cscscsscssc" />
          <path
             sodipodi:nodetypes="cssccsscsccsccccc"
             inkscape:connector-curvature="0"
             id="path4115"
             d="m -47.013961,1949.2983 c -33.46053,-62.5358 -42.25902,-143.6753 -34.60632,-214.8232 1.04307,-9.6976 -2.10954,-28.973 2.60918,-28.9699 l 5.08033,0 18.72394,-0.3301 c 22.99748,-0.407 63.5153698,-0.7303 74.58403,-12.9635 17.781989,-19.653 63.133897,-7.8666 52.155319,2.9524 l -4.904121,4.8328 -7.767334,3.293 c -4.942933,2.0954 -9.433177,12.1814 -23.226066,25.8855 -65.981018,91.8719 -56.884608,26.1248 8.669544,-7.2418 5.067027,-4.641 13.595118,-11.5178 14.04823,-11.5255 0.453148,-0.012 -12.092783,19.0224 -15.173778,25.9147 -16.208154,70.5476 -25.3719,172.4614 -79.17046,226.237 l -9.827404,-17.4904 6.07686,10.7108 z"
             style="fill:#784421;fill-opacity:1;stroke:none" />
          <path
             sodipodi:nodetypes="csscssssssscscscsscc"
             inkscape:connector-curvature="0"
             id="path4117"
             d="m -75.693341,1694.3163 c 2.15465,-13.2189 14.44433,-53.0629 24.27614,-74.0067 20.97238,-44.6756 51.40865977,-102.0653 95.802995,-124.1653 l 9.313156,-7.8363 20.419591,2.5385 c 14.629374,1.8187 36.899349,1.3492 55.845939,-0.1066 25.79891,-1.9823 50.6906,-6.2911 63.07534,-10.5152 24.38126,-8.3157 50.232,-10.2919 58.03154,-4.1811 2.25306,1.7652 5.85571,4.3868 7.27479,9.3005 1.78026,6.1643 -0.82264,13.0581 -2.4728,17.9756 -3.12903,9.3245 -6.12501,17.4508 -13.95099,16.4702 -3.77388,-0.4728 -17.03853,1.5871 -20.32416,3.0894 0.22735,1.5213 1.5564,-3.4426 1.58707,1.1285 0.32381,48.2551 -87.857,34.7816 -122.96429,55.8124 -22.548142,15.3277 -42.542347,58.9941 -71.488891,97.8461 l -4.69442,13.1639 -10.94991,8.398 c -13.09625023,10.0444 -47.13783,29.308 -64.46979,17.5152 l -25.5885,-8.5731 z"
             style="fill:#784421;fill-opacity:1;stroke:none" />
          <path
             sodipodi:nodetypes="csscssccssssssssscssc"
             inkscape:connector-curvature="0"
             id="path4119"
             d="m 29.570889,1796.5467 c -0.0343,-10.4451 -26.5050302,40.247 -25.0914402,32.8293 2.38941,-12.5382 -3.56221003,-51.1886 -1.76358,-66.8297 2.70897,-23.5572 17.3390702,-16.2215 66.1384212,-65.1592 5.397577,-6.1885 2.967274,-4.7813 -11.314253,-9.4282 -8.336018,-2.7124 -13.840108,-4.1005 -22.044058,-2.758 l -12.6886,2.0762 c 13.130459,-24.0494 26.420564,-53.3212 42.44034,-71.9059 19.177717,-21.989 33.882816,-40.85 63.402041,-51.0798 7.08815,-2.4565 44.15101,-15.2218 53.12592,-18.3184 11.096,-3.8284 16.78265,-6.1392 28.70282,-13.7919 5.81759,-3.7349 9.86368,-7.8332 12.08628,-8.2345 3.03913,-0.5486 3.21442,3.546 4.85508,4.1053 1.37656,0.4693 5.47389,-0.056 4.46882,2.4906 -1.3684,3.467 -9.78062,11.579 -25.04877,25.9366 -72.93315,68.5834 -91.76774,90.354 -113.966085,132.6416 -6.825999,13.0034 -7.654941,13.7893 -7.447238,24.9376 l 0.191637,10.2871 -0.49645,0.4317 c -13.864627,12.0557 -35.809308,26.2826 -45.72858,45.4184 -3.772283,7.2773 -9.834595,28.8718 -9.822305,26.3512 z"
             style="fill:#a05a2c;fill-opacity:1;stroke:none" />
          <path
             style="fill:#e9c6af;fill-opacity:1;stroke:none"
             d="m 481.06128,1955.5074 c -8.6683,-4.7776 -16.62957,-12.1809 -26.89816,-25.4042 -4.85745,-7.1551 -8.38691,-13.024 -12.02642,-18.4164 -13.95871,-20.6818 -19.04366,-31.0379 -19.27043,-37.2845 -0.0732,-2.0155 -1.4833,-3.3007 -1.74648,-4.4238 -0.97095,-4.1433 -1.573,-3.0694 -0.87871,-0.8604 0.60473,1.924 -1.79472,8.3923 -4.64085,11.706 -3.82781,4.4567 -10.49004,6.4351 -15.47929,7.1277 -2.20938,0.204 -5.20356,-0.5063 -6.36783,-0.8167 -5.44918,-1.4528 -12.84365,-15.9324 -12.19882,-25.5489 1.51681,-22.6206 33.53808,-51.5654 59.96739,-52.8224 6.29789,-0.2996 9.53272,1.6333 12.89651,5.2405 9.31073,9.9844 13.95543,16.466 15.52638,27.8206 1.10045,5.59 1.13668,10.7001 1.61761,12.469 0.70706,2.6005 0.42802,5.1865 0.81284,6.296 1.21124,3.4922 1.67509,1.8766 4.59301,15.6367 l 1.77434,8.8868 c -7.86354,45.7696 -9.04883,31.1619 -3.43349,10.2925 2.67626,-9.9463 7.66876,-20.459 11.31731,-28.5239 5.80697,-12.7375 6.0253,-18.145 8.74993,-20.4517 l 1.06173,-2.5887 1.4965,-16.6746 -16.52447,-36.0084 c -1.47532,-2.6753 0.25218,-2.3452 1.42932,-2.5316 4.02509,3.663 7.14313,8.1165 12.99507,9.2566 l 1.05806,-1.2475 c 0.0147,-0.018 3.65256,-2.8029 4.0911,-7.1425 0.30813,-3.0492 -2.24856,-7.99 -3.20571,-8.4259 -1.35229,-0.616 -4.50389,-0.9804 -6.69362,0.9812 -1.87882,1.6832 -2.76924,5.5975 -4.394,6.6377 -2.22278,1.4231 -3.75211,-0.6162 -3.84228,-1.7788 -0.40044,-5.163 9.20358,-13.5311 18.84657,-12.2541 1.86333,0.2467 0.0696,-2.4359 -0.23588,-4.428 -0.74914,-4.8851 -4.6364,-13.4799 -3.54608,-16.1283 1.63435,-3.9697 2.29261,-1.116 5.20935,-0.8318 1.69806,0.1654 6.15829,20.6827 8.35031,20.7754 1.30278,0.055 1.05171,-13.2359 1.87374,-16.5769 1.47224,-5.9839 3.60074,-3.7032 4.45431,-3.8445 0.68353,-0.1132 2.27097,3.9328 2.28338,8.2668 0.0206,7.2056 -1.66708,16.4075 0.32511,17.4283 0.92037,0.4717 4.11959,-11.5656 6.04603,-15.3871 2.93569,-5.8235 4.68499,-4.1486 4.82629,-1.1384 0.17685,3.7678 -9.08366,29.4942 -8.76,30.4885 0.93917,2.8853 -2.50366,16.5264 -3.95329,25.4566 -0.64239,3.9574 -0.12576,7.6451 0.0281,7.944 1.50898,2.9313 -2.214,18.6192 -2.05823,18.9392 0.31157,0.6402 -0.45294,35.2563 -1.00699,48.7431 -0.53268,12.9663 -0.92832,27.7537 -1.61288,30.6928 -0.86393,3.7093 -3.9365,7.8762 -8.88831,14.1857 -4.81134,6.1305 -14.14265,15.6656 -16.37868,16.6255 -1.49401,0.6414 -6.0473,0.4927 -7.58938,-0.3572 z"
             id="path4651"
             inkscape:connector-curvature="0"
             sodipodi:nodetypes="ccssssscsssscssccscscccccsssssssssssssssssssscssssc" />
          <path
             style="fill:#deaa87;fill-opacity:1;stroke:none;display:inline"
             d="m 420.4067,1865.2108 c 3.80561,5.4322 9.33072,8.7201 13.55408,14.3756 17.19429,23.0249 36.14517,57.1107 54.23353,63.2539 8.29967,2.8187 16.78079,-8.2899 24.1818,-14.7455 -5.58757,11.3212 -5.92546,13.217 -24.49175,28.5306 -22.25084,-2.2449 -59.58199,-61.8506 -67.47766,-91.4146 z"
             id="path4127-0-1"
             inkscape:connector-curvature="0"
             sodipodi:nodetypes="cssccc" />
          <path
             style="fill:#e9c6af;fill-opacity:1;stroke:none"
             d="m 350.73282,1823.4587 c -12.56008,-4.7643 -18.51149,-13.838 -15.51265,-22.5962 1.23794,-3.6154 7.53629,-11.8977 14.27351,-17.9159 5.42823,-4.8489 30.00988,-25.4532 30.47707,-24.5887 0.0861,0.1595 3.22442,1.4133 3.42071,5.2359 -7.10891,21.2098 -2.32371,16.4669 0.0865,-1.997 l 0.76762,-4.941 c 0.12738,0.1587 -7.48952,-4.9117 -13.44305,-14.7704 -6.19442,-10.2577 -10.71467,-25.5245 -9.47963,-36.3063 0.48103,-4.1992 3.40816,-5.7206 4.40145,-9.3531 1.94648,-7.1186 2.35078,-16.041 4.40477,-24.3429 8.43902,-34.1092 45.79886,-40.4954 47.24459,-37.4381 1.11672,2.3616 42.0691,33.428 54.48389,66.8436 2.71552,7.3091 1.1361,21.0679 -6.2323,29.9889 -4.18949,5.0723 -14.40292,0.1871 -17.79041,5.8581 -5.56477,9.316 -13.50952,14.9075 -12.95305,14.9198 3.78186,0.083 -17.62199,11.5469 -12.47261,15.0572 7.84285,22.6182 0.34958,6.0243 1.90287,5.1545 0.42483,-0.2379 1.9648,4.9228 4.76073,9.4515 2.04602,3.3141 6.32571,6.3151 7.85866,7.6395 0.36356,0.5764 -3.16772,4.9958 -6.7829,7.9805 -15.24846,12.5891 -43.47736,28.8763 -62.5823,31.1447 -4.8527,0.5761 -9.2772,-2.1583 -16.83351,-5.0246 z"
             id="path4649"
             inkscape:connector-curvature="0"
             sodipodi:nodetypes="sssccccssssssssscsscsss" />
          <path
             style="fill:#000000;fill-opacity:1;stroke:none"
             d="m 201.63124,1998.7346 c 1.31341,-0.6649 21.00524,-5.6549 22.35227,-6.653 0.74404,-0.5514 1.91304,-1.4019 2.59776,-1.8902 1.31845,-0.9401 1.57205,-5.7239 3.19225,-7.1937 0.90648,-0.8222 -1.50114,-0.023 -0.0778,-2.4686 0.85198,-1.4641 0.38372,-3.3461 0.99384,-4.3672 3.21462,-5.3801 10.41343,-7.3465 12.62339,-15.1175 2.78191,-9.782 0.79431,-18.1594 -0.55887,-27.1178 -0.38288,-2.5349 -1.82668,-8.9652 -2.63216,-11.7567 -0.99051,-3.4327 -1.16787,-6.6524 -3.10346,-8.6669 -8.78871,-9.147 -6.85687,-16.5418 -8.15161,-21.8145 -0.68332,-1.2278 -0.50278,-0.2122 -1.08782,-2.1912 0.0965,0.026 0.89571,2.8109 0.98299,2.4479 0.0769,-0.3198 0.83634,-2.0181 1.2391,-3.2078 2.85877,-8.4473 7.27109,-17.7406 12.92196,-26.1627 1.30591,-2.9518 3.46948,-4.9102 3.73412,-5.1337 0.79529,2.1755 1.17254,-1.854 1.20063,-1.2399 0.12794,2.8016 -0.52162,5.8811 0.41256,9.3193 3.76639,13.8623 13.21631,30.3692 28.24209,48.1697 4.6492,5.5077 11.51721,13.0015 16.87318,18.4107 1.31676,1.3297 2.38343,2.4622 2.37036,2.5166 -0.0131,0.054 -0.45477,0.2913 -0.98161,0.5266 -3.96145,1.7695 -5.76083,3.1854 -6.94603,5.4658 -0.50259,0.967 -0.9377,2.7499 -1.28213,5.2539 -0.6995,5.0846 -2.42604,12.6658 -3.84644,16.8896 -3.84015,11.4191 -8.89825,20.0748 -15.77869,27.0013 -5.54244,5.5795 -10.30466,10.1142 -17.77029,12.3914 l -4.79309,1.7821 -17.86882,1.8268 -26.45264,-6.6318 2.05058,-0.6878 1.54415,-0.5699 z"
             id="path6030"
             inkscape:connector-curvature="0"
             sodipodi:nodetypes="cccccssssscccccccsscccscssccccccc" />
          <path
             style="fill:#d40000;stroke:none"
             d="m 258.55199,1890.3779 c -3.34484,-4.6416 -6.39979,-21.6963 -9.74987,-29.2025 -1.34208,-3.0071 2.34897,-10.4527 -1.84614,-5.7853 -1.06956,1.1899 -12.5066,19.8038 -6.97907,10.9989 6.83584,-10.8888 18.3462,-24.8655 30.52712,-34.8701 l 7.81772,-5.1226 -0.44547,4.1808 c 11.92883,19.8953 5.28129,16.6665 1.53889,7.4316 -2.30193,-5.6804 -0.82808,-14.3181 -1.19469,-19.2129 -0.30779,-4.8281 -0.096,-6.875 1.34987,-13.0465 3.18751,-18.8248 14.82385,-29.1055 28.09688,-25.6499 3.10661,0.3434 11.35804,-0.626 15.55677,-1.3299 10.90069,-1.8271 17.74974,-4.8254 27.6222,-11.4975 11.21097,-7.5767 15.29663,-8.1026 24.17311,-6.3305 2.94701,0.5883 5.58295,2.6488 6.95759,2.0445 l -14.82891,9.0141 c -7.67102,4.663 -13.23011,10.0642 -17.94888,14.3253 -9.1322,8.2465 -14.87763,14.1997 -16.18963,22.1436 -0.68979,4.1765 0.0467,9.433 1.66986,11.9178 1.2077,1.8488 12.6649,5.1702 19.04557,5.5417 20.19413,1.1758 44.15401,-7.424 67.2364,-22.0126 6.73126,-4.2543 12.99519,-9.4023 14.98669,-12.2503 0.573,-0.8193 1.36254,-3.6178 1.44802,-2.047 0.21647,-1.8327 6.11602,4.8845 8.97972,11.448 l 4.89543,9.0376 -4.61909,-0.2628 c -15.68724,-0.8924 -39.58698,10.0988 -53.99984,28.4622 -7.85255,10.0051 -7.43431,13.9233 -10.00947,24.3627 -1.32857,5.3859 2.3633,11.8864 5.54718,19.111 8.29598,7.0496 24.3689,2.4075 25.60723,-0.3721 0.46798,-1.0505 1.52768,-0.1221 -1.34103,3.9569 -2.38006,3.3841 -8.72515,9.9604 -8.90363,10.0784 l -1.36413,0.898 1.24888,-0.3435 c 4.79929,-1.3199 -14.74857,11.853 -22.97765,14.4878 -3.48592,1.1161 -18.44556,6.5311 -38.08208,10.7291 -30.37942,6.4949 -39.66213,11.1779 -50.57234,11.7079 -3.04905,0.1481 14.09349,-19.8955 3.40988,3.066 -5.6344,1.5792 -1.43656,-15.4624 -4.08426,-9.1605 -4.57152,7.7486 0.21563,-3.323 -2.53868,2.3288 6.38946,-21.5305 -3.00181,-11.7511 -6.10787,-12.4985 -4.65336,-1.1197 -7.83479,-7.0235 -23.93228,-26.2777 z"
             id="path4677"
             inkscape:connector-curvature="0"
             sodipodi:nodetypes="cssssccscccssscssssssccscssscssccsssscccsc" />
          <path
             style="fill:#aa0000;stroke:none"
             d="m 295.22037,1935.1061 -1.04802,0.4324 c 40.45639,-30.2184 85.52266,-32.2317 89.91532,-82.5076 -1.32727,11.5068 -1.50749,27.0496 8.75248,31.6853 4.70663,2.1266 14.21168,-1.7329 22.18671,-2.7696 -3.00912,2.0284 -2.76419,5.2688 -6.87534,9.5539 -5.41488,5.644 -15.32241,12.4749 -19.71335,14.5168 -18.38471,8.5494 -41.24718,15.4222 -63.84853,19.2002 -12.97797,2.1693 -19.24213,5.3145 -29.36927,9.8886 z"
             id="path4679"
             inkscape:connector-curvature="0"
             sodipodi:nodetypes="cccscsssc" />
          <path
             sodipodi:nodetypes="ssssccssssccsscscssss"
             inkscape:connector-curvature="0"
             id="path3121"
             d="m 198.12484,1996.5824 c -8.2792,-1.8292 -17.85198,-7.0273 -25.8883,-14.0575 -13.18068,-11.5304 -26.54684,-33.2235 -40.30532,-65.4152 -3.63391,-8.5024 -5.59663,-13.3889 -14.45304,-35.9824 -8.50706,-21.7022 -13.167,-29.5218 -16.74583,-36.7007 -7.419518,-8.4485 -20.017993,-26.5371 -5.666305,-7.889 l -1.93294,2.5139 c -2.84231,3.6966 -2.22682,4.9524 -5.497398,2.8939 -11.831223,-7.4459 -21.611766,-18.1057 -25.223401,-30.0252 -1.923044,-6.3465 -3.663243,-12.6031 -2.28831,-21.5261 l 1.107855,-7.1894 0.302789,-1.5681 c 0,0 4.387744,-3.0859 7.617271,-5.411 10.39906,-7.4871 19.941894,-13.4251 27.586774,-14.8133 5.403585,-0.9812 15.048785,1.0867 23.611895,4.5396 7.86348,3.367 17.61814,8.7732 25.19057,15.2998 44.87867,38.6803 86.94976,100.0811 97.4885,146.7892 4.81361,21.5518 -0.60746,45.7631 -13.31445,59.5152 -4.08667,4.4228 -9.57088,6.8931 -14.5043,8.7904 -3.13903,1.2072 -3.76425,1.8964 -8.79374,2.102 -3.86946,0.1582 -6.50262,-1.4707 -8.29232,-1.8661 z"
             style="fill:#000000;fill-opacity:1;stroke:none" />
          <path
             inkscape:connector-curvature="0"
             id="path3896"
             d="m 13.996099,1872.8875 c 5.54682,-15.4854 10.76277,-33.2038 13.07311,-49.263 0.50553,-3.5138 1.01689,-6.9887 1.1364,-7.7219 0.16925,-1.038 1.20214,-3.5091 6.3429,-8.8499 6.518619,-6.7723 14.938614,-13.8877 17.999405,-16.4896 l 2.987387,-3.2582 -0.251286,6.172 c -0.172028,4.2268 -1.434043,15.3668 2.479467,25.9784 4.131056,11.2015 13.659442,21.9178 21.88002,27.337 l 3.552644,2.342 -0.840808,1.5842 c -4.490446,8.4605 -20.65433,11.1797 -45.541194,19.0533 -7.946695,2.5141 -22.435555,8.627 -25.078015,9.8055 -0.60213,0.2686 0.98863,-3.1405 2.25997,-6.6898 z"
             style="fill:#e9c6af;fill-opacity:1;stroke:none"
             sodipodi:nodetypes="sscsscssscsscs" />
          <path
             style="fill:#deaa87;fill-opacity:1;stroke:none"
             d="m 12.044469,1878.815 c 9.4102,-8.1984 49.557552,-13.2411 54.481375,-45.0409 l 19.54318,15.1086 c -9.416274,5.5698 -18.661276,12.4469 -28.492281,14.8514 z"
             id="path4693"
             inkscape:connector-curvature="0"
             sodipodi:nodetypes="ccccc" />
          <path
             sodipodi:nodetypes="ssscscscs"
             inkscape:connector-curvature="0"
             id="path3924"
             d="m 79.052742,1844.7047 c -14.336835,-10.0535 -22.846896,-24.7438 -23.926062,-42.07 -0.276435,-4.4384 0.600938,-12.2555 1.13378,-15.3819 0.363274,-2.1315 3.457156,-2.5514 4.038088,-2.765 -0.663612,12.5224 0.661861,25.2079 5.66358,35.2146 4.508296,9.0196 12.268761,15.6987 19.61386,20.9847 4.441747,3.0294 4.565697,2.9972 3.214847,4.576 -0.772009,0.9024 -3.996025,4.3176 -3.226797,3.6525 -0.04163,-0.014 -3.457225,-2.0693 -6.511296,-4.2109 z"
             style="fill:#4d4d4d;fill-opacity:1;stroke:none" />
          <path
             sodipodi:nodetypes="cscsc"
             inkscape:connector-curvature="0"
             id="path3861"
             d="m -35.719801,1963.6936 c 29.10409,-44.8421 59.61322,-93.4458 64.70874,-165.8238 2.87394,-40.8221 23.804639,-83.4674 43.788414,-104.8088 0,0 -29.615822,-15.4006 -53.287444,-2.3824 -18.3162902,10.0731 -92.65223,17.9587 -96.01244,10.6646"
             style="fill:none;stroke:#000000;stroke-width:2.94126034;stroke-linecap:butt;stroke-linejoin:miter;stroke-miterlimit:4;stroke-opacity:1;stroke-dasharray:none" />
          <path
             sodipodi:nodetypes="csscasc"
             inkscape:connector-curvature="0"
             id="path3995"
             d="m 480.63351,1623.693 c 0,0 5.88977,-4.657 10.64223,-4.874 21.62385,-0.9877 22.98297,54.2518 41.53658,57.0445 51.64733,7.7742 35.29165,-70.1795 25.18822,-74.7328 0,0 -7.03301,21.5509 -15.64598,22.6623 -17.40014,2.2454 -21.90725,-36.5023 -39.63357,-36.5898 -14.98107,-0.074 -29.79851,29.2198 -29.79851,29.2198"
             style="fill:#502d16;stroke:#000000;stroke-width:1.74523616;stroke-linecap:butt;stroke-linejoin:miter;stroke-miterlimit:4;stroke-opacity:1;stroke-dasharray:none" />
          <path
             inkscape:connector-curvature="0"
             id="path3123"
             d="m 208.6255,1857.7299 c -11.43915,-18.4936 -22.12808,-34.6902 -32.78537,-47.4282 -5.89678,-7.048 -11.11296,-11.0117 -10.19335,-10.6531 1.15248,0.4494 17.69566,9.9019 27.15491,16.0009 7.26103,4.6818 38.53205,23.5485 43.69347,28.5322 0.93792,0.9056 10.97128,7.3282 10.30403,8.9224 -3.29799,7.8794 -2.49646,33.4526 -20.72009,25.9371 -1.41977,-0.5855 -11.42957,-12.5682 -11.51425,-12.5668 -0.0845,10e-5 -2.33621,-3.7714 -4.66028,-7.5286 z"
             style="fill:#000000;fill-opacity:1;stroke:none"
             sodipodi:nodetypes="cscssssscc" />
          <path
             sodipodi:nodetypes="cccsccc"
             inkscape:connector-curvature="0"
             id="path3863"
             d="m 27.995779,1810.3953 c 7.666212,-40.3152 23.981151,-67.3192 59.044464,-85.1335 l -0.799874,-22.8185 c 37.898771,-86.4546 106.496091,-124.7703 165.976691,-191.4007 3.84804,-4.3106 4.62996,-19.288 8.44024,-23.8117 -7.62464,-15.9718 -27.09506,-21.8105 -71.30961,-5.243 -38.50155,10.0749 -93.046715,11.5979 -136.886332,7.0478"
             style="fill:none;stroke:#000000;stroke-width:3.10466385;stroke-linecap:butt;stroke-linejoin:miter;stroke-miterlimit:4;stroke-opacity:1;stroke-dasharray:none" />
          <path
             sodipodi:nodetypes="csssccssscc"
             inkscape:connector-curvature="0"
             id="path3865"
             d="m 225.0317,1520.0338 c 0,0 -30.46631,20.2578 -52.80593,26.31 -17.36456,4.7043 -44.29929,12.9765 -60.55825,21.4919 -24.018493,12.5794 -46.288232,42.2161 -62.636253,68.6869 -16.348028,26.4707 -27.185208,51.5338 -27.185208,51.5338 l 4.32629,-5.7113 c 0,0 7.90444,-18.5388 24.184189,-44.8989 16.279736,-26.3603 41.822127,-48.6588 65.278532,-60.9438 15.99163,-8.3754 42.91776,-17.8935 60.2271,-22.5828 22.86968,-6.1958 50.26962,-32.9412 50.26962,-32.9412 z"
             style="font-size:medium;font-style:normal;font-variant:normal;font-weight:normal;font-stretch:normal;text-indent:0;text-align:start;text-decoration:none;line-height:normal;letter-spacing:normal;word-spacing:normal;text-transform:none;direction:ltr;block-progression:tb;writing-mode:lr-tb;text-anchor:start;baseline-shift:baseline;color:#000000;fill:#000000;fill-opacity:1;stroke:none;stroke-width:1px;marker:none;visibility:visible;display:inline;overflow:visible;enable-background:accumulate;font-family:Sans;-inkscape-font-specification:Sans" />
          <path
             sodipodi:nodetypes="cccccc"
             inkscape:connector-curvature="0"
             id="path3867"
             d="m 59.259359,1711.602 c -29.07898,26.9515 -59.33321023,57.7931 -96.38312,55.7863 l 1.25216,-0.039 c 37.8359698,-2.2868 59.57931,-36.7942 88.618283,-63.7085 l 17.151994,-7.9899 z"
             style="font-size:medium;font-style:normal;font-variant:normal;font-weight:normal;font-stretch:normal;text-indent:0;text-align:start;text-decoration:none;line-height:normal;letter-spacing:normal;word-spacing:normal;text-transform:none;direction:ltr;block-progression:tb;writing-mode:lr-tb;text-anchor:start;baseline-shift:baseline;color:#000000;fill:#000000;fill-opacity:1;stroke:none;stroke-width:1px;marker:none;visibility:visible;display:inline;overflow:visible;enable-background:accumulate;font-family:Sans;-inkscape-font-specification:Sans" />
          <path
             sodipodi:nodetypes="ccccc"
             inkscape:connector-curvature="0"
             id="path3869"
             d="m 6.9205788,1752.857 -11.7852598,6.6843 c 9.8900998,37.195 11.3256798,49.3372 6.8236798,71.5791 l 1.58246,0.2882 c 4.44916,-21.9808 13.3710002,-40.9738 3.37912,-78.5516 z"
             style="font-size:medium;font-style:normal;font-variant:normal;font-weight:normal;font-stretch:normal;text-indent:0;text-align:start;text-decoration:none;line-height:normal;letter-spacing:normal;word-spacing:normal;text-transform:none;direction:ltr;block-progression:tb;writing-mode:lr-tb;text-anchor:start;baseline-shift:baseline;color:#000000;fill:#000000;fill-opacity:1;stroke:none;stroke-width:1px;marker:none;visibility:visible;display:inline;overflow:visible;enable-background:accumulate;font-family:Sans;-inkscape-font-specification:Sans" />
          <path
             style="fill:#aa0000;fill-opacity:1;stroke:none"
             d="m 278.07438,1824.0689 c -5.68242,2.2562 -5.21476,5.2233 -12.00673,11.6462 7.6235,17.9563 19.83209,26.6905 39.68773,25.0749 6.47384,25.8105 30.4575,34.7555 38.26652,34.9477 -41.31493,-14.3507 -31.78101,-41.0371 -29.28091,-49.8739 -10.76216,0.8441 -29.73117,7.6254 -36.66661,-21.7949 z"
             id="path4681"
             inkscape:connector-curvature="0"
             sodipodi:nodetypes="cccccc" />
          <path
             inkscape:connector-curvature="0"
             id="path3898"
             d="m 43.723666,1869.2553 c 9.645035,-2.2731 18.424936,-6.8847 22.414098,-8.6613 8.215605,-3.6587 16.682441,-7.8737 21.459014,-12.3791 1.217797,-1.1486 2.479467,-3.7088 2.911407,-3.7163 1.2837,-0.026 5.50697,3.9595 7.67003,7.0237 2.681495,3.7984 3.138495,5.3975 1.53999,6.8174 -4.39169,3.901 -14.299916,8.6773 -22.859269,10.5509 -5.518768,1.2082 -13.813373,2.6594 -24.574836,2.2696 -4.808317,-0.1741 -17.556051,1.897 -14.420432,-0.5238 z"
             style="fill:#deaa87;fill-opacity:1;stroke:none"
             sodipodi:nodetypes="sssssssscs" />
          <path
             style="fill:#333333;fill-opacity:1;stroke:none"
             d="m 88.535136,1829.3282 c 56.696834,69.7886 145.065784,257.772 197.685054,114.9693 1.60921,7.8844 -6.31747,27.685 -15.28629,41.025 -3.89169,5.7883 -10.35181,8.1343 -12.36402,11.4693 -20.10818,20.6345 -71.98207,-1.9857 -80.17803,-8.4634 -39.30822,-17.8854 -57.34077,-114.7888 -89.856714,-159.0002 z"
             id="path4697"
             inkscape:connector-curvature="0"
             sodipodi:nodetypes="ccsccc" />
          <path
             inkscape:connector-curvature="0"
             id="path3894"
             d="m 99.859325,1854.7457 c -2.2443,-3.9902 -10.92002,-12.538 -14.060061,-13.5573 2.590801,-3.9084 2.569565,-6.9284 2.907331,-12.1268 l 4.9287,4.2119 c 1.05138,-2.3129 6.16786,6.6327 7.869665,11.7077 l 3.02402,9.0177 2.05236,-0.2843 c -1.805,1.6965 -5.46651,3.2632 -6.722015,1.0311 z"
             style="fill:#333333;fill-opacity:1;stroke:none"
             sodipodi:nodetypes="scccsccs" />
          <path
             style="fill:#333333;fill-opacity:1;stroke:none"
             d="m 244.66758,1850.7136 c -0.80286,-2.3911 -9.67011,29.4715 -20.53567,20.2476 -5.35225,-4.5436 -45.87447,-55.7451 -45.41019,-56.3334 18.19953,24.5907 36.04469,49.414 49.17997,77.3297 5.47787,-10.7929 12.88309,-32.7487 21.16972,-37.6668 z"
             id="path4699"
             inkscape:connector-curvature="0"
             sodipodi:nodetypes="cscccc" />
          <path
             sodipodi:nodetypes="csccc"
             inkscape:connector-curvature="0"
             id="path3883"
             d="m 27.800619,1813.9729 c 0,0 47.164807,-54.116 75.694331,-52.2844 67.23161,4.3163 134.13139,149.0522 134.05415,149.3735 21.96244,43.8467 -8.72257,112.4732 -58.83884,77.9117 -47.96268,-31.3263 -70.19869,-157.1928 -90.631402,-159.4666"
             style="fill:none;stroke:#000000;stroke-width:1.63403368px;stroke-linecap:round;stroke-linejoin:miter;stroke-opacity:1" />
          <path
             sodipodi:nodetypes="cc"
             inkscape:connector-curvature="0"
             id="path3885"
             d="m 11.206989,1880.1121 c 28.616782,-13.1866 67.223219,-15.2125 85.596266,-44.382"
             style="fill:none;stroke:#000000;stroke-width:1.63403368px;stroke-linecap:butt;stroke-linejoin:miter;stroke-opacity:1" />
          <path
             sodipodi:nodetypes="cc"
             inkscape:connector-curvature="0"
             id="path3887"
             d="m 163.61405,1797.8799 c 28.4865,16.2371 56.36335,34.4871 84.94412,55.3132"
             style="fill:#4d4d4d;stroke:#000000;stroke-width:1.63403368px;stroke-linecap:butt;stroke-linejoin:miter;stroke-opacity:1" />
          <path
             sodipodi:nodetypes="cssc"
             inkscape:connector-curvature="0"
             id="path3891"
             d="m 190.21174,1994.9684 c 3.78256,1.5203 13.55099,5.823 16.96804,6.8308 53.57606,15.7998 73.88304,-23.6848 78.10797,-56.7276 0.9068,-7.092 7.31506,-7.0303 11.77089,-10.5366"
             style="fill:none;stroke:#000000;stroke-width:2.14887905;stroke-linecap:round;stroke-linejoin:miter;stroke-miterlimit:4;stroke-opacity:1;stroke-dasharray:none" />
          <path
             style="fill:#deaa87;fill-opacity:1;stroke:none"
             d="m 416.2839,1880.835 -17.19199,4.5389 c 6.02003,-3.6585 18.03812,-8.3037 7.86629,-27.4517 l 10.76467,1.8783 2.28795,8.5427 z"
             id="path6022"
             inkscape:connector-curvature="0"
             sodipodi:nodetypes="cccccc" />
          <path
             sodipodi:nodetypes="cscc"
             inkscape:connector-curvature="0"
             id="path3893"
             d="m 295.89533,1935.504 c 22.79496,-12.5144 41.06189,-11.9924 67.90806,-19.786 21.87792,-6.3513 44.88749,-18.498 52.70991,-36.152 l 4.22238,-11.2279"
             style="fill:none;stroke:#000000;stroke-width:1.63403368px;stroke-linecap:round;stroke-linejoin:miter;stroke-opacity:1" />
          <path
             style="fill:#e9c6af;fill-opacity:1;stroke:none"
             d="m 320.8638,1775.4238 c 0.24067,-1.0995 -0.45172,-2.2971 -0.28574,-3.5013 1.51978,-11.0252 0.87921,-25.9307 -2.32241,-36.2465 -1.4822,-4.7758 -3.01925,-7.3255 -7.40098,-13.698 -2.12336,-5.7347 -4.08005,-5.1868 -5.02684,-7.1021 -4.09772,-8.2897 0.46834,4.3507 -12.9097,-24.5671 -1.02754,-2.2505 -4.71766,-10.6328 -8.17284,-18.7412 -2.37461,-5.5725 -5.14284,-12.059 -7.00981,-16.2454 -0.84958,-1.905 -1.36365,-3.4342 -1.84462,-4.2371 -2.54585,-4.2495 -2.81165,-8.4514 -4.51991,-20.3396 -1.97402,-13.7375 -2.89721,-25.0496 -2.98598,-38.7552 -0.0529,-8.1614 -0.92939,-17.4059 -0.41082,-28.3877 0.36031,-7.6309 1.10653,-23.3499 0.97284,-31.0164 -0.0508,-2.9114 -0.44724,-4.9391 -1.70777,-5.2701 -0.39381,-0.1034 -4.09939,0.1898 -7.73687,0.4208 -6.16075,0.3911 -16.51981,1.4384 -24.39831,0.7105 -6.25292,-0.5777 -10.584,-3.4334 -10.70787,-3.5193 -0.28993,-0.2009 -0.1459,-3.2764 5.85284,-4.4138 2.02364,-0.3837 4.59321,-0.9154 6.98491,-0.7518 3.75751,0.257 7.14859,1.3757 7.84873,0.9499 5.50968,-3.3507 12.09518,-10.5125 14.14157,-18.9372 l 0.70105,-2.887 c 0.47669,-3.9313 -2.44776,-9.0682 0.091,-11.7597 0,0 -2.91518,-8.8211 -7.2185,-11.571 -7.63622,-4.8796 -25.74387,-4.8162 -25.74387,-4.8162 -0.26009,-2.7619 0.26494,-3.0426 0.50016,-4.2391 0,0 8.69098,-0.9912 13.44475,-0.7675 2.10182,0.099 4.72917,0.882 7.37832,1.3388 5.14048,0.8865 10.12131,2.1825 10.12131,2.1825 l 9.44057,3.5691 5.15274,3.7421 5.02765,4.7621 6.30762,7.4914 2.52521,17.2731 0.89309,9.4598 c 2.38668,25.28 3.10733,28.8627 6.89224,44.0787 3.77822,15.189 6.02156,23.4094 9.94337,42.0165 5.27406,25.023 7.38527,33.7742 10.16075,42.9287 1.37996,4.5515 2.02683,2.6747 4.03097,4.7857 5.90922,6.2241 9.46522,12.1853 13.57282,19.9401 4.67917,10.8664 9.0515,19.0533 9.994,21.0623 1.54411,3.2914 -0.963,-3.1454 11.90075,15.731 4.13413,6.9309 8.33343,15.3639 10.39352,21.8226 2.49488,7.8218 5.45238,14.5538 10.03679,20.1927 1.85476,2.2814 6.01272,6.5878 7.79503,7.9415 0.56414,0.4284 0.74147,0.8191 0.64932,2.4454 -0.0649,1.1457 -0.46424,3.6455 -0.55318,3.7052 -0.0889,0.06 -2.79467,0.2575 -5.50938,-0.2744 -2.71471,-0.5318 -6.55112,-1.4345 -8.39972,-1.6087 -5.94824,-0.5605 -10.43766,1.5973 -19.49838,8.1582 -6.21951,4.5035 -9.73431,6.0779 -16.78211,8.309 -3.18125,1.0071 -12.27143,2.6155 -12.91767,2.8471 -3.54404,1.2699 0.94615,-2.554 1.30931,-4.2122 z"
             id="path4647"
             inkscape:connector-curvature="0"
             sodipodi:nodetypes="csscscssssssscsscssscccsccssccccccssssscscsscccssssscc" />
          <path
             style="fill:#deaa87;fill-opacity:1;stroke:none"
             d="m 317.86455,1780.0289 19.6998,-4.3226 3.16577,-0.4886 c 5.42752,-28.904 -7.36478,-56.7789 -20.08195,-81.9307 -6.28705,-12.4344 -28.69419,-31.2667 -36.53729,-51.18 -13.81786,-35.0831 -15.92448,-113.6977 -15.92448,-113.6977 1.45791,38.788 -5.66391,67.4068 4.39897,116.394 l 30.60541,67.0279 10.5403,13.154 c 1.78143,9.8767 6.32788,9.8209 7.23102,23.6479 0.36828,5.6381 1.16034,13.6936 -0.69546,25.5015 -0.3102,1.9738 -2.01679,3.6943 -2.40209,5.8943 z"
             id="path6024"
             inkscape:connector-curvature="0"
             sodipodi:nodetypes="cccssccccssc" />
          <path
             sodipodi:nodetypes="cscssccsscsscscc"
             inkscape:connector-curvature="0"
             id="path3895"
             d="m 317.73273,1780.0926 c 3.53753,1.2589 8.1779,-40.8833 -6.59747,-58.0991 -16.80108,-19.5761 -24.88501,-48.786 -38.69405,-76.8983 -9.63944,-50.3293 -3.45173,-79.3966 -4.23505,-98.6682 -0.45913,-11.2956 1.54784,-18.6321 -2.08808,-18.5101 -9.80396,0.329 -21.17635,1.7726 -30.45372,1.3703 -23.45337,-3.223 -7.68315,-12.4305 4.32316,-9.6697 5.31411,1.468 8.27795,-0.5928 12.12914,-4.9377 6.80758,-7.6804 10.52999,-25.9647 4.72143,-34.1173 -5.97243,-8.3825 -30.48781,-8.0158 -30.48781,-8.0158 0,0 -0.95536,-5.7655 0.95549,-6.4859 6.95525,-2.6223 23.16827,0.3045 32.48229,2.9329 11.0703,3.124 18.03445,9.6626 24.55759,19.5467 5.26419,23.0125 3.83846,44.6197 9.02415,64.7032 13.40341,51.9094 13.48354,66.6037 21.93191,92.8146 15.016,14.3244 18.80595,27.8015 28.93432,47.1492"
             style="fill:none;stroke:#000000;stroke-width:1.63403368px;stroke-linecap:round;stroke-linejoin:miter;stroke-opacity:1" />
          <path
             sodipodi:nodetypes="cssc"
             inkscape:connector-curvature="0"
             id="path3897"
             d="m 351.85276,1766.7683 c 0,0 -10.36587,9.6885 -29.5602,12.5835 -17.4358,2.63 -22.58454,-2.6173 -32.93303,6.1441 -12.31713,10.4281 -15.80995,48.4213 -1.15132,59.1079"
             style="fill:none;stroke:#000000;stroke-width:1.63403368px;stroke-linecap:round;stroke-linejoin:miter;stroke-opacity:1" />
          <path
             sodipodi:nodetypes="cc"
             inkscape:connector-curvature="0"
             id="path3899"
             d="m 331.66435,1832.1196 c -29.95161,16.1897 -26.49526,52.4343 11.86602,62.9162"
             style="fill:none;stroke:#000000;stroke-width:1.63403368px;stroke-linecap:round;stroke-linejoin:miter;stroke-opacity:1" />
          <path
             sodipodi:nodetypes="csc"
             inkscape:connector-curvature="0"
             id="path3901"
             d="m 415.71448,1880.9097 c 0,0 -21.19896,8.552 -26.75233,1.0558 -24.19492,-32.6594 30.12363,-78.2809 62.8263,-71.4536"
             style="fill:none;stroke:#000000;stroke-width:1.63403368px;stroke-linecap:round;stroke-linejoin:miter;stroke-opacity:1" />
          <path
             style="fill:#deaa87;fill-opacity:1;stroke:none"
             d="m 471.77165,1858.0032 -1.77136,17.4772 c 0,0 2.04148,9.4065 2.4453,14.216 0.83936,9.9968 -0.0685,30.1695 -0.0685,30.1695 l 1.65988,-17.9409 4.33187,-17.6226 -6.08461,-26.3028 z"
             id="path6026"
             inkscape:connector-curvature="0"
             sodipodi:nodetypes="ccsccccc" />
          <path
             sodipodi:nodetypes="csccc"
             inkscape:connector-curvature="0"
             id="path3903"
             d="m 407.46518,1858.0536 c 0,0 10.12492,-0.3489 11.16643,3.6318 11.17744,42.7212 58.55102,106.0242 71.96733,93.0835 0,0 22.10928,-19.5451 23.30503,-31.8404 2.72229,-28.3805 2.22339,-48.7953 2.91052,-77.1792"
             style="fill:none;stroke:#000000;stroke-width:1.63403368px;stroke-linecap:round;stroke-linejoin:miter;stroke-opacity:1" />
          <path
             sodipodi:nodetypes="cc"
             inkscape:connector-curvature="0"
             id="path3905"
             d="m 472.30746,1919.6435 c -0.52069,-32.5811 16.38225,-53.6763 23.62267,-75.4795"
             style="fill:none;stroke:#000000;stroke-width:1.63403368px;stroke-linecap:round;stroke-linejoin:miter;stroke-opacity:1" />
          <path
             sodipodi:nodetypes="cc"
             inkscape:connector-curvature="0"
             id="path3907"
             d="m 452.17682,1811.3549 c 23.7379,22.8492 19.84374,43.642 18.00377,64.2897"
             style="fill:none;stroke:#000000;stroke-width:1.63403368px;stroke-linecap:round;stroke-linejoin:miter;stroke-opacity:1" />
          <path
             sodipodi:nodetypes="cc"
             inkscape:connector-curvature="0"
             id="path3911"
             d="m 383.65609,1756.5834 c -0.59933,9.2158 -0.96268,12.346 -3.5206,21.5952"
             style="fill:none;stroke:#000000;stroke-width:1.63403368px;stroke-linecap:round;stroke-linejoin:miter;stroke-opacity:1" />
          <path
             sodipodi:nodetypes="cc"
             inkscape:connector-curvature="0"
             id="path3913"
             d="m 428.16288,1782.027 c 14.19743,7.6844 18.60792,20.9618 24.91735,29.8249"
             style="fill:none;stroke:#000000;stroke-width:1.63403368px;stroke-linecap:butt;stroke-linejoin:miter;stroke-opacity:1" />
          <path
             style="fill:#deaa87;fill-opacity:1;stroke:none"
             d="m 400.64717,1764.1814 c 15.83475,3.3545 28.10727,-8.0076 38.38494,-16.3849 -7.64109,13.4608 -12.64973,26.6236 -10.27883,42.7537 -0.19514,-11.6664 -1.99959,-19.5979 -28.10611,-26.3688 z"
             id="path4722"
             inkscape:connector-curvature="0"
             sodipodi:nodetypes="cccc" />
          <path
             sodipodi:nodetypes="cc"
             inkscape:connector-curvature="0"
             id="path3915"
             d="m 439.63676,1747.75 c -4.90916,5.606 -12.74327,20.746 -10.8027,43.1876"
             style="fill:none;stroke:#000000;stroke-width:1.63403368px;stroke-linecap:round;stroke-linejoin:miter;stroke-opacity:1" />
          <path
             sodipodi:nodetypes="csc"
             inkscape:connector-curvature="0"
             id="path3917"
             d="m 382.76385,1762.8383 c 0,0 -11.64878,-2.6379 -16.38924,-2.6924 -7.65004,-0.088 -17.76549,9.2274 -17.76549,9.2274"
             style="fill:none;stroke:#000000;stroke-width:1.63403368px;stroke-linecap:butt;stroke-linejoin:miter;stroke-opacity:1" />
          <path
             sodipodi:nodetypes="csccssc"
             inkscape:connector-curvature="0"
             id="path4720-4"
             d="m -47.027446,1948.7182 c 83.645249,124.0884 251.244996,164.9386 386.514266,131.3025 155.89742,-38.7655 275.07793,-172.7242 275.53748,-330.761 -2.76455,24.4488 -13.68129,238.401 -175.03438,324.2012 -15.90805,22.4507 -61.96339,35.783 -91.73483,43.973 -94.49264,25.9948 -221.35167,-2.484 -286.844174,-51.1321 C 2.6698316,2022.6686 -40.019011,1962.4967 -47.027446,1948.7182 z"
             style="fill:#ac9393;stroke:none;display:inline" />
          <path
             sodipodi:nodetypes="ccc"
             inkscape:connector-curvature="0"
             id="path3919"
             d="m 381.96226,1762.8521 c 0,0 -61.36108,31.7695 -46.52928,58.1562 37.62581,19.3264 108.78878,-26.7302 100.81246,-32.547"
             style="fill:none;stroke:#000000;stroke-width:1.63403368px;stroke-linecap:butt;stroke-linejoin:miter;stroke-opacity:1" />
          <path
             sodipodi:nodetypes="cc"
             inkscape:connector-curvature="0"
             id="path3937"
             d="m 60.712501,1781.8937 c -4.262597,32.2323 8.88206,50.7505 30.535994,62.5645"
             style="fill:none;stroke:#000000;stroke-width:1.63403368px;stroke-linecap:butt;stroke-linejoin:miter;stroke-opacity:1" />
          <path
             sodipodi:nodetypes="cc"
             inkscape:connector-curvature="0"
             id="path3937-9"
             d="m 55.623331,1787.6376 c -4.262592,32.2325 8.694075,49.904 30.348011,61.718"
             style="fill:none;stroke:#000000;stroke-width:1.63403368px;stroke-linecap:butt;stroke-linejoin:miter;stroke-opacity:1" />
          <path
             sodipodi:nodetypes="csc"
             inkscape:connector-curvature="0"
             id="path3965"
             d="m 34.180769,1871.8761 c 0,0 30.27911,0.4858 44.813388,-3.1733 19.674038,-4.9532 25.717353,-14.8623 25.717353,-14.8623"
             style="fill:none;stroke:#000000;stroke-width:1.63403368px;stroke-linecap:butt;stroke-linejoin:miter;stroke-opacity:1" />
          <path
             sodipodi:nodetypes="cc"
             inkscape:connector-curvature="0"
             id="path3967"
             d="m 88.972465,1845.0982 c 4.37654,-2.3597 13.530005,11.0529 12.002065,12.4116"
             style="fill:none;stroke:#000000;stroke-width:1.63403368px;stroke-linecap:butt;stroke-linejoin:miter;stroke-opacity:1" />
          <path
             sodipodi:nodetypes="cc"
             inkscape:connector-curvature="0"
             id="path3904"
             d="m 331.64841,1684.9267 c 18.73611,7.9034 27.87495,29.3338 33.53508,44.3991"
             style="fill:none;stroke:#000000;stroke-width:1.63403368px;stroke-linecap:round;stroke-linejoin:miter;stroke-opacity:1" />
          <path
             inkscape:connector-curvature="0"
             id="path4001"
             d="m 481.05411,1633.6845 c -0.35976,0.1648 -0.85893,-0.3568 -1.98203,-2.071 -2.45496,-3.7478 -5.38303,-7.2306 -8.94527,-10.6399 -3.64356,-3.4871 -3.61079,-3.3833 -1.53102,-4.8376 1.21684,-0.8509 2.14173,-0.7618 4.67621,0.4505 3.50009,1.6741 6.72686,5.6322 8.00193,9.8157 1.02982,3.3788 0.92783,6.7565 -0.21985,7.2824 l 0,0 z"
             style="fill:#d400aa;fill-opacity:1;stroke:none" />
          <path
             sodipodi:nodetypes="csscc"
             inkscape:connector-curvature="0"
             id="path3993"
             d="m 466.56674,1616.708 c 0,0 1.63124,-1.6669 3.41537,-1.2618 6.50353,1.4769 12.23928,7.5956 11.00776,13.8659 -0.15071,0.7671 -0.23846,2.3499 -0.23846,2.3499 l 0.51879,0.1135"
             style="fill:none;stroke:#000000;stroke-width:1.57684231;stroke-linecap:butt;stroke-linejoin:miter;stroke-miterlimit:4;stroke-opacity:1;stroke-dasharray:none" />
          <path
             sodipodi:nodetypes="cccccccccscccc"
             inkscape:connector-curvature="0"
             id="path3991"
             d="m 453.07386,1613.4886 c -53.23984,-29.7062 -100.20189,38.1621 -91.7375,57.1178 16.02906,0.2438 23.12383,-0.092 36.49344,6.5071 1.42656,-7.2352 9.02126,-26.4905 15.1823,-29.2739 -3.02079,4.0328 -10.75489,22.7866 -10.73976,31.2793 l 14.84516,3.85 c -0.77281,-7.7972 5.7863,-28.9708 9.48508,-33.3104 -3.10167,9.5053 -5.56132,25.9386 -4.22455,34.0517 10.14542,5.3474 22.82951,7.9348 34.28803,9.5703 -1.61135,16.9945 -7.41255,26.3686 -7.11237,24.7321 0.44507,-2.4264 13.75787,-14.6754 14.47047,-19.2347 20.58608,-7.1518 2.98509,50.412 -10.34232,31.2192 l -5.56845,7.6003 c 61.90532,0.5829 65.69184,-115.3963 4.96047,-124.1088 z"
             style="fill:#502d16;stroke:#000000;stroke-width:1.57684231;stroke-linecap:butt;stroke-linejoin:miter;stroke-miterlimit:4;stroke-opacity:1;stroke-dasharray:none" />
          <path
             sodipodi:nodetypes="ccsc"
             inkscape:connector-curvature="0"
             id="path3997"
             d="m 369.87876,1670.7073 c -1.17698,10.2944 -3.61432,24.7892 -8.51765,34.6441 -0.0778,34.4433 19.37684,54.4453 36.35925,57.9911 19.54417,4.0804 34.39451,-6.8242 50.0314,-25.8217"
             style="fill:none;stroke:#000000;stroke-width:1.63403368px;stroke-linecap:round;stroke-linejoin:miter;stroke-opacity:1" />
          <g
             id="g4621"
             transform="matrix(0.80790088,-0.0165163,-0.01489391,0.86587961,124.58747,254.20562)"
             style="stroke-width:1.95441353;stroke-miterlimit:4;stroke-dasharray:none">
            <path
               style="fill:none;stroke:#000000;stroke-width:1.95441353;stroke-linecap:round;stroke-linejoin:miter;stroke-miterlimit:4;stroke-opacity:1;stroke-dasharray:none"
               d="m 490.51369,1798.6695 c 2.1555,-7.1226 4.63436,-10.544 8.5815,-15.7856 0,0 -0.37206,-7.425 -2.86936,-9.2977 -2.47116,-1.8531 -6.37772,-1.1798 -9.21835,0.1584 -3.05787,1.4404 -3.61719,7.6596 -6.92535,7.7665 -1.98407,0.065 -4.67229,-1.764 -3.69072,-3.6243 2.50975,-4.7568 5.67753,-9.4019 9.98973,-11.4008 3.67814,-1.7051 13.77022,-1.0397 13.77022,-1.0397"
               id="path4009"
               inkscape:connector-curvature="0"
               sodipodi:nodetypes="ccsssssc" />
            <path
               style="fill:none;stroke:#000000;stroke-width:1.95441353;stroke-linecap:round;stroke-linejoin:miter;stroke-miterlimit:4;stroke-opacity:1;stroke-dasharray:none"
               d="m 501.66934,1784.964 c 2.11867,-0.8898 -0.49915,-22.117 -7.23804,-39.3881 -2.4703,-6.3312 4.91016,-7.8681 6.47798,-4.5723 2.87321,6.04 10.41107,22.4941 11.16912,27.0546"
               id="path4011"
               inkscape:connector-curvature="0"
               sodipodi:nodetypes="cssc" />
            <path
               style="fill:none;stroke:#000000;stroke-width:1.95441353;stroke-linecap:round;stroke-linejoin:miter;stroke-miterlimit:4;stroke-opacity:1;stroke-dasharray:none"
               d="m 508.26083,1786.2524 c 0,0 2.10571,-3.0686 2.4792,-5.0556 2.1622,-11.5031 0.89535,-29.6122 2.09065,-33.3879 0.31285,-7.6102 8.47207,-9.9616 9.02422,-0.5798 l -0.39131,26.7731"
               id="path4013"
               inkscape:connector-curvature="0"
               sodipodi:nodetypes="csccc" />
            <path
               style="fill:none;stroke:#000000;stroke-width:1.95441353;stroke-linecap:round;stroke-linejoin:miter;stroke-miterlimit:4;stroke-opacity:1;stroke-dasharray:none"
               d="m 501.59325,1810.6464 c 0,0 7.28333,-3.0329 9.01205,-9.5428 1.0882,-4.0979 0.51652,-9.6788 3.28074,-12.8104 1.2442,-1.4096 4.01867,-3.8206 4.01867,-3.8206 4.23497,-10.0178 3.86532,-13.3723 12.49587,-32.5044 3.30595,-3.2503 7.22006,-1.1212 4.97271,2.4637 -2.75573,11.9946 -6.30049,22.2764 -10.08488,32.0382 0.71202,8.1578 -3.03259,23.8468 -4.95756,30.9249 1.65689,13.781 -0.17631,23.88 -0.78337,30.3147 l -16.00201,-0.9175 -9.96125,-0.913 c 1.62225,-4.616 2.73671,-15.6489 1.71774,-22.7812 l -10.96461,-17.4435 -10.81082,-22.3473 c -0.89539,-2.2561 2.23736,-4.3162 5.3346,-0.5013 4.12508,3.9674 9.79686,11.0547 14.3256,8.6452"
               id="path4015"
               inkscape:connector-curvature="0"
               sodipodi:nodetypes="cssccccccccccccc" />
          </g>
          <path
             transform="matrix(1.5464592,-0.02657113,-0.02254873,1.5430834,-320.72994,908.69127)"
             d="m 612.15244,563.44836 c 0,129.43091 -101.3064,234.3554 -226.27417,234.3554 -124.96778,0 -226.27417,-104.92449 -226.27417,-234.3554 0,-129.43091 101.30639,-234.35539 226.27417,-234.35539 124.96777,0 226.27417,104.92448 226.27417,234.35539 z"
             sodipodi:ry="234.35539"
             sodipodi:rx="226.27417"
             sodipodi:cy="563.44836"
             sodipodi:cx="385.87827"
             id="path4097"
             style="fill:none;stroke:#010000;stroke-width:5.69999981;stroke-miterlimit:4;stroke-opacity:1;stroke-dasharray:none"
             sodipodi:type="arc" />
          <path
             sodipodi:nodetypes="cccc"
             inkscape:connector-curvature="0"
             id="path4123"
             d="m 338.42937,1799.1301 c -7.28047,16.8689 9.70367,21.2613 23.14072,25.7393 -8.03071,-0.3806 -15.35533,0.7715 -25.44072,-4.0693 -4.90072,-8.3912 -0.69929,-15.8617 2.3,-21.67 z"
             style="fill:#deaa87;fill-opacity:1;stroke:none" />
          <path
             style="fill:#aa0000;fill-opacity:1;stroke:none"
             d="m 248.23747,1854.1586 c 11.11689,19.7443 23.48504,22.1456 40.04696,20.1756 -6.5032,16.6239 -4.05776,39.5534 14.29752,56.8355 -2.90255,1.3679 -2.8098,1.5146 -8.70763,4.1038 -24.92035,-29.9958 -47.14016,-52.1099 -45.63685,-81.1149 z"
             id="path4695"
             inkscape:connector-curvature="0"
             sodipodi:nodetypes="ccccc" />
          <path
             style="fill:none;stroke:#000000;stroke-width:1.67177904;stroke-linecap:butt;stroke-linejoin:miter;stroke-miterlimit:4;stroke-opacity:1;stroke-dasharray:none"
             d="m 228.68529,1892.0652 c 8.41594,-28.7723 31.75661,-53.8915 50.40424,-68.7649"
             id="path4669"
             inkscape:connector-curvature="0"
             sodipodi:nodetypes="cc" />
          <path
             style="fill:none;stroke:#000000;stroke-width:1.63966131;stroke-linecap:round;stroke-linejoin:miter;stroke-miterlimit:4;stroke-opacity:1;stroke-dasharray:none"
             d="m 311.11097,1722.2391 c -4.29689,-8.4785 -8.02592,-6.4017 -6.05022,-21.162"
             id="path4673"
             inkscape:connector-curvature="0"
             sodipodi:nodetypes="cc" />
          <path
             style="fill:none;stroke:#000000;stroke-width:1.28598368px;stroke-linecap:round;stroke-linejoin:miter;stroke-opacity:1"
             d="m 418.92165,1861.7372 c 9.89637,15.0317 8.4541,10.3562 15.68861,18.1392"
             id="path4675"
             inkscape:connector-curvature="0"
             sodipodi:nodetypes="cc" />
          <text
             xml:space="preserve"
             style="font-size:55.35881042px;font-style:normal;font-variant:normal;font-weight:normal;font-stretch:normal;line-height:125%;letter-spacing:0px;word-spacing:0px;fill:#000000;fill-opacity:1;stroke:none;display:inline;font-family:Haettenschweiler;-inkscape-font-specification:Haettenschweiler"
             id="text3086-9"
             sodipodi:linespacing="125%"
             transform="matrix(1.0446072,0,0,1.123906,25.147084,856.54145)"><textPath
               xlink:href="#path4097-1"
               id="textPath3090-0"><tspan
   id="tspan3088-0" /></textPath></text>
          <g
             id="g3989"
             transform="matrix(1.477368,0.00840444,0.00757888,1.4478651,-220.13809,-1348.0856)" />
          <path
             style="fill:none;stroke:#000000;stroke-width:1.59018874;stroke-linecap:butt;stroke-linejoin:miter;stroke-miterlimit:4;stroke-opacity:1;stroke-dasharray:none"
             d="m 471.51439,1857.285 c 2.85237,6.7041 5.43239,19.8483 6.73738,29.1638"
             id="path4627"
             inkscape:connector-curvature="0"
             sodipodi:nodetypes="cc" />
          <path
             style="fill:#e9c6af;fill-opacity:1;stroke:none"
             d="m 497.18865,1842.8607 -1.26977,3.7765 20.02456,1.1741 0.2474,-3.8508 z"
             id="path4655"
             inkscape:connector-curvature="0"
             sodipodi:nodetypes="ccccc" />
          <path
             style="fill:none;stroke:#000000;stroke-width:1.76687634px;stroke-linecap:butt;stroke-linejoin:miter;stroke-opacity:1"
             d="m 247.39791,1856.235 c -0.0773,19.9704 14.21194,45.9407 47.37057,80.0566 l 0.34003,0.091"
             id="path6028"
             inkscape:connector-curvature="0"
             sodipodi:nodetypes="ccc" />
          <path
             style="fill:#ffcc00;stroke:#000000;stroke-width:1.76687634000000000px;stroke-linecap:butt;stroke-linejoin:miter;stroke-opacity:1"
             d="m 248.48687,1854.1455 c 8.34958,33.0615 27.11981,58.0033 49.02942,80.4989 -1.31852,4.6381 -5.04402,2.5416 -8.52354,7.6866 -1.77409,2.6232 -2.11843,13.5372 -5.36737,13.5321 -20.72759,-26.9164 -42.83636,-50.3783 -48.31585,-82.198 2.26014,-5.9856 6.41993,-14.2219 13.17734,-19.5196 z"
             id="path6032"
             inkscape:connector-curvature="0"
             sodipodi:nodetypes="ccsccc" />
          <path
             style="fill:#ffcc00;stroke:#000000;stroke-width:1.76687634000000000px;stroke-linecap:butt;stroke-linejoin:miter;stroke-opacity:1"
             d="m 223.01236,1835.9945 c -6.65103,6.5905 -10.0125,16.1157 -13.19545,25.089 l 7.81689,12.1806 c 2.95938,-12.218 8.32355,-23.973 18.72715,-28.9429 -6.57511,-7.1421 -10.15988,-8.9107 -13.34859,-8.3267 z"
             id="path6052"
             inkscape:connector-curvature="0"
             sodipodi:nodetypes="ccccc" />
          <path
             style="fill:#ffcc00;stroke:#000000;stroke-width:1.76687634000000000px;stroke-linecap:butt;stroke-linejoin:miter;stroke-opacity:1"
             d="m 209.84118,1864.175 c -33.19908,5.9287 -64.77811,75.6659 -60.03197,96.4595 -0.28857,6.0539 10.167,21.8314 21.84765,24.0547 -13.37887,-26.9253 29.14708,-105.3416 49.79592,-102.8345 3.32049,0.4031 -7.87438,-21.2077 -11.6116,-17.6797 z"
             id="path6054"
             inkscape:connector-curvature="0"
             sodipodi:nodetypes="cccsc" />
          <path
             style="fill:#cccccc;stroke:#000000;stroke-width:0.88343817;stroke-linecap:butt;stroke-linejoin:miter;stroke-miterlimit:4;stroke-opacity:1;stroke-dasharray:none"
             d="m 284.30994,1943.9073 c 0,0 -6.70676,25.9113 2.48287,30.1103 7.59049,3.4682 16.27198,-6.8374 16.73581,-15.8715 0.40827,-7.9517 -13.7755,-18.2566 -13.7755,-18.2566 l -0.77904,2.1762 c 0,0 13.19498,9.1588 12.83984,15.7635 -0.33832,6.2922 -7.94735,16.0243 -13.27382,13.7094 -7.48458,-3.2529 -2.20515,-28.073 -2.20515,-28.073 z"
             id="path6069"
             inkscape:connector-curvature="0"
             sodipodi:nodetypes="cssccsscc" />
          <path
             style="fill:#cccccc;stroke:#000000;stroke-width:0.88343817;stroke-linecap:butt;stroke-linejoin:miter;stroke-miterlimit:4;stroke-opacity:1;stroke-dasharray:none;display:inline"
             d="m 270.4423,1918.9295 c 0,0 -9.14856,3.5011 -10.3021,14.3955 -0.9527,8.9985 6.77626,21.1519 14.82226,18.8213 7.082,-2.0514 10.903,-16.2004 10.903,-16.2004 l -2.13381,-1.6805 c 0,0 -3.46852,14.3419 -9.35525,16.0291 -5.6082,1.6073 -12.42587,-9.0147 -11.8615,-15.2923 0.79312,-8.8209 9.01677,-13.6386 9.01677,-13.6386 z"
             id="path6069-4"
             inkscape:connector-curvature="0"
             sodipodi:nodetypes="cssccsscc" />
          <path
             style="fill:#cccccc;stroke:#000000;stroke-width:1.76687634px;stroke-linecap:butt;stroke-linejoin:miter;stroke-opacity:1"
             d="m 245.01831,1870.0776 c -0.87658,-0.8571 -4.03949,1.7194 -3.87592,3.3296 0.56787,7.012 12.27469,28.8306 22.13328,43.3825 2.11577,0.975 3.19531,-0.9492 3.92073,-3.516 -11.96878,-14.6627 -21.24858,-36.3163 -22.17809,-43.1961 z"
             id="path6091"
             inkscape:connector-curvature="0"
             sodipodi:nodetypes="ccccc" />
          <path
             style="fill:#cccccc;stroke:#000000;stroke-width:1.06012583;stroke-linecap:butt;stroke-linejoin:miter;stroke-miterlimit:4;stroke-opacity:1;stroke-dasharray:none"
             d="m 251.6976,1885.9387 c -4.26528,-0.2899 -7.55007,2.0328 -10.05158,6.4427 -1.40411,1.5434 -0.31873,5.3545 3.75609,6.9509 2.13828,-5.9413 5.20746,-9.5643 9.13036,-7.8782 0.46381,-3.431 -0.65113,-5.0773 -2.83487,-5.5154 z"
             id="path6093"
             inkscape:connector-curvature="0"
             sodipodi:nodetypes="ccccc" />
          <path
             style="fill:#cccccc;stroke:#000000;stroke-width:0.53006291;stroke-linecap:butt;stroke-linejoin:miter;stroke-miterlimit:4;stroke-opacity:1;stroke-dasharray:none"
             d="m 292.88829,1968.3507 c 0,0 3.29842,0.1743 4.58684,2.2045 4.85318,7.6473 -7.09434,21.527 -7.09434,21.527 0,0 8.75134,-14.2991 5.14482,-19.8031 -0.99751,-1.5223 -4.03047,-0.7941 -4.03047,-0.7941 -1.08772,-1.9494 0.56941,-2.7717 1.39315,-3.1343 z"
             id="path6095"
             inkscape:connector-curvature="0"
             sodipodi:nodetypes="cscscc" />
          <path
             style="fill:#28170b;fill-opacity:1;stroke:none"
             d="m 295.86353,2016.148 c -7.06533,-3.8573 -8.97806,-10.2844 -6.33391,-21.2823 l 0.86683,-3.6058 1.75401,-0.3484 c 1.29175,5.3848 4.19067,15.6083 8.21761,21.0327 2.81408,3.791 6.82089,5.2639 6.35841,6.4454 l -0.46725,1.1937 -4.08446,-1.1096 c -2.24666,-0.6096 -5.0865,-1.657 -6.31124,-2.3257 z"
             id="path6103"
             inkscape:connector-curvature="0"
             sodipodi:nodetypes="ccccssccc" />
          <path
             style="fill:#cccccc;stroke:#000000;stroke-width:0.53006291;stroke-linecap:butt;stroke-linejoin:miter;stroke-miterlimit:4;stroke-opacity:1;stroke-dasharray:none"
             d="m 290.38731,1991.523 c -0.43795,-5.4057 -2.26444,-10.3425 0.73977,-16.9108 l 2.96808,-1.1719 c -3.3024,5.4766 -3.90732,11.6725 -3.70785,18.0827 z"
             id="path6097"
             inkscape:connector-curvature="0"
             sodipodi:nodetypes="cccc" />
          <path
             style="fill:#483737;stroke:#000000;stroke-width:1.68684208;stroke-linecap:butt;stroke-linejoin:miter;stroke-miterlimit:4;stroke-opacity:1;stroke-dasharray:none"
             d="m 291.21759,1989.7336 c -17.79854,9.7952 -35.33617,35.9543 -35.37106,44.1752 6.41547,39.4915 25.40298,37.4583 29.26497,35.4463 2.62325,-16.8485 14.26066,-36.4747 23.18462,-50.0685 -16.10404,-1.7215 -24.22592,-6.4602 -17.07853,-29.553 z"
             id="path6099"
             inkscape:connector-curvature="0"
             sodipodi:nodetypes="ccccc" />
          <path
             style="fill:#28170b;stroke:none"
             d="m 259.35262,2047.2232 -3.1113,-14.1707 c 3.62767,-12.6207 16.64985,-30.9245 34.00704,-43.2168 -0.69155,6.3179 -0.4463,-1.6308 -0.61519,4.5234 -10.26141,2.8937 -24.07943,19.7945 -30.28055,52.8641 z"
             id="path6105"
             inkscape:connector-curvature="0"
             sodipodi:nodetypes="ccccc" />
          <path
             style="fill:none;stroke:#000000;stroke-width:1.40570176;stroke-linecap:butt;stroke-linejoin:miter;stroke-miterlimit:4;stroke-opacity:1;stroke-dasharray:none"
             d="m 308.82879,2019.4286 c -11.54018,-6.5467 -15.63597,-17.8014 -16.52078,-31.0871"
             id="path6101"
             inkscape:connector-curvature="0"
             sodipodi:nodetypes="cc" />
          <text
             xml:space="preserve"
             style="font-size:87.7754364px;font-style:normal;font-variant:normal;font-weight:300;font-stretch:normal;text-align:start;line-height:125%;letter-spacing:0px;word-spacing:0px;writing-mode:lr-tb;text-anchor:start;fill:#000000;fill-opacity:1;stroke:none;font-family:Calibri Light;-inkscape-font-specification:'Calibri Light, Light'"
             id="text6109"
             sodipodi:linespacing="125%"
             transform="matrix(0.94726059,0.33040351,-0.27762078,0.95884188,513.5852,-4.3455074)"><textPath
               xlink:href="#path6113"
               id="textPath6117"
               style="font-size:87.7754364px;font-style:normal;font-variant:normal;font-weight:normal;font-stretch:normal;text-align:start;line-height:125%;writing-mode:lr-tb;text-anchor:start;stroke:none;font-family:Haettenschweiler;-inkscape-font-specification:Haettenschweiler">Mama nie wie, e si wspinam</textPath></text>
          <path
             style="fill:none;stroke:none"
             d="M -62.968049,1565.0156 C 208.41449,1160.293 693.10851,1461.2638 648.21881,1792.7902"
             id="path6113"
             inkscape:connector-curvature="0"
             sodipodi:nodetypes="cc" />
          <path
             style="fill:none;stroke:#000000;stroke-width:1px;stroke-linecap:butt;stroke-linejoin:miter;stroke-opacity:1"
             d="m 267.3724,345.54417 c 0.16689,1.11484 -0.0882,1.764 -0.74935,2.08043 -2.63943,1.26315 -9.40435,-1.74712 -12.2941,-2.77853"
             id="path3249"
             inkscape:connector-curvature="0"
             transform="matrix(1.6359318,0.43615359,-0.43115744,1.7933518,-40.903639,1159.3672)"
             sodipodi:nodetypes="csc" />
          <path
             style="fill:none;stroke:#000000;stroke-width:1px;stroke-linecap:butt;stroke-linejoin:miter;stroke-opacity:1"
             d="m 267.52676,344.95935 c 0,0 2.5764,4.66135 0.69809,6.16332 -3.42666,2.7401 -11.25047,-3.66791 -11.25047,-3.66791"
             id="path3251"
             inkscape:connector-curvature="0"
             transform="matrix(1.6359318,0.43615359,-0.43115744,1.7933518,-40.903639,1159.3672)"
             sodipodi:nodetypes="csc" />
          <path
             style="fill:#008000;fill-opacity:1;stroke:none"
             d="m 256.65924,346.881 c -0.90545,-0.65917 -1.76068,-1.65415 -1.93894,-1.70434 -0.41672,-0.11734 7.91909,2.82124 9.31408,2.98084 2.56625,0.23312 3.41149,-0.53359 3.54694,-1.79648 0.39323,-0.60332 2.10128,4.22761 10e-4,4.89026 -3.72075,0.54398 -7.74324,-1.98462 -10.92308,-4.37028 z"
             id="path3253"
             inkscape:connector-curvature="0"
             transform="matrix(1.6359318,0.43615359,-0.43115744,1.7933518,-40.903639,1159.3672)"
             sodipodi:nodetypes="cscccc" />
          <path
             style="fill:none;stroke:#000000;stroke-width:1.76687634px;stroke-linecap:butt;stroke-linejoin:miter;stroke-opacity:1"
             d="m 192.40802,1996.6042 c 1.74852,67.5257 -71.4928,75.8611 -99.071142,88.5755"
             id="path3255"
             inkscape:connector-curvature="0"
             sodipodi:nodetypes="cc" />
          <path
             style="fill:none;stroke:#000000;stroke-width:1.76687634px;stroke-linecap:butt;stroke-linejoin:miter;stroke-opacity:1"
             d="m 196.52117,1997.3282 c -2.83663,70.1656 -73.5063,80.8586 -100.957284,90.0359"
             id="path3257"
             inkscape:connector-curvature="0"
             sodipodi:nodetypes="cc" />
          <path
             style="fill:#008000;stroke:#000000;stroke-width:1px;stroke-linecap:butt;stroke-linejoin:miter;stroke-opacity:1"
             d="m 253.37365,344.62561 c 3.69643,-0.69575 6.535,-3.8149 11.09612,-2.278 l -1.46968,2.64543 c -2.66993,-1.02599 -4.82546,-0.43739 -7.49539,-0.14697 z"
             id="path3261"
             inkscape:connector-curvature="0"
             transform="matrix(1.6359318,0.43615359,-0.43115744,1.7933518,-40.903639,1159.3672)"
             sodipodi:nodetypes="ccccc" />
          <path
             style="fill:#008000;fill-opacity:1;stroke:none"
             d="m 206.59505,466.22437 c -0.27786,-0.17628 1.70459,-1.45531 9.38927,-6.05776 13.17174,-7.88869 18.29809,-11.55812 23.80342,-17.0384 4.04683,-4.02842 6.5305,-7.36342 8.59193,-11.53703 1.55972,-3.15782 2.38022,-5.61933 3.03733,-9.11204 0.29022,-1.54261 0.33151,-2.23328 0.32941,-5.51132 -0.002,-3.23448 -0.0482,-4.00933 -0.3369,-5.65828 -0.28607,-1.63397 -0.71235,-3.57482 -0.99335,-4.52278 -0.0685,-0.23107 -0.005,-0.24962 0.55835,-0.16326 0.3496,0.0536 0.65094,0.10904 0.66964,0.12323 0.0187,0.0142 0.13511,0.55061 0.25869,1.19204 0.88289,4.58282 0.87858,10.65773 -0.0108,15.12824 -1.19631,6.01375 -4.24015,12.26509 -8.5429,17.54514 -1.56191,1.91667 -5.91843,6.29343 -7.90558,7.9423 -5.7606,4.77996 -11.37353,8.36909 -23.2945,14.89541 -2.14207,1.17271 -4.19228,2.30401 -4.55603,2.51401 -0.74151,0.42809 -0.7361,0.42668 -0.99803,0.2605 l 0,0 z"
             id="path3987"
             inkscape:connector-curvature="0"
             transform="matrix(1.6359318,0.43615359,-0.43115744,1.7933518,-40.903639,1159.3672)" />
        </g>
        <path
           style="fill:#deaa87;fill-opacity:1;stroke:none"
           d="m 325.60767,884.73612 c -1.2898,-0.86437 0.44159,1.24311 3.1291,1.8201 1.8511,-0.36897 3.31768,-0.73469 3.44656,-2.81307 l -1.83161,-0.0994 -1.87048,1.89004 z"
           id="path4872"
           inkscape:connector-curvature="0"
           sodipodi:nodetypes="cccccc" />
        <path
           style="fill:#ececec;stroke:none"
           d="m 313.9026,867.68637 c -2.42511,0.006 -2.24531,3.25379 0.37752,3.61184 l 5.34802,2.1173 c 3.88198,0.37453 3.09002,-1.30696 2.57962,-2.86456 l -2.57962,-3.61187 c -1.88523,0.0877 -3.54258,-1.40327 -5.72554,0.74729 z"
           id="path4848"
           inkscape:connector-curvature="0"
           sodipodi:nodetypes="cccccc" />
        <path
           style="fill:#deaa87;fill-opacity:1;stroke:none"
           d="m 323.08861,873.04186 c 0.19141,0.29771 1.6423,-1.67135 0.56626,-3.30047 -0.18873,-0.24911 -4.65591,-3.36276 -4.65591,-3.36276 1.76451,1.93222 4.06043,3.48193 4.08965,6.66323 z"
           id="path4846"
           inkscape:connector-curvature="0"
           sodipodi:nodetypes="cccc" />
        <path
           style="fill:none;stroke:#000000;stroke-width:0.70106047px;stroke-linecap:round;stroke-linejoin:miter;stroke-opacity:1"
           d="m 368.13779,873.10414 c -5.1381,-1.86261 -5.64358,1.47156 -4.57026,2.49176 3.71029,3.52667 5.39119,-3.14032 5.49196,-6.97955 0.14318,-5.45695 -4.20261,-3.96419 -4.4451,-0.86771"
           id="path4726"
           inkscape:connector-curvature="0"
           sodipodi:nodetypes="cssc" />
        <path
           style="fill:none;stroke:#000000;stroke-width:0.70106047px;stroke-linecap:round;stroke-linejoin:miter;stroke-opacity:1"
           d="m 327.57491,875.98497 c 0,0 0.54184,1.71269 -0.14019,3.26648 -0.87346,1.98997 -2.92235,4.03179 -1.79715,5.22005 0.70104,0.74032 3.01668,1.36249 3.56372,0.0764 0.67139,-1.57822 2.9659,-0.66047 2.9659,-0.66047"
           id="path4730"
           inkscape:connector-curvature="0"
           sodipodi:nodetypes="csssc" />
        <path
           style="fill:#000000;stroke:none;display:inline"
           d="m 335.47214,863.17728 c 4.46278,-3.18264 15.78956,-1.54838 17.55552,1.89964 -4.0805,-4.57291 -19.96249,1.92853 -17.55552,-1.89964 z"
           id="path4732-1"
           inkscape:connector-curvature="0"
           sodipodi:nodetypes="ccc" />
        <path
           style="fill:none;stroke:#000000;stroke-width:0.70106047px;stroke-linecap:round;stroke-linejoin:miter;stroke-opacity:1"
           d="m 323.1665,892.07338 c 6.75109,3.52173 17.46712,-0.40018 18.8636,-4.57952"
           id="path4752"
           inkscape:connector-curvature="0"
           sodipodi:nodetypes="cc" />
        <path
           style="fill:none;stroke:#000000;stroke-width:0.70106047px;stroke-linecap:round;stroke-linejoin:miter;stroke-opacity:1"
           d="m 323.0888,873.03338 c -2.02181,-6.69579 -5.71064,-8.46147 -11.3996,-4.31167"
           id="path4758"
           inkscape:connector-curvature="0"
           sodipodi:nodetypes="cc" />
        <path
           sodipodi:type="arc"
           style="fill:#93ac93;stroke:#000000;stroke-opacity:1"
           id="path4760"
           sodipodi:cx="425.84821"
           sodipodi:cy="396.15683"
           sodipodi:rx="3.7946429"
           sodipodi:ry="4.1517859"
           d="m 429.64285,396.15683 c 0,2.29297 -1.69892,4.15179 -3.79464,4.15179 -2.09573,0 -3.79465,-1.85882 -3.79465,-4.15179 0,-2.29297 1.69892,-4.15179 3.79465,-4.15179 2.09572,0 3.79464,1.85882 3.79464,4.15179 z"
           transform="matrix(0.69538838,0.11288668,-0.1140553,0.68826348,67.174307,549.0013)" />
        <path
           sodipodi:type="arc"
           style="fill:#6f916f;fill-opacity:1;stroke:none"
           id="path4770"
           sodipodi:cx="425.11639"
           sodipodi:cy="396.93103"
           sodipodi:rx="2.493814"
           sodipodi:ry="2.8094869"
           d="m 427.61021,396.93103 c 0,1.55164 -1.11652,2.80949 -2.49382,2.80949 -1.37729,0 -2.49381,-1.25785 -2.49381,-2.80949 0,-1.55164 1.11652,-2.80949 2.49381,-2.80949 1.3773,0 2.49382,1.25785 2.49382,2.80949 z"
           transform="matrix(0.69538838,0.11288668,-0.1140553,0.68826348,67.886847,548.54903)" />
        <path
           sodipodi:type="arc"
           style="fill:#000000;fill-opacity:1;stroke:none"
           id="path4762"
           sodipodi:cx="424.59821"
           sodipodi:cy="396.69254"
           sodipodi:rx="0.84821427"
           sodipodi:ry="0.84821427"
           d="m 425.44642,396.69254 c 0,0.46845 -0.37976,0.84821 -0.84821,0.84821 -0.46846,0 -0.84822,-0.37976 -0.84822,-0.84821 0,-0.46846 0.37976,-0.84822 0.84822,-0.84822 0.46845,0 0.84821,0.37976 0.84821,0.84822 z"
           transform="matrix(1.2809786,0.20794917,-0.22811058,1.376527,-135.2452,235.10482)" />
        <path
           sodipodi:type="arc"
           style="fill:#ffffff;fill-opacity:1;stroke:none"
           id="path4764"
           sodipodi:cx="423.97321"
           sodipodi:cy="395.44254"
           sodipodi:rx="0.9375"
           sodipodi:ry="0.84821427"
           d="m 424.91071,395.44254 c 0,0.46845 -0.41974,0.84821 -0.9375,0.84821 -0.51777,0 -0.9375,-0.37976 -0.9375,-0.84821 0,-0.46846 0.41973,-0.84822 0.9375,-0.84822 0.51776,0 0.9375,0.37976 0.9375,0.84822 z"
           transform="matrix(0.69538838,0.11288668,-0.1140553,0.68826348,67.886847,548.54903)" />
        <path
           style="fill:none;stroke:#000000;stroke-width:0.70106047px;stroke-linecap:round;stroke-linejoin:miter;stroke-opacity:1"
           d="m 313.52622,871.10242 c 1.78637,0.79807 3.1282,1.61753 7.20521,2.30555"
           id="path4766"
           inkscape:connector-curvature="0"
           sodipodi:nodetypes="cc" />
        <path
           style="font-size:medium;font-style:normal;font-variant:normal;font-weight:normal;font-stretch:normal;text-indent:0;text-align:start;text-decoration:none;line-height:normal;letter-spacing:normal;word-spacing:normal;text-transform:none;direction:ltr;block-progression:tb;writing-mode:lr-tb;text-anchor:start;baseline-shift:baseline;color:#000000;fill:#000000;fill-opacity:1;stroke:none;stroke-width:0.69999999;marker:none;visibility:visible;display:inline;overflow:visible;enable-background:accumulate;font-family:Sans;-inkscape-font-specification:Sans"
           d="m 318.29652,866.036 c -1.0935,-0.14279 -2.30212,-0.0112 -3.61882,0.56104 -0.0285,0.0129 -0.0543,0.0313 -0.0758,0.0539 -0.1571,0.15886 0.0608,0.48058 0.26896,0.39705 5.02749,-2.44189 6.93812,2.04544 9.1603,3.16566 -0.13207,-0.31168 -0.44944,-0.82326 -0.9304,-1.3879 -0.48098,-0.56466 -1.12178,-1.18204 -1.92683,-1.70427 -0.80502,-0.52221 -1.78382,-0.94266 -2.87732,-1.08553 z"
           id="path4768"
           inkscape:connector-curvature="0"
           sodipodi:nodetypes="cccccsscc" />
        <path
           style="fill:#deaa87;fill-opacity:1;stroke:none"
           d="m 336.55302,870.36412 c -1.158,0.50938 -0.23935,4.83323 0.44043,3.05139 2.30996,-6.05475 7.73832,-5.48183 7.73891,-5.48004 l 3.15565,2.09772 0.74524,0.51776 c -2.01759,-1.95265 -4.20434,-2.57524 -6.41763,-2.98912 -2.13953,-0.68716 -3.83228,1.50003 -5.6626,2.80229 z"
           id="path4844"
           inkscape:connector-curvature="0"
           sodipodi:nodetypes="csccccc" />
        <path
           style="fill:#ececec;stroke:none;display:inline"
           d="m 345.91794,868.80507 c 2.42512,0.006 2.68578,3.50286 0.063,3.86093 l -5.78846,1.8682 c -4.03712,-0.85373 -3.09137,-1.31775 -2.57963,-2.86458 l 2.57963,-3.61184 c 1.88521,0.0877 3.54259,-1.40327 5.72552,0.74729 z"
           id="path4848-5"
           inkscape:connector-curvature="0"
           sodipodi:nodetypes="cccccc" />
        <path
           style="fill:none;stroke:#000000;stroke-width:0.70106047px;stroke-linecap:round;stroke-linejoin:miter;stroke-opacity:1"
           d="m 336.74095,873.64853 c 2.66979,-6.4696 6.51453,-7.87204 11.76907,-3.19459"
           id="path4758-4"
           inkscape:connector-curvature="0"
           sodipodi:nodetypes="cc" />
        <path
           sodipodi:type="arc"
           style="fill:#93ac93;stroke:#000000;stroke-opacity:1"
           id="path4760-0"
           sodipodi:cx="425.84821"
           sodipodi:cy="396.15683"
           sodipodi:rx="3.7946429"
           sodipodi:ry="4.1517859"
           d="m 429.64285,396.15683 c 0,2.29297 -1.69892,4.15179 -3.79464,4.15179 -2.09573,0 -3.79465,-1.85882 -3.79465,-4.15179 0,-2.29297 1.69892,-4.15179 3.79465,-4.15179 2.09572,0 3.79464,1.85882 3.79464,4.15179 z"
           transform="matrix(-0.70318168,0.04545487,0.04592542,0.69597692,623.26479,575.77003)" />
        <path
           sodipodi:type="arc"
           style="fill:#6f916f;fill-opacity:1;stroke:none"
           id="path4770-9"
           sodipodi:cx="425.11639"
           sodipodi:cy="396.93103"
           sodipodi:rx="2.493814"
           sodipodi:ry="2.8094869"
           d="m 427.61021,396.93103 c 0,1.55164 -1.11652,2.80949 -2.49382,2.80949 -1.37729,0 -2.49381,-1.25785 -2.49381,-2.80949 0,-1.55164 1.11652,-2.80949 2.49381,-2.80949 1.3773,0 2.49382,1.25785 2.49382,2.80949 z"
           transform="matrix(-0.70318168,0.04545487,0.04592542,0.69597692,622.60005,575.25134)" />
        <path
           sodipodi:type="arc"
           style="fill:#000000;fill-opacity:1;stroke:none"
           id="path4762-4"
           sodipodi:cx="424.59821"
           sodipodi:cy="396.69254"
           sodipodi:rx="0.84821427"
           sodipodi:ry="0.84821427"
           d="m 425.44642,396.69254 c 0,0.46845 -0.37976,0.84821 -0.84821,0.84821 -0.46846,0 -0.84822,-0.37976 -0.84822,-0.84821 0,-0.46846 0.37976,-0.84822 0.84822,-0.84822 0.46845,0 0.84821,0.37976 0.84821,0.84822 z"
           transform="matrix(-1.2953347,0.08373267,0.09185084,1.3919538,855.55153,282.83283)" />
        <path
           sodipodi:type="arc"
           style="fill:#ffffff;fill-opacity:1;stroke:none"
           id="path4764-8"
           sodipodi:cx="423.97321"
           sodipodi:cy="395.44254"
           sodipodi:rx="0.9375"
           sodipodi:ry="0.84821427"
           d="m 424.91071,395.44254 c 0,0.46845 -0.41974,0.84821 -0.9375,0.84821 -0.51777,0 -0.9375,-0.37976 -0.9375,-0.84821 0,-0.46846 0.41973,-0.84822 0.9375,-0.84822 0.51776,0 0.9375,0.37976 0.9375,0.84822 z"
           transform="matrix(-0.70318168,0.04545487,0.04592542,0.69597692,622.60005,575.25134)" />
        <path
           style="fill:none;stroke:#000000;stroke-width:0.70106047px;stroke-linecap:round;stroke-linejoin:miter;stroke-opacity:1"
           d="m 346.44788,872.64663 c -1.85629,0.62246 -3.27222,1.30896 -7.3975,1.60149"
           id="path4766-8"
           inkscape:connector-curvature="0"
           sodipodi:nodetypes="cc" />
        <path
           style="font-size:medium;font-style:normal;font-variant:normal;font-weight:normal;font-stretch:normal;text-indent:0;text-align:start;text-decoration:none;line-height:normal;letter-spacing:normal;word-spacing:normal;text-transform:none;direction:ltr;block-progression:tb;writing-mode:lr-tb;text-anchor:start;baseline-shift:baseline;color:#000000;fill:#000000;fill-opacity:1;stroke:none;stroke-width:0.69999999;marker:none;visibility:visible;display:inline;overflow:visible;enable-background:accumulate;font-family:Sans;-inkscape-font-specification:Sans"
           d="m 342.19771,867.14529 c 1.10236,-0.037 2.29232,0.21017 3.5466,0.90653 0.027,0.0161 0.051,0.0365 0.0702,0.0609 0.1407,0.17315 -0.10771,0.47243 -0.30666,0.3693 -4.76391,-2.91399 -7.10615,1.36829 -9.42783,2.26944 0.16208,-0.29751 0.52817,-0.77613 1.06231,-1.29184 0.53412,-0.51571 1.23254,-1.06853 2.08505,-1.51084 0.85251,-0.44229 1.86795,-0.76658 2.97032,-0.80356 z"
           id="path4768-2"
           inkscape:connector-curvature="0"
           sodipodi:nodetypes="cccccsscc" />
        <path
           style="fill:#deaa87;fill-opacity:1;stroke:none"
           d="m 333.31012,896.82904 7.83018,-2.85022 c 0.7594,-1.2883 1.61286,-2.59793 0.0826,2.26471 -0.22697,0.72124 -5.40106,1.40946 -7.91283,0.58551 z"
           id="path4868"
           inkscape:connector-curvature="0"
           sodipodi:nodetypes="ccsc" />
        <path
           style="fill:none;stroke:#000000;stroke-width:0.70106047px;stroke-linecap:round;stroke-linejoin:miter;stroke-opacity:1"
           d="m 332.27922,896.36446 c 2.34926,0.51034 7.19137,-0.76285 9.53607,-3.12195"
           id="path4824"
           inkscape:connector-curvature="0"
           sodipodi:nodetypes="cc" />
        <path
           style="fill:#000000;stroke:none;display:inline"
           d="m 325.94815,862.56236 c -4.46278,-3.18264 -15.78955,-1.54839 -17.55551,1.89963 4.0805,-4.57291 19.96248,1.92853 17.55551,-1.89963 z"
           id="path4732-1-4"
           inkscape:connector-curvature="0"
           sodipodi:nodetypes="ccc" />
        <path
           style="fill:none;stroke:#000000;stroke-width:0.70106047px;stroke-linecap:round;stroke-linejoin:miter;stroke-opacity:1"
           d="m 340.26518,887.11561 c 1.84687,-0.72883 2.60027,0.18012 3.08299,1.49455"
           id="path4870"
           inkscape:connector-curvature="0"
           sodipodi:nodetypes="cc" />
        <path
           style="fill:none;stroke:#000000;stroke-width:0.70106047px;stroke-linecap:round;stroke-linejoin:miter;stroke-opacity:1"
           d="m 323.52903,891.22563 c -0.65065,0.091 -1.48688,0.68171 -0.25166,1.80592"
           id="path4874"
           inkscape:connector-curvature="0"
           sodipodi:nodetypes="cc"
           inkscape:transform-center-x="0.7955538"
           inkscape:transform-center-y="-0.74728123" />
      </g>
    </g>
  </g>
</svg>
