<?xml version="1.0" encoding="UTF-8" standalone="no"?>
<!-- Created with Inkscape (http://www.inkscape.org/) -->

<svg
   xmlns:dc="http://purl.org/dc/elements/1.1/"
   xmlns:cc="http://creativecommons.org/ns#"
   xmlns:rdf="http://www.w3.org/1999/02/22-rdf-syntax-ns#"
   xmlns:svg="http://www.w3.org/2000/svg"
   xmlns="http://www.w3.org/2000/svg"
   xmlns:xlink="http://www.w3.org/1999/xlink"
   xmlns:sodipodi="http://sodipodi.sourceforge.net/DTD/sodipodi-0.dtd"
   xmlns:inkscape="http://www.inkscape.org/namespaces/inkscape"
   width="364.7933"
   height="448.55441"
   id="svg2"
   version="1.1"
   inkscape:version="0.48.4 r9939"
   sodipodi:docname="rock_climbing_scene_3.svg">
  <defs
     id="defs4">
    <linearGradient
       id="linearGradient2987">
      <stop
         style="stop-color:#808000;stop-opacity:1;"
         offset="0"
         id="stop2989" />
      <stop
         style="stop-color:#ffaaaa;stop-opacity:1"
         offset="1"
         id="stop2991" />
    </linearGradient>
    <linearGradient
       inkscape:collect="always"
       xlink:href="#linearGradient2987"
       id="linearGradient2993"
       x1="1131.4286"
       y1="920.93359"
       x2="40"
       y2="195.21933"
       gradientUnits="userSpaceOnUse" />
    <linearGradient
       inkscape:collect="always"
       xlink:href="#linearGradient2987"
       id="linearGradient3764"
       gradientUnits="userSpaceOnUse"
       x1="1131.4286"
       y1="920.93359"
       x2="40"
       y2="195.21933" />
    <linearGradient
       inkscape:collect="always"
       xlink:href="#linearGradient2987"
       id="linearGradient3767"
       gradientUnits="userSpaceOnUse"
       x1="1131.4286"
       y1="920.93359"
       x2="40"
       y2="195.21933" />
    <linearGradient
       inkscape:collect="always"
       xlink:href="#linearGradient2987"
       id="linearGradient3770"
       gradientUnits="userSpaceOnUse"
       x1="1131.4286"
       y1="920.93359"
       x2="40"
       y2="195.21933" />
    <linearGradient
       inkscape:collect="always"
       xlink:href="#linearGradient2987"
       id="linearGradient3773"
       gradientUnits="userSpaceOnUse"
       x1="1131.4286"
       y1="920.93359"
       x2="40"
       y2="195.21933" />
    <linearGradient
       inkscape:collect="always"
       xlink:href="#linearGradient2987"
       id="linearGradient3776"
       gradientUnits="userSpaceOnUse"
       x1="1131.4286"
       y1="920.93359"
       x2="40"
       y2="195.21933" />
    <linearGradient
       inkscape:collect="always"
       xlink:href="#linearGradient2987"
       id="linearGradient3779"
       gradientUnits="userSpaceOnUse"
       x1="1131.4286"
       y1="920.93359"
       x2="40"
       y2="195.21933" />
    <linearGradient
       inkscape:collect="always"
       xlink:href="#linearGradient2987"
       id="linearGradient3782"
       gradientUnits="userSpaceOnUse"
       x1="1131.4286"
       y1="920.93359"
       x2="40"
       y2="195.21933" />
    <linearGradient
       inkscape:collect="always"
       xlink:href="#linearGradient2987"
       id="linearGradient3785"
       gradientUnits="userSpaceOnUse"
       x1="1131.4286"
       y1="920.93359"
       x2="40"
       y2="195.21933" />
    <linearGradient
       inkscape:collect="always"
       xlink:href="#linearGradient2987"
       id="linearGradient3788"
       gradientUnits="userSpaceOnUse"
       x1="1131.4286"
       y1="920.93359"
       x2="40"
       y2="195.21933" />
    <linearGradient
       inkscape:collect="always"
       xlink:href="#linearGradient2987"
       id="linearGradient3791"
       gradientUnits="userSpaceOnUse"
       x1="1131.4286"
       y1="920.93359"
       x2="40"
       y2="195.21933" />
    <linearGradient
       inkscape:collect="always"
       xlink:href="#linearGradient2987"
       id="linearGradient3794"
       gradientUnits="userSpaceOnUse"
       x1="1131.4286"
       y1="920.93359"
       x2="40"
       y2="195.21933" />
    <linearGradient
       inkscape:collect="always"
       xlink:href="#linearGradient2987"
       id="linearGradient3797"
       gradientUnits="userSpaceOnUse"
       x1="1131.4286"
       y1="920.93359"
       x2="40"
       y2="195.21933" />
    <linearGradient
       inkscape:collect="always"
       xlink:href="#linearGradient2987"
       id="linearGradient3800"
       gradientUnits="userSpaceOnUse"
       x1="1131.4286"
       y1="920.93359"
       x2="40"
       y2="195.21933" />
    <linearGradient
       inkscape:collect="always"
       xlink:href="#linearGradient2987"
       id="linearGradient3803"
       gradientUnits="userSpaceOnUse"
       x1="1131.4286"
       y1="920.93359"
       x2="40"
       y2="195.21933" />
    <linearGradient
       inkscape:collect="always"
       xlink:href="#linearGradient2987"
       id="linearGradient3806"
       gradientUnits="userSpaceOnUse"
       x1="1131.4286"
       y1="920.93359"
       x2="40"
       y2="195.21933" />
    <linearGradient
       inkscape:collect="always"
       xlink:href="#linearGradient2987"
       id="linearGradient3809"
       gradientUnits="userSpaceOnUse"
       x1="1131.4286"
       y1="920.93359"
       x2="40"
       y2="195.21933" />
    <linearGradient
       inkscape:collect="always"
       xlink:href="#linearGradient2987"
       id="linearGradient3812"
       gradientUnits="userSpaceOnUse"
       x1="1131.4286"
       y1="920.93359"
       x2="40"
       y2="195.21933" />
    <linearGradient
       inkscape:collect="always"
       xlink:href="#linearGradient2987"
       id="linearGradient3815"
       gradientUnits="userSpaceOnUse"
       x1="1131.4286"
       y1="920.93359"
       x2="40"
       y2="195.21933" />
    <linearGradient
       inkscape:collect="always"
       xlink:href="#linearGradient2987"
       id="linearGradient3818"
       gradientUnits="userSpaceOnUse"
       x1="1131.4286"
       y1="920.93359"
       x2="40"
       y2="195.21933" />
    <linearGradient
       inkscape:collect="always"
       xlink:href="#linearGradient2987"
       id="linearGradient3821"
       gradientUnits="userSpaceOnUse"
       x1="1131.4286"
       y1="920.93359"
       x2="40"
       y2="195.21933" />
    <linearGradient
       inkscape:collect="always"
       xlink:href="#linearGradient2987"
       id="linearGradient3824"
       gradientUnits="userSpaceOnUse"
       x1="1131.4286"
       y1="920.93359"
       x2="40"
       y2="195.21933" />
    <linearGradient
       inkscape:collect="always"
       xlink:href="#linearGradient2987"
       id="linearGradient3827"
       gradientUnits="userSpaceOnUse"
       x1="1131.4286"
       y1="920.93359"
       x2="40"
       y2="195.21933" />
    <linearGradient
       inkscape:collect="always"
       xlink:href="#linearGradient2987"
       id="linearGradient3830"
       gradientUnits="userSpaceOnUse"
       x1="1131.4286"
       y1="920.93359"
       x2="40"
       y2="195.21933" />
    <linearGradient
       inkscape:collect="always"
       xlink:href="#linearGradient2987"
       id="linearGradient3833"
       gradientUnits="userSpaceOnUse"
       x1="1131.4286"
       y1="920.93359"
       x2="40"
       y2="195.21933" />
    <linearGradient
       inkscape:collect="always"
       xlink:href="#linearGradient2987"
       id="linearGradient3836"
       gradientUnits="userSpaceOnUse"
       x1="1131.4286"
       y1="920.93359"
       x2="40"
       y2="195.21933" />
    <linearGradient
       inkscape:collect="always"
       xlink:href="#linearGradient2987"
       id="linearGradient3839"
       gradientUnits="userSpaceOnUse"
       x1="1131.4286"
       y1="920.93359"
       x2="40"
       y2="195.21933" />
    <linearGradient
       inkscape:collect="always"
       xlink:href="#linearGradient2987"
       id="linearGradient3842"
       gradientUnits="userSpaceOnUse"
       x1="1131.4286"
       y1="920.93359"
       x2="40"
       y2="195.21933" />
    <linearGradient
       inkscape:collect="always"
       xlink:href="#linearGradient2987"
       id="linearGradient3845"
       gradientUnits="userSpaceOnUse"
       x1="1131.4286"
       y1="920.93359"
       x2="40"
       y2="195.21933" />
    <linearGradient
       inkscape:collect="always"
       xlink:href="#linearGradient2987"
       id="linearGradient3848"
       gradientUnits="userSpaceOnUse"
       x1="1131.4286"
       y1="920.93359"
       x2="40"
       y2="195.21933" />
    <linearGradient
       inkscape:collect="always"
       xlink:href="#linearGradient2987"
       id="linearGradient3851"
       gradientUnits="userSpaceOnUse"
       x1="1131.4286"
       y1="920.93359"
       x2="40"
       y2="195.21933" />
    <linearGradient
       inkscape:collect="always"
       xlink:href="#linearGradient2987"
       id="linearGradient3854"
       gradientUnits="userSpaceOnUse"
       x1="1131.4286"
       y1="920.93359"
       x2="40"
       y2="195.21933" />
    <linearGradient
       inkscape:collect="always"
       xlink:href="#linearGradient2987"
       id="linearGradient3857"
       gradientUnits="userSpaceOnUse"
       x1="1131.4286"
       y1="920.93359"
       x2="40"
       y2="195.21933" />
    <linearGradient
       inkscape:collect="always"
       xlink:href="#linearGradient2987"
       id="linearGradient3860"
       gradientUnits="userSpaceOnUse"
       x1="1131.4286"
       y1="920.93359"
       x2="40"
       y2="195.21933" />
    <linearGradient
       inkscape:collect="always"
       xlink:href="#linearGradient2987"
       id="linearGradient3863"
       gradientUnits="userSpaceOnUse"
       x1="1131.4286"
       y1="920.93359"
       x2="40"
       y2="195.21933" />
    <linearGradient
       inkscape:collect="always"
       xlink:href="#linearGradient2987"
       id="linearGradient3866"
       gradientUnits="userSpaceOnUse"
       x1="1131.4286"
       y1="920.93359"
       x2="40"
       y2="195.21933" />
    <linearGradient
       inkscape:collect="always"
       xlink:href="#linearGradient2987"
       id="linearGradient3869"
       gradientUnits="userSpaceOnUse"
       x1="1131.4286"
       y1="920.93359"
       x2="40"
       y2="195.21933" />
    <linearGradient
       inkscape:collect="always"
       xlink:href="#linearGradient2987"
       id="linearGradient3872"
       gradientUnits="userSpaceOnUse"
       x1="1131.4286"
       y1="920.93359"
       x2="40"
       y2="195.21933" />
    <linearGradient
       inkscape:collect="always"
       xlink:href="#linearGradient2987"
       id="linearGradient3875"
       gradientUnits="userSpaceOnUse"
       x1="1131.4286"
       y1="920.93359"
       x2="40"
       y2="195.21933" />
    <linearGradient
       inkscape:collect="always"
       xlink:href="#linearGradient2987"
       id="linearGradient3878"
       gradientUnits="userSpaceOnUse"
       x1="1131.4286"
       y1="920.93359"
       x2="40"
       y2="195.21933" />
    <linearGradient
       inkscape:collect="always"
       xlink:href="#linearGradient2987"
       id="linearGradient3881"
       gradientUnits="userSpaceOnUse"
       x1="1131.4286"
       y1="920.93359"
       x2="40"
       y2="195.21933" />
    <linearGradient
       inkscape:collect="always"
       xlink:href="#linearGradient2987"
       id="linearGradient3884"
       gradientUnits="userSpaceOnUse"
       x1="1131.4286"
       y1="920.93359"
       x2="40"
       y2="195.21933" />
    <linearGradient
       inkscape:collect="always"
       xlink:href="#linearGradient2987"
       id="linearGradient3887"
       gradientUnits="userSpaceOnUse"
       x1="1131.4286"
       y1="920.93359"
       x2="40"
       y2="195.21933"
       gradientTransform="translate(-874.28573,234.28572)" />
  </defs>
  <sodipodi:namedview
     id="base"
     pagecolor="#ffffff"
     bordercolor="#666666"
     borderopacity="1.0"
     inkscape:pageopacity="0.0"
     inkscape:pageshadow="2"
     inkscape:zoom="1.050338"
     inkscape:cx="165.03404"
     inkscape:cy="307.16806"
     inkscape:document-units="px"
     inkscape:current-layer="layer1"
     showgrid="false"
     inkscape:window-width="1432"
     inkscape:window-height="901"
     inkscape:window-x="135"
     inkscape:window-y="100"
     inkscape:window-maximized="0"
     fit-margin-top="0"
     fit-margin-left="0"
     fit-margin-right="0"
     fit-margin-bottom="0" />
  <metadata
     id="metadata7">
    <rdf:RDF>
      <cc:Work
         rdf:about="">
        <dc:format>image/svg+xml</dc:format>
        <dc:type
           rdf:resource="http://purl.org/dc/dcmitype/StillImage" />
        <dc:title></dc:title>
      </cc:Work>
    </rdf:RDF>
  </metadata>
  <g
     inkscape:label="Calque 1"
     inkscape:groupmode="layer"
     id="layer1"
     transform="translate(-378.00989,-316.66019)">
    <path
       style="fill:#000000"
       d="m 658.37022,760.36744 c -2.44889,-2.70018 -4.39609,-6.07011 -4.39609,-7.6081 0,-1.51852 -1.33245,-5.87505 -2.96099,-9.68118 -1.62854,-3.80613 -2.96098,-7.7222 -2.96098,-8.70237 0,-0.98015 -1.29473,-4.27273 -2.87718,-7.31683 -4.03398,-7.76 -7.48577,-15.50712 -8.4358,-18.93309 -0.44423,-1.60198 -3.14383,-7.03244 -5.99909,-12.06769 -2.85528,-5.03525 -5.19142,-9.62274 -5.19142,-10.19442 0,-0.57168 -0.46832,-1.03942 -1.0407,-1.03942 -1.11764,0 -2.56491,3.30845 -5.09655,11.65076 -1.52239,5.01655 -1.76824,5.22853 -5.69628,4.91101 -2.25789,-0.18251 -5.3863,-1.23108 -6.95204,-2.33015 -1.56576,-1.09908 -3.83912,-2.56941 -5.05193,-3.26739 -1.21282,-0.69799 -1.85219,-1.61624 -1.42084,-2.04055 0.43135,-0.42432 -6.35379,-7.85828 -15.07811,-16.51991 -16.88781,-16.7665 -18.12664,-18.34498 -20.09799,-25.60845 -3.4017,-12.53357 -6.77359,-14.95422 -22.72922,-16.31707 -5.39619,-0.46092 -11.94411,-1.54224 -14.55094,-2.40291 -2.60683,-0.86069 -6.67441,-1.32884 -9.03908,-1.04033 -2.85515,0.34835 -4.77899,-0.0438 -5.72706,-1.16761 -0.91885,-1.08907 -2.60604,-1.46034 -4.73391,-1.04171 -1.84556,0.36309 -3.6622,0.0839 -4.11198,-0.63199 -0.44315,-0.70535 -1.64035,-1.28245 -2.66042,-1.28245 -2.65129,0 -15.77142,-5.94767 -15.77142,-7.14956 0,-0.55328 -0.80694,-1.00597 -1.7932,-1.00597 -1.4703,0 -1.68262,1.2587 -1.17916,6.99046 0.37814,4.30498 0.15702,6.99045 -0.57559,6.99045 -0.65429,0 -1.15217,1.17964 -1.10638,2.62143 0.0795,2.5013 0.12988,2.51465 1.10115,0.29127 1.10174,-2.52209 1.06471,-2.73712 1.7057,9.90315 0.14623,2.88356 0.65514,6.55355 1.13092,8.15553 l 0.86505,2.91269 -2.4167,-2.91269 -2.4167,-2.91269 -0.0263,4.95157 c -0.0274,5.146 0.77812,5.96563 3.43494,3.49523 1.29257,-1.20187 1.32668,-0.99829 0.1952,1.16508 -1.57827,3.01766 -3.92241,3.35846 -6.39185,0.92929 -0.94611,-0.93068 -1.97302,-1.44344 -2.28203,-1.13946 -0.30901,0.30397 -0.30465,-2.08028 0.009,-5.29832 0.38081,-3.89672 0.12577,-5.85101 -0.76337,-5.85101 -0.85978,0 -1.33509,-2.82373 -1.33509,-7.93147 l 0,-7.93148 -5.948,0 c -3.66661,0 -6.54973,-0.64454 -7.51684,-1.6804 -1.64561,-1.76261 -6.66985,-16.73978 -6.66985,-19.88266 0,-2.61256 3.32552,-5.09237 9.55559,-7.12548 l 5.41023,-1.76557 1.53077,5.09985 c 0.84192,2.80491 1.95502,5.09985 2.47356,5.09985 0.51853,0 0.66403,1.04856 0.32333,2.33015 -0.34071,1.28158 -0.0865,2.33015 0.56494,2.33015 1.822,0 2.75324,-5.03617 1.12003,-6.05713 -0.98777,-0.61748 -0.78904,-0.90321 0.63673,-0.91549 1.13998,-0.009 2.07269,-0.54212 2.07269,-1.18291 0,-0.6408 -0.59513,-1.16508 -1.32253,-1.16508 -0.75,0 -1.04777,-1.03355 -0.68783,-2.38751 0.45143,-1.69811 -0.4972,-3.40071 -3.28528,-5.89642 -2.33582,-2.09088 -3.71812,-4.30417 -3.42048,-5.47676 0.60195,-2.37149 -5.85019,-9.47716 -10.80135,-11.89539 -1.94049,-0.94776 -10.16314,-6.04856 -18.27256,-11.3351 -8.10941,-5.28653 -15.15762,-9.61188 -15.66267,-9.61188 -0.50505,0 -1.82314,1.87574 -2.92906,4.16831 -1.10593,2.29257 -3.82859,5.56934 -6.05034,7.28173 -2.54453,1.96115 -5.72734,6.56298 -8.59988,12.43403 -3.64548,7.45079 -5.67199,10.09031 -10.10166,13.15737 -4.20918,2.91438 -5.33295,4.31483 -4.67452,5.82538 1.48414,3.40487 2.01246,8.24185 1.23364,11.29432 -1.00342,3.93273 -3.24847,3.74564 -2.81935,-0.23495 0.24218,-2.24655 -0.2594,-3.28365 -1.73177,-3.58065 -2.5792,-0.52029 -2.85173,3.95784 -0.44778,7.35777 1.08063,1.52835 1.29177,3.1762 0.63036,4.91955 -1.21462,3.20153 -1.81992,3.229 -6.69674,0.30404 -3.02324,-1.81323 -3.84928,-3.09137 -3.84928,-5.95593 0,-3.6743 2.8372,-13.62191 5.11702,-17.94091 0.67649,-1.28158 3.4918,-6.85354 6.25627,-12.38211 2.76446,-5.52858 6.56731,-11.82 8.45078,-13.98092 4.72731,-5.4237 10.96776,-15.77656 10.98174,-18.21864 0.0165,-2.87562 5.61974,-14.36741 8.45905,-17.34872 2.08498,-2.18926 2.19429,-2.86195 0.85187,-5.24285 -0.84699,-1.50223 -1.57776,-2.99348 -1.62393,-3.31388 -0.30746,-2.13376 -3.33851,-5.82538 -4.783,-5.82538 -1.37642,0 -1.59966,-1.13916 -1.07147,-5.46751 0.36696,-3.00713 0.90495,-5.84591 1.19552,-6.30841 0.29058,-0.4625 -0.019,-1.02036 -0.6879,-1.2397 -1.8925,-0.62054 1.41522,-6.66452 4.16245,-7.6058 1.30284,-0.44639 2.75004,-0.71381 3.216,-0.59426 0.46597,0.11955 2.33139,-0.37483 4.14538,-1.09862 1.81399,-0.72378 5.07249,-1.19826 7.2411,-1.0544 2.39811,0.15909 4.83432,-0.53196 6.21807,-1.76382 1.27662,-1.13648 2.27513,-1.44519 2.27513,-0.70341 0,0.72707 2.12339,2.38756 4.71863,3.68997 5.26905,2.64422 6.73467,5.95968 4.82205,10.90822 -1.46555,3.79179 -0.57673,5.85419 5.7555,13.35505 4.20765,4.9842 4.30565,5.02551 10.76049,4.53574 13.36846,-1.01436 21.55413,-6.49753 42.67634,-28.58664 l 5.65933,-5.9184 -5.52263,-7.90928 c -3.70619,-5.30786 -6.49357,-8.10414 -8.47462,-8.50172 -3.84205,-0.77108 -8.28177,-3.69197 -8.28177,-5.44857 0,-0.76061 -1.59652,-2.61201 -3.54785,-4.11424 -3.65522,-2.81398 -8.29609,-13.37162 -8.29609,-18.87298 0,-1.56882 -1.33243,-4.4101 -2.96097,-6.31394 -1.62854,-1.90386 -2.96098,-3.95996 -2.96098,-4.56913 0,-0.60917 -1.13112,-2.10634 -2.51362,-3.32704 -1.38248,-1.22071 -4.09825,-4.97195 -6.03503,-8.33611 -1.93678,-3.36416 -3.9188,-6.11665 -4.40451,-6.11665 -2.51342,0 -10.57516,-19.95373 -17.88722,-44.2729 -1.445,-4.80594 -5.03824,-13.19449 -7.98497,-18.64123 -2.94672,-5.44673 -7.49176,-13.83528 -10.10009,-18.64122 -2.60832,-4.80594 -5.19211,-8.91283 -5.74174,-9.12643 -0.54963,-0.2136 -0.99933,-1.05055 -0.99933,-1.85989 0,-1.92233 -3.38967,-8.58305 -4.80622,-9.44424 -0.60665,-0.36883 -1.65761,-1.68997 -2.33545,-2.93585 -1.21796,-2.23866 0.72951,-2.26527 165.80877,-2.26527 l 167.04121,0 0,224.27721 0,224.27721 -40.01869,0 -40.01867,0 -4.3961,-4.84717 z m -46.72642,-82.5226 c 2.97917,-3.42268 1.50067,-12.45048 -2.67247,-16.31813 -4.35755,-4.03858 -28.88246,-24.32961 -32.01401,-26.48726 -2.78392,-1.91813 -2.34051,-1.02195 12.37881,25.01846 10.51449,18.60155 17.05754,23.81863 22.30767,17.78693 z m 5.14864,-6.51417 c -0.39541,-1.0136 -0.71892,-2.06217 -0.71892,-2.33016 0,-0.26798 -0.48307,-0.48724 -1.07351,-0.48724 -0.59043,0 -0.79476,1.04857 -0.45406,2.33015 0.3407,1.28158 1.14729,2.33015 1.79243,2.33015 0.64514,0 0.84946,-0.8293 0.45406,-1.8429 z m -15.66611,-19.41974 c -0.48085,-0.80099 -2.02868,-3.0292 -3.43961,-4.95158 -1.41093,-1.92237 -5.38472,-9.00021 -8.83063,-15.72853 -8.15818,-15.92926 -7.89585,-15.63896 -11.56601,-12.79911 -1.64438,1.27238 -3.65212,2.31342 -4.46163,2.31342 -0.80952,0 -2.11029,0.75673 -2.89061,1.68163 -1.15902,1.37376 -0.26406,2.81471 4.88865,7.871 5.67963,5.57334 25.90469,22.95238 26.80812,23.03574 0.2013,0.0186 -0.0275,-0.62158 -0.50828,-1.42257 z M 481.26976,629.81331 c -0.84988,-0.83601 -1.40153,-0.9048 -1.40153,-0.17476 0,1.55512 1.40067,2.93295 2.19113,2.15539 0.33657,-0.33107 -0.0187,-1.22235 -0.7896,-1.98063 z m -2.24275,-5.57295 c 0.34071,-1.28158 0.13637,-2.33015 -0.45405,-2.33015 -0.59043,0 -1.07351,1.04857 -1.07351,2.33015 0,1.28159 0.20433,2.33016 0.45406,2.33016 0.24973,0 0.7328,-1.04857 1.0735,-2.33016 z m -1.62894,-5.82538 c -0.0596,-2.66753 -0.15079,-2.71656 -1.08301,-0.58254 -0.55985,1.28159 -1.04721,3.37872 -1.08301,4.66031 -0.0538,1.92323 0.13539,2.02496 1.08301,0.58254 0.63147,-0.96119 1.11882,-3.05833 1.08301,-4.66031 z m 67.59398,-5.53411 c -0.009,-0.4806 -0.72641,-2.87565 -1.59246,-5.32236 -1.61143,-4.5525 -16.62708,-20.60059 -19.27526,-20.60059 -1.23605,0 -6.3555,8.7427 -6.3555,10.85352 0,0.43849 1.49234,0.79724 3.31631,0.79724 4.12503,0 6.15884,1.90744 6.15884,5.77616 0,2.59396 1.03559,3.38431 7.99466,6.10148 8.8055,3.43812 9.7796,3.67726 9.75341,2.39455 z m 25.13571,-6.55668 c 2.41504,-2.64155 4.4137,-5.75001 4.44148,-6.9077 0.0277,-1.15768 -2.18519,-6.37633 -4.91769,-11.597 -3.59512,-6.86873 -5.03369,-11.0852 -5.20516,-15.25635 -0.16024,-3.89775 -0.85259,-6.10313 -2.13818,-6.81085 -1.04565,-0.57564 -1.9012,-1.98787 -1.9012,-3.13829 0,-1.15044 -1.04589,-3.02277 -2.32419,-4.16076 -1.27832,-1.13799 -2.90304,-3.7943 -3.61047,-5.90293 -0.70745,-2.10862 -2.05996,-4.12591 -3.00558,-4.48286 -2.25571,-0.85149 -2.25266,6.43479 0.0133,31.57225 2.42458,26.89755 4.77413,33.67309 11.1659,32.19975 1.69997,-0.39185 5.06679,-2.87372 7.48183,-5.51526 z m -31.6905,-12.66708 c -2.355,-7.27348 -6.95691,-18.30857 -7.64009,-18.32044 -0.32571,-0.006 -1.80443,2.18543 -3.28605,4.86911 l -2.69383,4.87939 6.80214,6.76176 c 3.74118,3.71896 7.1664,6.76175 7.6116,6.76175 0.4452,0 0.088,-2.22821 -0.79377,-4.95157 z m -37.89753,-25.25224 c 0.37212,-0.59229 -0.22459,-1.24765 -1.32603,-1.45635 -1.85265,-0.35102 -1.84439,-0.53508 0.11027,-2.45787 1.18374,-1.16442 3.02266,-1.7944 4.18163,-1.43255 1.34228,0.41907 3.6899,-0.83501 6.68547,-3.57132 2.53921,-2.31946 8.36313,-6.72443 12.94206,-9.78883 4.57893,-3.06442 9.04125,-6.42023 9.91628,-7.45738 1.02262,-1.21205 3.44321,-1.88571 6.77573,-1.88571 3.50186,0 5.18475,-0.4986 5.18475,-1.53615 0,-4.40469 -3.90519,-13.50565 -7.07852,-16.4963 -1.96956,-1.85618 -3.58102,-4.26727 -3.58102,-5.35798 0,-3.23299 -3.87773,-6.74213 -7.84237,-7.09692 -2.76972,-0.24787 -4.99772,0.701 -8.88296,3.78307 -2.85228,2.26264 -6.90718,5.29263 -9.0109,6.7333 -2.10371,1.44067 -7.00863,6.45204 -10.89979,11.13637 -3.89117,4.68434 -8.94278,9.3889 -11.22578,10.45458 -2.283,1.0657 -4.46483,2.43727 -4.84852,3.04796 -0.94499,1.50409 2.1662,10.22689 6.18646,17.34489 2.62958,4.65575 4.00973,5.92292 6.84666,6.28619 1.95425,0.25025 3.92146,0.53889 4.37158,0.64144 0.45011,0.10253 1.12286,-0.29814 1.495,-0.89044 z"
       id="path3949"
       inkscape:connector-curvature="0" />
  </g>
</svg>
